<?xml version="1.0" encoding="UTF-8" standalone="no"?>
<!DOCTYPE svg PUBLIC "-//W3C//DTD SVG 1.1//EN" "http://www.w3.org/Graphics/SVG/1.1/DTD/svg11.dtd">
<svg width="100%" height="100%" viewBox="0 0 7200 10800" version="1.1" xmlns="http://www.w3.org/2000/svg" xmlns:xlink="http://www.w3.org/1999/xlink" xml:space="preserve" xmlns:serif="http://www.serif.com/" style="fill-rule:evenodd;clip-rule:evenodd;stroke-linecap:round;stroke-linejoin:round;stroke-miterlimit:1.5;">
    <g id="Banner" transform="matrix(1,0,0,1,38.7073,-72.0607)">
        <path d="M1074.05,1083.46C1040.17,1073.94 924.442,1073.86 750.089,1086.67C540.76,1102.04 259.278,1067.41 258.464,1069.6C251.38,1088.69 449.985,1265.83 608.588,1370.11C757.873,1468.27 924.35,1610.93 928.889,1623.95C943.484,1665.78 220.486,2209.5 262.803,2295.76C266.656,2303.61 646.78,2263.46 824.536,2250.89C1128.23,2229.41 1434.02,2212.58 1738.58,2214.91C1746.78,2214.97 1811.25,2222.18 1813.19,2208.27C1813.3,2207.45 1813.2,2206.61 1812.99,2205.81C1807.17,2184.63 1604.57,1981.65 1596.88,1982.09C1547.47,1984.9 1123.65,2007.05 1127.39,1976.99" style="fill:rgb(255,251,136);stroke:black;stroke-width:41.67px;"/>
        <path d="M5986.06,984.912C6042.52,989.457 6359.51,1013.25 6428.12,1015.93C6581.62,1021.94 6836.74,1005.08 6836.74,1005.08C6836.74,1005.08 6522.21,1323.53 6500.88,1352.81C6453.09,1418.42 6206.12,1641.47 6206.37,1642C6208.93,1647.45 6432.75,1870.17 6540.12,1951.95C6663.35,2045.81 6839.75,2224.36 6838.13,2224.36C6329.08,2224.36 5216.49,2239.67 5227.84,2226.04C5240.54,2210.81 5442.09,1960 5429.87,1975.12C5424.16,1982.18 5634.71,1983.84 5788.3,1989.13C5878.11,1992.22 5952.41,1981.28 5953.5,1980.62" style="fill:rgb(255,251,136);stroke:black;stroke-width:41.67px;"/>
        <path d="M1129.53,1984.38C1129.53,1984.38 1109.34,1583.11 1107.08,1503.79C1097.34,1161.52 1058.41,806.439 1071.31,464.538C1071.62,456.224 1067.88,422.832 1077.92,417.254C1111.62,398.533 1392.37,414.118 1429.54,415.299C1688.97,423.539 1942.96,401.023 2174.61,399.497C2519.74,397.224 2763.79,369.153 3108.96,372.84C3869.24,380.962 4311.13,400.956 5126.2,383.725C5321.05,379.605 5472.28,399.347 5606.63,399.147C5614.52,399.135 6000.31,396.317 5998.52,418.422C5994.37,469.652 5992.37,630.996 5990.73,694.774C5987.44,823.005 5981.21,1028.02 5984.18,1198.62C5987.15,1369.74 5978.44,1611.52 5975.21,1706.69C5974.03,1741.41 5962.83,1945.04 5957.06,1976.14C5952.79,1999.15 5521.82,1977.95 5515.62,1977.87C5256.97,1974.54 4816,1944.25 4270.9,1938.97C3912.67,1935.5 3480.5,1956.81 3127.47,1954.48C2809.14,1952.39 2479.64,1920.42 2161.63,1933.46C1991.27,1940.44 1297.52,2027.21 1129.53,1984.38Z" style="fill:rgb(255,253,193);stroke:black;stroke-width:41.67px;"/>
        <g transform="matrix(28.45,0,0,25.1506,-44347.4,-95251.6)">
            <text x="1606.16px" y="3845.49px" style="font-family:'Noteworthy-Light', 'Noteworthy';font-weight:300;font-size:36.447px;">Agg<tspan x="1662.75px 1673.68px 1689.08px 1704.75px 1720.38px 1731.08px 1745.75px " y="3845.49px 3845.49px 3845.49px 3845.49px 3845.49px 3845.49px 3845.49px ">regates</tspan></text>
        </g>
    </g>
    <g>
        <g id="command" transform="matrix(0.757744,0.0178236,-0.0267202,0.70059,2975.81,1225.76)">
            <g transform="matrix(-0.99964,0.0268126,-0.0268126,-0.99964,2878.88,6497.48)">
                <path d="M644.501,2566.08C644.501,2566.08 643.335,2547.4 644.501,2566.08C663.49,2870.38 688.47,2995.12 685.517,3338.78C683.397,3585.43 702.337,4022.68 711.847,4026.46C731.534,4034.27 1256.76,4027.17 1275.54,4026.26C1444.97,4018.07 2152.22,4020.27 2162.99,4001.06C2169.9,3988.74 2139.54,3650.06 2138.34,3639.5C2129.56,3562.62 2102.73,3146.19 2108.11,3050.91C2112.74,2969.15 2076.54,2517.91 2069.94,2517.96C2033.46,2518.26 1674.09,2527.02 1645.5,2528.77C1329.97,2548.01 1007.89,2566.08 644.501,2566.08Z" style="fill:rgb(0,173,255);stroke:black;stroke-width:57.37px;"/>
            </g>
            <g transform="matrix(0.918483,-0.059995,0.0618294,0.920456,-4251.38,-493.424)">
                <text x="5143.42px" y="4575.68px" style="font-family:'Noteworthy-Bold', 'Noteworthy';font-weight:700;font-size:349.103px;">com<tspan x="5756.69px 6003.27px 6194.47px 6380.41px " y="4575.68px 4575.68px 4575.68px 4575.68px ">mand</tspan></text>
            </g>
        </g>
        <g transform="matrix(0.918604,0,0,0.889407,1898.07,1781.9)">
            <text x="2526.36px" y="2890.25px" style="font-family:'Noteworthy-Bold', 'Noteworthy';font-weight:700;font-size:351.358px;">e<tspan x="2668.66px 2859.27px 3026.16px 3202.28px 3359.95px 3479.86px 3646.75px 3720.1px 3843.51px 4007.33px " y="2890.25px 2890.25px 2890.25px 2890.25px 2890.25px 2890.25px 2890.25px 2890.25px 2890.25px 2890.25px ">xecute the</tspan></text>
        </g>
        <g transform="matrix(0.918604,0,0,0.889407,2389.2,1040)">
            <text x="2526.36px" y="2890.25px" style="font-family:'Noteworthy-Bold', 'Noteworthy';font-weight:700;font-size:351.358px;">a<tspan x="2718.73px 2905.83px " y="2890.25px 2890.25px ">nd</tspan> decide<tspan x="4085.95px 4258.99px 4332.34px 4448.73px " y="2890.25px 2890.25px 2890.25px 2890.25px ">s to</tspan></text>
        </g>
        <g id="Event" transform="matrix(0.83622,0.169505,-0.183875,0.77087,6606.03,-175.252)">
            <g transform="matrix(0.155102,0.909384,-0.850329,0.14503,3520.64,3791.25)">
                <path d="M651.314,2500.39C651.314,2500.39 652.624,2853.89 665.532,2971.42C680.951,3111.81 682.072,3282.99 688.028,3584.85C692.898,3831.66 702.337,4022.68 711.847,4026.46C731.534,4034.27 1550.53,3997.14 1569.32,3996.23C1738.75,3988.03 2079.08,4002.12 2089.86,3982.91C2096.76,3970.59 2081.92,3650.22 2086.81,3551.64C2094.26,3401.49 2065.55,3202.6 2064.99,2975.21C2064.91,2943.48 2052.78,2463.05 2046.19,2463.1C2009.7,2463.4 1518.88,2487.44 1375.36,2484.68C1207.5,2481.46 925.56,2494.41 651.314,2500.39Z" style="fill:rgb(255,180,0);stroke:black;stroke-width:56.6px;"/>
            </g>
            <g transform="matrix(0.837002,-0.171539,0.172293,0.84068,-4660.58,2775.46)">
                <text x="5332.49px" y="4575.68px" style="font-family:'Noteworthy-Bold', 'Noteworthy';font-weight:700;font-size:461.364px;">e<tspan x="5542.43px 5753.5px 5972.7px 6194.69px " y="4575.68px 4575.68px 4575.68px 4575.68px ">vent</tspan></text>
            </g>
        </g>
        <g transform="matrix(1,0,0,1,287.09,297.827)">
            <text x="2558.57px" y="3350.73px" style="font-family:'Noteworthy-Bold', 'Noteworthy';font-weight:700;font-size:312.5px;stroke:rgb(255,177,247);stroke-width:1px;stroke-linecap:butt;stroke-miterlimit:2;">t<tspan x="2668.33px 2814.03px " y="3350.73px 3350.73px ">he</tspan></text>
        </g>
        <g transform="matrix(0.918604,0,0,0.889407,388.88,271.135)">
            <text x="2526.36px" y="2890.25px" style="font-family:'Noteworthy-Bold', 'Noteworthy';font-weight:700;font-size:351.358px;">p<tspan x="2695.01px 2889.57px 3012.99px 3143.43px 3216.78px 3388.5px 3529.05px 3602.39px 3725.81px 3889.63px " y="2890.25px 2890.25px 2890.25px 2890.25px 2890.25px 2890.25px 2890.25px 2890.25px 2890.25px 2890.25px ">art of the</tspan> s<tspan x="4292.37px 4461.46px 4634.51px 4754.41px 4921.3px " y="2890.25px 2890.25px 2890.25px 2890.25px 2890.25px ">ystem</tspan> t<tspan x="5369.72px 5533.54px 5707.9px 5838.35px 5911.69px 6038.18px 6205.07px 6381.19px 6558.63px 6623.19px 6783.94px 6943.8px " y="2890.25px 2890.25px 2890.25px 2890.25px 2890.25px 2890.25px 2890.25px 2890.25px 2890.25px 2890.25px 2890.25px 2890.25px ">hat receives</tspan></text>
        </g>
    </g>
    <g transform="matrix(0.918604,0,0,0.889407,2326.43,6109.2)">
        <text x="2833.14px" y="2890.25px" style="font-family:'Noteworthy-Bold', 'Noteworthy';font-weight:700;font-size:351.358px;">t<tspan x="2956.55px 3120.37px 3280.24px 3459.87px " y="2890.25px 2890.25px 2890.25px 2890.25px ">hey </tspan>log<tspan x="3975.49px 4047.08px 4219.68px 4414.25px 4488.47px 4552.16px " y="2890.25px 2890.25px 2890.25px 2890.25px 2890.25px 2890.25px ">ically</tspan></text>
        <text x="2526.36px" y="3246.88px" style="font-family:'Noteworthy-Bold', 'Noteworthy';font-weight:700;font-size:351.358px;">g<tspan x="2712.14px 2835.11px 3026.6px 3198.33px 3377.08px " y="3246.88px 3246.88px 3246.88px 3246.88px 3246.88px ">roup </tspan>com<tspan x="4067.5px 4315.65px 4508.02px 4695.11px 4865.52px " y="3246.88px 3246.88px 3246.88px 3246.88px 3246.88px ">mands</tspan></text>
        <text x="2789.66px" y="3603.51px" style="font-family:'Noteworthy-Bold', 'Noteworthy';font-weight:700;font-size:351.358px;">once a<tspan x="3769.95px 3844.17px 3914.88px 3988.23px 4148.09px 4308.84px 4475.73px 4644.83px " y="3603.51px 3603.51px 3603.51px 3603.51px 3603.51px 3603.51px 3603.51px 3603.51px ">ll event</tspan></text>
        <text x="2915.93px" y="3960.13px" style="font-family:'Noteworthy-Bold', 'Noteworthy';font-weight:700;font-size:351.358px;">s<tspan x="3085.46px 3276.95px 3448.67px 3578.68px 3754.79px 3914.66px 4087.7px 4161.05px 4355.61px 4482.1px " y="3960.13px 3960.13px 3960.13px 3960.13px 3960.13px 3960.13px 3960.13px 3960.13px 3960.13px 3960.13px ">ources are</tspan></text>
        <text x="3240.93px" y="4316.76px" style="font-family:'Noteworthy-Bold', 'Noteworthy';font-weight:700;font-size:351.358px;">deﬁn<tspan x="3979.66px 4146.56px " y="4316.76px 4316.76px ">ed</tspan></text>
    </g>
    <g transform="matrix(0.918604,0,0,0.889407,1669,3273.23)">
        <text x="2526.36px" y="2890.25px" style="font-family:'Noteworthy-Bold', 'Noteworthy';font-weight:700;font-size:468.477px;">u<tspan x="2736.59px 2957.94px 3168.17px 3427.59px 3526.56px 3611.47px 3850.98px " y="2890.25px 2890.25px 2890.25px 2890.25px 2890.25px 2890.25px 2890.25px ">sually </tspan>a no<tspan x="4801.99px 5026.27px " y="2890.25px 2890.25px ">un</tspan></text>
    </g>
    <g id="the-aggregate-is-the-state-machine" serif:id="the aggregate is the state machine">
        <g transform="matrix(0.918604,0,0,0.889407,1229.63,4656.42)">
            <text x="2697.06px" y="2890.25px" style="font-family:'Noteworthy-Bold', 'Noteworthy';font-weight:700;font-size:468.477px;">t<tspan x="2861.61px 3080.04px " y="2890.25px 2890.25px ">he</tspan> a<tspan x="3653.92px 3892.26px 4139.97px 4308.62px 4531.15px 4760.7px 4993.18px 5153.05px 5375.58px 5473.37px 5550.09px " y="2890.25px 2890.25px 2890.25px 2890.25px 2890.25px 2890.25px 2890.25px 2890.25px 2890.25px 2890.25px 2890.25px ">ggregate is</tspan></text>
            <text x="2526.36px" y="3456.17px" style="font-family:'Noteworthy-Bold', 'Noteworthy';font-weight:700;font-size:468.477px;">t<tspan x="2690.91px 2909.34px " y="3456.17px 3456.17px ">he</tspan> st<tspan x="3602.68px 3835.17px 3995.03px 4217.56px 4315.36px 4646.22px 4902.71px 5137.53px 5381.14px 5476.59px 5728.98px " y="3456.17px 3456.17px 3456.17px 3456.17px 3456.17px 3456.17px 3456.17px 3456.17px 3456.17px 3456.17px 3456.17px ">ate machine</tspan></text>
        </g>
        <g transform="matrix(0.764587,0,0,0.740286,1858.28,241.638)">
            <text x="1975.22px" y="9789.08px" style="font-family:'Noteworthy-Bold', 'Noteworthy';font-weight:700;font-size:833.333px;fill:rgb(225,29,0);stroke:rgb(255,0,1);stroke-width:1.33px;stroke-linecap:butt;stroke-miterlimit:2;">*</text>
        </g>
        <g transform="matrix(1,0,0,1,-0.160934,-33.3518)">
            <path d="M4236.8,7837.55C4232.72,7844.73 4639.17,7839.54 4657.41,7838.35C4713.79,7834.68 5296.99,7856.31 5474.08,7856.93C5902.48,7858.43 5699.05,7857.95 6101.77,7857.95C6237.14,7857.95 6499.12,7859.4 6634.22,7861.51" style="fill:none;stroke:rgb(255,0,7);stroke-width:36.84px;"/>
        </g>
        <g transform="matrix(1,0,0,1,-34.5492,-88.0606)">
            <path d="M4254.85,7974.59C4245.37,7975.68 4550.36,7982.38 4559.89,7982.38C4634.61,7982.41 5037.4,7983.17 5112.08,7985.36C5308.75,7991.12 5809.99,7982.3 5991.34,7981.61C6164.69,7980.95 6452.47,7982 6666.95,7988.07" style="fill:none;stroke:rgb(255,10,0);stroke-width:36.84px;"/>
        </g>
    </g>
    <g id="aggregate" transform="matrix(1,0,0,1,-60.174,-9.95244)">
        <g transform="matrix(1.49466,0,0,0.801091,-610.247,707.067)">
            <path d="M596.341,2509.6C596.341,2509.6 595.29,2500.93 596.456,2519.61C615.445,2823.92 610.007,3064.77 621.044,3371.47C630.754,3641.26 633.741,4005.16 638.329,4025.96C645.989,4060.69 1455.42,4027.24 1474.21,4026.33C1643.64,4018.13 2073.18,4056.77 2072.07,4029.04C2070.9,3999.77 2059.4,3291.64 2052.88,3196.31C2050.72,3164.66 2040.11,2508.86 2033.51,2508.91C1997.03,2509.21 1445.46,2519.92 1219.22,2511.85C848.143,2498.6 959.731,2509.6 596.341,2509.6Z" style="fill:rgb(255,248,47);stroke:black;stroke-width:34.75px;"/>
        </g>
        <g transform="matrix(0.54244,0,0,0.525199,1008.46,1636.31)">
            <text x="-1026.85px" y="3521.83px" style="font-family:'Noteworthy-Bold', 'Noteworthy';font-weight:700;font-size:833.333px;">a<tspan x="-575.97px -152.012px 288.084px 589.143px 984.977px 1393.81px 1808.38px 2093.54px " y="3521.83px 3521.83px 3521.83px 3521.83px 3521.83px 3521.83px 3521.83px 3521.83px ">ggregate</tspan></text>
        </g>
    </g>
    <g id="notification" transform="matrix(1,0,0,1,384.693,1817.83)">
        <g transform="matrix(1.49466,0,0,0.801091,-610.247,707.067)">
            <path d="M596.341,2509.6C596.341,2509.6 596.048,2490.8 596.341,2509.6C601.077,2813.55 610.007,3064.77 621.044,3371.47C630.754,3641.26 621.396,3987.24 625.984,4008.04C633.644,4042.77 1424.24,4023.09 1474.21,4026.33C1643.6,4037.31 2051.06,4037.36 2049.95,4009.63C2048.78,3980.36 2059.4,3291.64 2052.88,3196.31C2050.72,3164.66 2040.11,2508.86 2033.51,2508.91C1997.03,2509.21 1445.46,2519.92 1219.22,2511.85C848.143,2498.6 959.731,2509.6 596.341,2509.6Z" style="fill:rgb(255,248,47);stroke:black;stroke-width:34.75px;"/>
        </g>
        <g transform="matrix(0.54244,0,0,0.525199,1008.01,1636.31)">
            <text x="-1000.9px" y="3521.83px" style="font-family:'Noteworthy-Bold', 'Noteworthy';font-weight:700;font-size:730.199px;">no<tspan x="-269.515px 1.572px " y="3521.83px 3521.83px ">ti</tspan>ﬁc<tspan x="935.546px 1298.81px 1569.89px 1697.46px 2076.25px " y="3521.83px 3521.83px 3521.83px 3521.83px 3521.83px ">ation</tspan></text>
        </g>
    </g>
    <g id="order" transform="matrix(1,0,0,1,421.109,3114.32)">
        <g transform="matrix(1.49466,0,0,0.801091,-610.247,707.067)">
            <path d="M596.341,2509.6C596.341,2509.6 596.397,2500.81 596.456,2519.61C597.521,2858.47 597.526,3037.29 608.563,3343.98C618.273,3613.78 608.334,3943 613.432,4000.82C616.698,4037.88 1232.24,4025.81 1251.02,4024.9C1420.45,4016.7 2042.08,4010.47 2042.16,4001.39C2042.43,3972.03 2034.6,3388.32 2042.04,3246.75C2043.71,3215 2048.14,2536.33 2043.27,2531.69C2032.97,2521.88 1445.46,2519.92 1219.22,2511.85C848.143,2498.6 959.731,2509.6 596.341,2509.6Z" style="fill:rgb(255,248,47);stroke:black;stroke-width:34.75px;"/>
        </g>
        <g transform="matrix(0.54244,0,0,0.525199,991.907,1636.31)">
            <text x="-66.891px" y="3521.83px" style="font-family:'Noteworthy-Bold', 'Noteworthy';font-weight:700;font-size:730.199px;">or<tspan x="582.77px 951.521px " y="3521.83px 3521.83px ">de</tspan>r</text>
        </g>
    </g>
    <g id="thing" transform="matrix(1,0,0,1,1031.02,5716.11)">
        <g transform="matrix(1.49466,0,0,0.801091,-610.247,707.067)">
            <path d="M596.341,2509.6C596.341,2509.6 596.397,2500.81 596.456,2519.61C597.521,2858.47 597.526,3037.29 608.563,3343.98C618.273,3613.78 608.334,3943 613.432,4000.82C616.698,4037.88 1232.24,4025.81 1251.02,4024.9C1420.45,4016.7 2042.08,4010.47 2042.16,4001.39C2042.43,3972.03 2034.6,3388.32 2042.04,3246.75C2043.71,3215 2048.14,2536.33 2043.27,2531.69C2032.97,2521.88 1445.46,2519.92 1219.22,2511.85C848.143,2498.6 959.731,2509.6 596.341,2509.6Z" style="fill:rgb(255,248,47);stroke:black;stroke-width:34.75px;"/>
        </g>
        <g transform="matrix(0.54244,0,0,0.525199,914.585,1598.96)">
            <text x="-8.622px" y="3521.83px" style="font-family:'Noteworthy-Bold', 'Noteworthy';font-weight:700;font-size:730.199px;">t<tspan x="248.325px 626.781px 775.56px " y="3521.83px 3521.83px 3521.83px ">hin</tspan>g</text>
        </g>
    </g>
    <g id="command-2" serif:id="command 2" transform="matrix(0.757744,0.0178236,-0.0267202,0.70059,-15.4827,7319.88)">
        <g transform="matrix(-0.99964,0.0268126,-0.0268126,-0.99964,2878.88,6497.48)">
            <path d="M644.501,2566.08C644.501,2566.08 643.335,2547.4 644.501,2566.08C663.49,2870.38 688.47,2995.12 685.517,3338.78C683.397,3585.43 702.337,4022.68 711.847,4026.46C731.534,4034.27 1256.76,4027.17 1275.54,4026.26C1444.97,4018.07 2152.22,4020.27 2162.99,4001.06C2169.9,3988.74 2139.54,3650.06 2138.34,3639.5C2129.56,3562.62 2102.73,3146.19 2108.11,3050.91C2112.74,2969.15 2076.54,2517.91 2069.94,2517.96C2033.46,2518.26 1674.09,2527.02 1645.5,2528.77C1329.97,2548.01 1007.89,2566.08 644.501,2566.08Z" style="fill:rgb(0,173,255);stroke:black;stroke-width:57.37px;"/>
        </g>
        <g transform="matrix(0.922519,-0.0602586,0.0618294,0.920456,-4282.27,-638.514)">
            <g transform="matrix(0.995625,0,0,1,22.5024,0)">
                <text x="5143.42px" y="4575.68px" style="font-family:'Noteworthy-Bold', 'Noteworthy';font-weight:700;font-size:349.103px;">com<tspan x="5756.69px 6003.27px 6194.47px 6380.41px " y="4575.68px 4575.68px 4575.68px 4575.68px ">mand</tspan></text>
            </g>
            <g transform="matrix(0.995625,0,0,1,25.0122,0)">
                <text x="5717.07px" y="4988.9px" style="font-family:'Noteworthy-Bold', 'Noteworthy';font-weight:700;font-size:349.103px;">2</text>
            </g>
        </g>
    </g>
    <g id="command-1" serif:id="command 1" transform="matrix(0.757744,0.0178236,-0.0267202,0.70059,-132.297,6156.5)">
        <g transform="matrix(-0.99964,0.0268126,-0.0268126,-0.99964,2878.88,6497.48)">
            <path d="M644.501,2566.08C644.501,2566.08 643.335,2547.4 644.501,2566.08C663.49,2870.38 688.47,2995.12 685.517,3338.78C683.397,3585.43 702.337,4022.68 711.847,4026.46C731.534,4034.27 1256.76,4027.17 1275.54,4026.26C1444.97,4018.07 2152.22,4020.27 2162.99,4001.06C2169.9,3988.74 2139.54,3650.06 2138.34,3639.5C2129.56,3562.62 2102.73,3146.19 2108.11,3050.91C2112.74,2969.15 2076.54,2517.91 2069.94,2517.96C2033.46,2518.26 1674.09,2527.02 1645.5,2528.77C1329.97,2548.01 1007.89,2566.08 644.501,2566.08Z" style="fill:rgb(0,173,255);stroke:black;stroke-width:57.37px;"/>
        </g>
        <g transform="matrix(0.922519,-0.0602586,0.0618294,0.920456,-4286.37,-655.644)">
            <g transform="matrix(0.995625,0,0,1,22.5024,0)">
                <text x="5143.42px" y="4575.68px" style="font-family:'Noteworthy-Bold', 'Noteworthy';font-weight:700;font-size:349.103px;">com<tspan x="5756.69px 6003.27px 6194.47px 6380.41px " y="4575.68px 4575.68px 4575.68px 4575.68px ">mand</tspan></text>
            </g>
            <g transform="matrix(0.995625,0,0,1,25.3429,0)">
                <text x="5792.66px" y="5005.01px" style="font-family:'Noteworthy-Bold', 'Noteworthy';font-weight:700;font-size:349.103px;">1</text>
            </g>
        </g>
    </g>
    <g id="Event1" serif:id="Event" transform="matrix(0.83622,0.169505,-0.183875,0.77087,4041.46,4830.77)">
        <g transform="matrix(0.155102,0.909384,-0.850329,0.14503,3520.64,3791.25)">
            <path d="M651.314,2500.39C651.314,2500.39 652.624,2853.89 665.532,2971.42C680.951,3111.81 682.072,3282.99 688.028,3584.85C692.898,3831.66 702.337,4022.68 711.847,4026.46C731.534,4034.27 1550.53,3997.14 1569.32,3996.23C1738.75,3988.03 2079.08,4002.12 2089.86,3982.91C2096.76,3970.59 2081.92,3650.22 2086.81,3551.64C2094.26,3401.49 2065.55,3202.6 2064.99,2975.21C2064.91,2943.48 2052.78,2463.05 2046.19,2463.1C2009.7,2463.4 1518.88,2487.44 1375.36,2484.68C1207.5,2481.46 925.56,2494.41 651.314,2500.39Z" style="fill:rgb(255,180,0);stroke:black;stroke-width:56.6px;"/>
        </g>
        <g transform="matrix(0.837002,-0.171539,0.172293,0.84068,-4660.58,2775.46)">
            <text x="5332.49px" y="4575.68px" style="font-family:'Noteworthy-Bold', 'Noteworthy';font-weight:700;font-size:461.364px;">e<tspan x="5542.43px 5753.5px 5972.7px 6194.69px " y="4575.68px 4575.68px 4575.68px 4575.68px ">vent</tspan></text>
        </g>
    </g>
    <g transform="matrix(1,0,0,1,-177.549,-43.0889)">
        <path d="M3206.33,6497.88C3203.94,6500.07 3448.18,6277.01 3467.87,6261.06C3529.2,6211.38 3683.38,6081.41 3744.63,6031.65C3824.29,5966.92 4023.97,5808.54 4024.24,5777.25C4024.49,5748.61 3796.55,5588.36 3757.35,5561.42C3678.44,5507.18 3516.5,5385.43 3438.03,5330.57C3330.17,5255.16 3279.06,5227.47 3180.13,5143.46" style="fill:none;stroke:black;stroke-width:36.84px;"/>
    </g>
</svg>
