<?xml version="1.0" encoding="UTF-8" standalone="no"?>
<!DOCTYPE svg PUBLIC "-//W3C//DTD SVG 1.1//EN" "http://www.w3.org/Graphics/SVG/1.1/DTD/svg11.dtd">
<svg width="100%" height="100%" viewBox="0 0 7200 10800" version="1.1" xmlns="http://www.w3.org/2000/svg" xmlns:xlink="http://www.w3.org/1999/xlink" xml:space="preserve" xmlns:serif="http://www.serif.com/" style="fill-rule:evenodd;clip-rule:evenodd;stroke-linecap:round;stroke-linejoin:round;stroke-miterlimit:1.5;">
    <g id="Banner" transform="matrix(1,0,0,1,38.7073,-72.0607)">
        <path d="M1074.05,1083.46C1040.17,1073.94 924.442,1073.86 750.089,1086.67C540.76,1102.04 259.278,1067.41 258.464,1069.6C251.38,1088.69 449.985,1265.83 608.588,1370.11C757.873,1468.27 924.35,1610.93 928.889,1623.95C943.484,1665.78 220.486,2209.5 262.803,2295.76C266.656,2303.61 646.78,2263.46 824.536,2250.89C1128.23,2229.41 1434.02,2212.58 1738.58,2214.91C1746.78,2214.97 1811.25,2222.18 1813.19,2208.27C1813.3,2207.45 1813.2,2206.61 1812.99,2205.81C1807.17,2184.63 1604.57,1981.65 1596.88,1982.09C1547.47,1984.9 1123.65,2007.05 1127.39,1976.99" style="fill:rgb(104,195,239);stroke:black;stroke-width:41.67px;"/>
        <path d="M5986.06,984.912C6042.52,989.457 6359.51,1013.25 6428.12,1015.93C6581.62,1021.94 6836.74,1005.08 6836.74,1005.08C6836.74,1005.08 6522.21,1323.53 6500.88,1352.81C6453.09,1418.42 6206.12,1641.47 6206.37,1642C6208.93,1647.45 6432.75,1870.17 6540.12,1951.95C6663.35,2045.81 6839.75,2224.36 6838.13,2224.36C6329.08,2224.36 5216.49,2239.67 5227.84,2226.04C5240.54,2210.81 5442.09,1960 5429.87,1975.12C5424.16,1982.18 5634.71,1983.84 5788.3,1989.13C5878.11,1992.22 5952.41,1981.28 5953.5,1980.62" style="fill:rgb(104,195,239);stroke:black;stroke-width:41.67px;"/>
        <path d="M1129.53,1984.38C1129.53,1984.38 1109.34,1583.11 1107.08,1503.79C1097.34,1161.52 1058.41,806.439 1071.31,464.538C1071.62,456.224 1067.88,422.832 1077.92,417.254C1111.62,398.533 1392.37,414.118 1429.54,415.299C1688.97,423.539 1942.96,401.023 2174.61,399.497C2519.74,397.224 2763.79,369.153 3108.96,372.84C3869.24,380.962 4311.13,400.956 5126.2,383.725C5321.05,379.605 5472.28,399.347 5606.63,399.147C5614.52,399.135 6000.31,396.317 5998.52,418.422C5994.37,469.652 5992.37,630.996 5990.73,694.774C5987.44,823.005 5981.21,1028.02 5984.18,1198.62C5987.15,1369.74 5978.44,1611.52 5975.21,1706.69C5974.03,1741.41 5962.83,1945.04 5957.06,1976.14C5952.79,1999.15 5521.82,1977.95 5515.62,1977.87C5256.97,1974.54 4816,1944.25 4270.9,1938.97C3912.67,1935.5 3480.5,1956.81 3127.47,1954.48C2809.14,1952.39 2479.64,1920.42 2161.63,1933.46C1991.27,1940.44 1297.52,2027.21 1129.53,1984.38Z" style="fill:rgb(167,227,255);stroke:black;stroke-width:41.67px;"/>
        <g transform="matrix(28.45,0,0,25.1506,-44310.6,-95140.6)">
            <text x="1606.16px" y="3845.49px" style="font-family:'Noteworthy-Light', 'Noteworthy';font-weight:300;font-size:36.447px;">Co<tspan x="1645.3px 1669.21px 1692.04px 1709.53px 1726.25px 1742.25px " y="3845.49px 3845.49px 3845.49px 3845.49px 3845.49px 3845.49px ">mmands</tspan></text>
        </g>
    </g>
    <g id="Banner1" serif:id="Banner" transform="matrix(1,0,0,1,82.3742,5953.9)">
        <path d="M1074.05,1083.46C1040.17,1073.94 924.442,1073.86 750.089,1086.67C540.76,1102.04 259.278,1067.41 258.464,1069.6C251.38,1088.69 449.985,1265.83 608.588,1370.11C757.873,1468.27 924.35,1610.93 928.889,1623.95C943.484,1665.78 220.486,2209.5 262.803,2295.76C266.656,2303.61 646.78,2263.46 824.536,2250.89C1128.23,2229.41 1434.02,2212.58 1738.58,2214.91C1746.78,2214.97 1811.25,2222.18 1813.19,2208.27C1813.3,2207.45 1813.2,2206.61 1812.99,2205.81C1807.17,2184.63 1604.57,1981.65 1596.88,1982.09C1547.47,1984.9 1123.65,2007.05 1127.39,1976.99" style="fill:rgb(255,252,129);stroke:black;stroke-width:41.67px;"/>
        <path d="M5986.06,984.912C6042.52,989.457 6359.51,1013.25 6428.12,1015.93C6581.62,1021.94 6836.74,1005.08 6836.74,1005.08C6836.74,1005.08 6522.21,1323.53 6500.88,1352.81C6453.09,1418.42 6206.12,1641.47 6206.37,1642C6208.93,1647.45 6432.75,1870.17 6540.12,1951.95C6663.35,2045.81 6839.75,2224.36 6838.13,2224.36C6329.08,2224.36 5216.49,2239.67 5227.84,2226.04C5240.54,2210.81 5442.09,1960 5429.87,1975.12C5424.16,1982.18 5634.71,1983.84 5788.3,1989.13C5878.11,1992.22 5952.41,1981.28 5953.5,1980.62" style="fill:rgb(255,252,129);stroke:black;stroke-width:41.67px;"/>
        <path d="M1129.53,1984.38C1129.53,1984.38 1109.34,1583.11 1107.08,1503.79C1097.34,1161.52 1058.41,806.439 1071.31,464.538C1071.62,456.224 1067.88,422.832 1077.92,417.254C1111.62,398.533 1392.37,414.118 1429.54,415.299C1688.97,423.539 1942.96,401.023 2174.61,399.497C2519.74,397.224 2763.79,369.153 3108.96,372.84C3869.24,380.962 4311.13,400.956 5126.2,383.725C5321.05,379.605 5472.28,399.347 5606.63,399.147C5614.52,399.135 6000.31,396.317 5998.52,418.422C5994.37,469.652 5992.37,630.996 5990.73,694.774C5987.44,823.005 5981.21,1028.02 5984.18,1198.62C5987.15,1369.74 5978.44,1611.52 5975.21,1706.69C5974.03,1741.41 5962.83,1945.04 5957.06,1976.14C5952.79,1999.15 5521.82,1977.95 5515.62,1977.87C5256.97,1974.54 4816,1944.25 4270.9,1938.97C3912.67,1935.5 3480.5,1956.81 3127.47,1954.48C2809.14,1952.39 2479.64,1920.42 2161.63,1933.46C1991.27,1940.44 1297.52,2027.21 1129.53,1984.38Z" style="fill:rgb(255,253,221);stroke:black;stroke-width:41.67px;"/>
        <g transform="matrix(28.45,0,0,25.1506,-43474.5,-95174.9)">
            <text x="1606.16px" y="3845.49px" style="font-family:'Noteworthy-Light', 'Noteworthy';font-weight:300;font-size:36.447px;">Ac<tspan x="1643.29px 1654.23px 1670.94px 1680.79px " y="3845.49px 3845.49px 3845.49px 3845.49px ">tors</tspan></text>
        </g>
    </g>
    <g transform="matrix(0.918604,0,0,0.889407,-586.034,2869.19)">
        <text x="2526.36px" y="2890.25px" style="font-family:'Noteworthy-Bold', 'Noteworthy';font-weight:700;font-size:416.667px;">u<tspan x="2713.34px 2910.21px 3097.19px 3327.92px 3415.94px 3491.46px 3704.48px 3791.46px 3937.82px 4132.09px " y="2890.25px 2890.25px 2890.25px 2890.25px 2890.25px 2890.25px 2890.25px 2890.25px 2890.25px 2890.25px ">sually the</tspan> r<tspan x="4566.98px 4756.57px 4947.19px 5145.11px 5289.38px 5486.25px 5684.17px 5771.15px 5974.8px 6141.46px 6228.44px 6374.8px 6569.07px " y="2890.25px 2890.25px 2890.25px 2890.25px 2890.25px 2890.25px 2890.25px 2890.25px 2890.25px 2890.25px 2890.25px 2890.25px 2890.25px ">everse of the</tspan></text>
    </g>
    <g transform="matrix(0.918604,0,0,0.889407,-630.054,6097.63)">
        <text x="2526.36px" y="2890.25px" style="font-family:'Noteworthy-Bold', 'Noteworthy';font-weight:700;font-size:416.667px;">t<tspan x="2672.71px 2866.98px " y="2890.25px 2890.25px ">he</tspan> “u<tspan x="3504.48px 3701.36px 3899.28px " y="2890.25px 2890.25px 2890.25px ">ser</tspan>” o<tspan x="4511.78px 4678.44px 4765.42px 4911.78px 5106.05px " y="2890.25px 2890.25px 2890.25px 2890.25px 2890.25px ">f the</tspan> s<tspan x="5583.65px 5784.17px 5989.38px 6131.57px 6329.48px " y="2890.25px 2890.25px 2890.25px 2890.25px 2890.25px ">ystem</tspan></text>
    </g>
    <g id="keep-it-fuzzy" serif:id="keep it fuzzy">
        <g transform="matrix(0.918604,0,0,0.889407,323.816,6570.09)">
            <text x="2526.36px" y="2890.25px" style="font-family:'Noteworthy-Bold', 'Noteworthy';font-weight:700;font-size:416.667px;">k<tspan x="2714.9px 2912.82px " y="2890.25px 2890.25px ">ee</tspan>p i<tspan x="3473.23px 3627.92px 3714.9px 3864.9px 4056.05px 4256.05px 4447.71px " y="2890.25px 2890.25px 2890.25px 2890.25px 2890.25px 2890.25px 2890.25px ">t fuzzy</tspan></text>
        </g>
        <g transform="matrix(1.03283,0,0,1,183.254,-256.37)">
            <text x="1975.22px" y="9789.08px" style="font-family:'Noteworthy-Bold', 'Noteworthy';font-weight:700;font-size:833.333px;fill:rgb(225,29,0);stroke:rgb(255,0,1);stroke-width:0.98px;stroke-linecap:butt;stroke-miterlimit:2;">*</text>
        </g>
        <g transform="matrix(-0.40956,-0.948153,0.918017,-0.396542,-2794.28,14699.8)">
            <text x="1975.22px" y="9789.08px" style="font-family:'Noteworthy-Bold', 'Noteworthy';font-weight:700;font-size:833.333px;fill:rgb(225,29,0);stroke:rgb(255,0,1);stroke-width:0.98px;stroke-linecap:butt;stroke-miterlimit:2;">*</text>
        </g>
    </g>
    <g id="the-actor-makes-the-decision" serif:id="the actor makes the decision">
        <g transform="matrix(0.918604,0,0,0.889407,-862.501,7466.85)">
            <text x="2526.36px" y="2890.25px" style="font-family:'Noteworthy-Bold', 'Noteworthy';font-weight:700;font-size:416.667px;">t<tspan x="2672.71px 2866.98px " y="2890.25px 2890.25px ">he</tspan></text>
        </g>
        <g transform="matrix(0.918604,0,0,0.889407,-300.438,7959.59)">
            <text x="2526.36px" y="2890.25px" style="font-family:'Noteworthy-Bold', 'Noteworthy';font-weight:700;font-size:416.667px;">a<tspan x="2754.48px 2933.65px 3071.67px 3287.82px " y="2890.25px 2890.25px 2890.25px 2890.25px ">ctor</tspan></text>
        </g>
        <g transform="matrix(0.918604,0,0,0.889407,2271.39,8035.9)">
            <text x="2526.36px" y="2890.25px" style="font-family:'Noteworthy-Bold', 'Noteworthy';font-weight:700;font-size:416.667px;">deci<tspan x="3211.78px 3421.15px 3493.55px 3709.69px " y="2890.25px 2890.25px 2890.25px 2890.25px ">sion</tspan></text>
        </g>
        <g transform="matrix(0.918604,0,0,0.889407,617.837,7484.09)">
            <text x="2526.36px" y="2890.25px" style="font-family:'Noteworthy-Bold', 'Noteworthy';font-weight:700;font-size:416.667px;">m<tspan x="2820.63px 3047.71px 3236.25px 3425.84px 3631.05px 3718.03px 3864.38px 4058.65px " y="2890.25px 2890.25px 2890.25px 2890.25px 2890.25px 2890.25px 2890.25px 2890.25px ">akes the</tspan></text>
        </g>
        <g id="Exclamation-Point" serif:id="Exclamation Point" transform="matrix(0.561169,0,0,0.561169,4408.7,7990.34)">
            <g transform="matrix(1,0,0,1,32.0086,13.2064)">
                <path d="M596.341,2509.6C596.341,2509.6 595.29,2500.93 596.456,2519.61C615.445,2823.92 630.627,3132.47 655.329,3436.38C675.32,3682.33 702.337,4022.68 711.847,4026.46C731.534,4034.27 1256.76,4027.17 1275.54,4026.26C1444.97,4018.07 2152.22,4020.27 2162.99,4001.06C2169.9,3988.74 2139.54,3650.06 2138.34,3639.5C2129.56,3562.62 2088.4,3149.77 2081.88,3054.43C2079.72,3022.78 2019.86,2498.22 2013.27,2498.27C1976.78,2498.57 1668.8,2498.44 1640.16,2497.21C1269.11,2481.31 959.731,2509.6 596.341,2509.6Z" style="fill:rgb(0,173,255);stroke:black;stroke-width:74.25px;"/>
            </g>
            <g transform="matrix(1,0,0,1,31.212,-7.62024)">
                <path d="M1232.58,3521.66C1232.42,3522.03 1232.25,3520.94 1232.08,3520.58C1228.4,3512.97 1213.84,3468.06 1208.92,3453.87C1192.38,3406.16 1176.24,3358.32 1159.57,3310.66C1120.91,3200.1 1080.37,3090.23 1042.48,2979.39C1035.19,2958.09 1012.79,2913.66 1012.79,2892.23C1012.79,2891.53 1222.74,2876.58 1281.36,2871.21C1317.96,2867.85 1641.54,2837.18 1659.45,2846.13C1662.01,2847.41 1617.05,3013.16 1604.75,3059.99C1576.15,3168.91 1480.88,3485.96 1459.85,3519.62C1459.41,3520.31 1458.58,3520.39 1457.83,3520.39C1390.14,3520.39 1240.78,3534.33 1238.96,3527.04" style="stroke:black;stroke-width:29.81px;"/>
            </g>
            <g transform="matrix(0.899674,0,0,0.851577,169.921,526.632)">
                <path d="M1241.46,3699.12C1241.46,3699.12 1242.61,3737.98 1243.19,3743.35C1246.67,3775.12 1247.72,3810.12 1251.44,3827.38C1253.12,3835.13 1491.62,3831.77 1498.29,3825.21C1502.43,3821.12 1496.62,3740.08 1494.71,3726.33C1492.38,3709.51 1490.01,3644.59 1476.09,3639.22C1465.21,3635.02 1444.14,3635.45 1409.38,3635.94C1370.25,3636.48 1330.29,3637.79 1296.67,3640.03C1285.1,3640.81 1241,3639.91 1240.43,3644.58C1239.03,3656.1 1236.3,3679.75 1241.46,3699.12Z"/>
                <path d="M1229.63,3700.98C1229.85,3708.22 1230.86,3739.93 1231.39,3744.79C1234.92,3777.07 1236.07,3812.63 1239.86,3830.17C1240.42,3832.78 1241.79,3835.99 1245.48,3838.45C1246.79,3839.32 1249.44,3840.56 1253.52,3841.3C1258.12,3842.13 1266.14,3842.82 1276.59,3843.3C1326.64,3845.64 1435.7,3844.04 1480.07,3840.6C1490.08,3839.83 1497.16,3838.82 1500.22,3837.9C1503.45,3836.92 1505.37,3835.4 1506.39,3834.39C1507.57,3833.23 1508.98,3831.41 1509.93,3828.56C1510.69,3826.31 1511.41,3821.54 1511.57,3815C1512.15,3791.16 1508.04,3735.78 1506.47,3724.51C1504.8,3712.48 1503.02,3676.4 1497.28,3653.95C1495.44,3646.76 1493.13,3640.76 1490.54,3636.62C1487.53,3631.8 1483.87,3628.85 1480.16,3627.42C1468.59,3622.96 1446.21,3622.87 1409.22,3623.38C1369.89,3623.93 1329.71,3625.25 1295.92,3627.5C1286.43,3628.14 1255.61,3627.78 1243.36,3630.01C1237.46,3631.09 1233.77,3633.58 1232.21,3635.26C1229.99,3637.66 1228.96,3640.33 1228.64,3642.98C1227.15,3655.26 1224.51,3680.14 1229.63,3700.98L1229.63,3700.98ZM1470.64,3650.53C1471.32,3652.05 1473.39,3656.78 1474.33,3660.49C1479.83,3682.01 1481.36,3716.62 1482.96,3728.15C1484.46,3738.96 1488.57,3792.92 1487.85,3814.56C1485.11,3814.91 1481.71,3815.3 1478.33,3815.56C1434.57,3818.95 1327,3820.52 1277.64,3818.22C1271.63,3817.94 1265.74,3817.38 1261.7,3816.94C1259.07,3798.51 1257.97,3769.01 1255,3741.9C1254.42,3736.66 1253.34,3698.72 1253.34,3698.72C1253.31,3697.7 1253.16,3696.69 1252.9,3695.71C1249.22,3681.9 1250.12,3665.69 1251.29,3654.29C1252.75,3654.11 1254.36,3653.95 1255.86,3653.84C1269.94,3652.87 1290.13,3653.05 1297.42,3652.57C1330.86,3650.33 1370.61,3649.03 1409.53,3648.49C1440.68,3648.06 1460.11,3647.16 1470.64,3650.53Z"/>
            </g>
        </g>
        <g id="Actor" transform="matrix(1,0,0,1,-3733.49,6312.28)">
            <g transform="matrix(0.349022,0.0204952,-0.0270046,0.459873,5812.64,2037.76)">
                <g id="Actor1" serif:id="Actor">
                    <path d="M651.314,2500.39C651.314,2500.39 668.714,2853.12 665.532,2971.42C661.814,3109.67 663.326,3280.94 688.028,3584.85C708.019,3830.8 702.337,4022.68 711.847,4026.46C731.534,4034.27 1256.76,4027.17 1275.54,4026.26C1444.97,4018.07 2079.08,4002.12 2089.86,3982.91C2096.76,3970.59 2081.92,3650.22 2086.81,3551.64C2094.26,3401.49 2072.93,3184.57 2072.36,2957.18C2072.28,2925.46 2019.86,2498.22 2013.27,2498.27C1976.78,2498.57 1668.8,2498.44 1640.16,2497.21C1269.11,2481.31 1014.7,2500.39 651.314,2500.39Z" style="fill:rgb(255,245,90);stroke:black;stroke-width:55.92px;"/>
                </g>
            </g>
            <g transform="matrix(1.11526,0,0,1,-691.183,2.29941)">
                <path d="M6052.98,3902.86C6052.14,3904.27 6049.87,3888.91 6049.76,3887.5C6049,3877.18 6048.45,3866.84 6048.2,3856.49C6047.42,3824.46 6049.93,3792.49 6051.53,3760.51C6056.57,3659.69 6062.02,3507.72 6193.37,3495.21C6246.49,3490.15 6275.28,3544.22 6286.5,3587.95C6308.27,3672.76 6305.98,3728.08 6308.78,3812.79C6309.84,3845.1 6315.59,3879.19 6311.38,3911.45" style="fill:none;stroke:black;stroke-width:11.99px;"/>
            </g>
            <path d="M6072.42,3665.22C6078.35,3654.36 6102.98,3638.45 6112.86,3627.05C6137.95,3598.07 6164.94,3572.49 6192.4,3545.89C6206,3532.7 6219.13,3516.4 6235.07,3505.77" style="fill:none;stroke:black;stroke-width:12.7px;"/>
            <g transform="matrix(1,0,0,1,3.26044,4.77065)">
                <path d="M6064.76,3756.98C6068.66,3748.01 6127.3,3701.2 6137.98,3691.47C6185.42,3648.21 6234.01,3600.55 6289.86,3545.6" style="fill:none;stroke:black;stroke-width:12.7px;"/>
            </g>
            <g transform="matrix(1,0,0,1,0.199296,10.3719)">
                <path d="M6064.04,3845.33C6086.13,3828.65 6117.16,3806.26 6140.65,3786.14C6157.94,3771.34 6173.34,3754.44 6190.58,3739.58C6237.65,3699.02 6284.13,3658.6 6326.21,3612.7" style="fill:none;stroke:black;stroke-width:12.7px;"/>
            </g>
            <g transform="matrix(0.957872,0,0,0.958049,264.03,170.105)">
                <path d="M6113.61,3908.56C6118.51,3905.59 6124.65,3896.54 6129.22,3892.31C6149.6,3873.38 6169.7,3854.16 6189.89,3835.02C6239.63,3787.85 6293.13,3744.16 6339.94,3694.24" style="fill:none;stroke:black;stroke-width:13.26px;"/>
            </g>
            <g transform="matrix(0.81947,0,0,0.860452,1141.63,545.314)">
                <path d="M6217.26,3911.25C6217.12,3911.38 6217,3910.52 6217,3910.45C6217.07,3905.22 6226.07,3898.02 6229.14,3894.67C6237.8,3885.24 6247.15,3876.47 6256.22,3867.45C6271.94,3851.81 6286.77,3835.19 6303.31,3820.39C6316.27,3808.79 6331.23,3798.16 6343.14,3785.5" style="fill:none;stroke:black;stroke-width:15.12px;"/>
            </g>
            <path d="M6195.58,3355.66C6195.1,3355.85 6187.11,3346.86 6188.87,3338.7C6190.87,3329.45 6198.36,3324.94 6198.85,3324.63C6204.68,3320.96 6212.23,3320.69 6218.87,3321.52C6236,3323.66 6251.04,3332.99 6262.15,3345.95C6286.91,3374.83 6295.28,3435.82 6254.48,3455.37C6143.66,3508.5 6095.6,3365.42 6189.49,3329.31" style="fill:none;stroke:black;stroke-width:12.7px;"/>
        </g>
    </g>
    <g id="it-represents-the-decision" serif:id="it represents the decision" transform="matrix(1,0,0,1,180.311,30.9169)">
        <g transform="matrix(0.894951,0,0,0.894951,-1027.06,2124.45)">
            <text x="2526.36px" y="2890.25px" style="font-family:'Noteworthy-Bold', 'Noteworthy';font-weight:700;font-size:416.667px;">i<tspan x="2589.9px 2744.59px 2831.57px 2981.57px 3179.48px 3391.46px 3541.46px 3731.05px 3927.92px 4125.84px 4326.36px 4460.21px 4665.42px 4752.4px 4898.75px 5093.03px " y="2890.25px 2890.25px 2890.25px 2890.25px 2890.25px 2890.25px 2890.25px 2890.25px 2890.25px 2890.25px 2890.25px 2890.25px 2890.25px 2890.25px 2890.25px 2890.25px ">t represents the</tspan> deci<tspan x="6063.34px 6272.71px 6345.11px 6561.25px " y="2890.25px 2890.25px 2890.25px 2890.25px ">sion</tspan></text>
        </g>
        <path d="M3803.99,4777.19C3820.88,4776.05 3841.35,4777.4 3900.87,4774.55C4008.43,4769.41 4116.15,4771.88 4223.84,4772.43C4398.45,4773.34 4573.41,4773.3 4747.93,4766.87C4831.53,4763.79 4931.81,4759.25 5015.38,4763.1" style="fill:none;stroke:rgb(255,8,0);stroke-width:12.7px;"/>
        <g transform="matrix(1,0,0,1,1.26288,-7.18646)">
            <path d="M3805.35,4828.94C3796.9,4829.19 3826.92,4828.25 3835.38,4828.36C3857.25,4828.65 3879.09,4829.28 3900.97,4829.09C3968.17,4828.51 4035.33,4825.1 4102.49,4822.83C4241.51,4818.12 4380.48,4827.65 4519.43,4820.38C4679.07,4812.02 4852.49,4819.21 5013.24,4810.26" style="fill:none;stroke:rgb(255,8,0);stroke-width:12.7px;"/>
        </g>
    </g>
    <g id="by-an-actor" serif:id="by an actor">
        <g transform="matrix(1,0,0,1,1114.16,787.262)">
            <text x="2613.34px" y="2890.25px" style="font-family:'Noteworthy-Bold', 'Noteworthy';font-weight:700;font-size:416.667px;">b<tspan x="2818.55px 3031.57px 3118.55px 3346.67px 3568.55px 3655.53px 3883.65px 4062.82px 4200.84px 4416.98px " y="2890.25px 2890.25px 2890.25px 2890.25px 2890.25px 2890.25px 2890.25px 2890.25px 2890.25px 2890.25px ">y an actor</tspan></text>
        </g>
        <path d="M4787.22,3737.99C4799.56,3744.94 4998.91,3727.52 5020.87,3726.44C5157.08,3719.69 5292.84,3717.93 5429.17,3722.48C5496.37,3724.73 5569.33,3721.81 5643.25,3725.09" style="fill:none;stroke:rgb(255,8,0);stroke-width:16.73px;"/>
        <g transform="matrix(1,0,0,1,-0.9434,-16.4039)">
            <path d="M4800.48,3805.98C4799.3,3805.05 4807.36,3803.81 4807.42,3803.81C4814.65,3802.99 4821.92,3802.51 4829.18,3802.03C4849.8,3800.69 4870.45,3799.68 4891.09,3798.61C4954,3795.33 5016.93,3792.55 5079.82,3788.9C5226.32,3780.4 5370.55,3783.2 5516.8,3784.05C5558.08,3784.28 5596.87,3782.48 5638.15,3784.2" style="fill:none;stroke:rgb(255,8,0);stroke-width:16.73px;"/>
        </g>
    </g>
    <g id="an-action-started" serif:id="an action started">
        <g transform="matrix(1,0,0,1,-92.4209,278.157)">
            <text x="2526.36px" y="2890.25px" style="font-family:'Noteworthy-Bold', 'Noteworthy';font-weight:700;font-size:416.667px;">a<tspan x="2754.48px 2976.36px 3063.34px 3291.46px 3470.63px 3625.32px 3697.71px 3913.86px " y="2890.25px 2890.25px 2890.25px 2890.25px 2890.25px 2890.25px 2890.25px 2890.25px ">n action</tspan> st<tspan x="4554.48px 4785.21px 4931.57px 5073.75px 5271.67px " y="2890.25px 2890.25px 2890.25px 2890.25px 2890.25px ">arted</tspan></text>
        </g>
        <path d="M2990.48,3219.73C2990.55,3219.83 2994.39,3218.98 2994.75,3218.93C3014.07,3216.66 3033.59,3215.79 3053.01,3214.98C3116.91,3212.31 3181.07,3213.58 3245,3214.11C3397.18,3215.38 3549.38,3215.86 3701.57,3214.98C3800.45,3214.41 3902.85,3207.57 4001.47,3217.43" style="fill:none;stroke:rgb(255,8,0);stroke-width:16.73px;"/>
        <path d="M2999.26,3265.62C3154.53,3249.52 3321.49,3265.69 3479.76,3265.3C3582.77,3265.04 3686.39,3263.94 3789.25,3258.35C3855.29,3254.75 3939.33,3259.09 4005.53,3259.09" style="fill:none;stroke:rgb(255,18,0);stroke-width:16.73px;"/>
    </g>
    <g id="Exclamation-Point1" serif:id="Exclamation Point">
        <g transform="matrix(1,0,0,1,32.0086,13.2064)">
            <path d="M596.341,2509.6C596.341,2509.6 595.29,2500.93 596.456,2519.61C615.445,2823.92 630.627,3132.47 655.329,3436.38C675.32,3682.33 702.337,4022.68 711.847,4026.46C731.534,4034.27 1256.76,4027.17 1275.54,4026.26C1444.97,4018.07 2152.22,4020.27 2162.99,4001.06C2169.9,3988.74 2139.54,3650.06 2138.34,3639.5C2129.56,3562.62 2088.4,3149.77 2081.88,3054.43C2079.72,3022.78 2019.86,2498.22 2013.27,2498.27C1976.78,2498.57 1668.8,2498.44 1640.16,2497.21C1269.11,2481.31 959.731,2509.6 596.341,2509.6Z" style="fill:rgb(0,173,255);stroke:black;stroke-width:41.67px;"/>
        </g>
        <g transform="matrix(1,0,0,1,31.212,-7.62024)">
            <path d="M1232.58,3521.66C1232.42,3522.03 1232.25,3520.94 1232.08,3520.58C1228.4,3512.97 1213.84,3468.06 1208.92,3453.87C1192.38,3406.16 1176.24,3358.32 1159.57,3310.66C1120.91,3200.1 1080.37,3090.23 1042.48,2979.39C1035.19,2958.09 1012.79,2913.66 1012.79,2892.23C1012.79,2891.53 1222.74,2876.58 1281.36,2871.21C1317.96,2867.85 1641.54,2837.18 1659.45,2846.13C1662.01,2847.41 1617.05,3013.16 1604.75,3059.99C1576.15,3168.91 1480.88,3485.96 1459.85,3519.62C1459.41,3520.31 1458.58,3520.39 1457.83,3520.39C1390.14,3520.39 1240.78,3534.33 1238.96,3527.04" style="stroke:black;stroke-width:16.73px;"/>
        </g>
        <g transform="matrix(0.899674,0,0,0.851577,169.921,526.632)">
            <path d="M1241.46,3699.12C1241.46,3699.12 1242.61,3737.98 1243.19,3743.35C1246.67,3775.12 1247.72,3810.12 1251.44,3827.38C1253.12,3835.13 1491.62,3831.77 1498.29,3825.21C1502.43,3821.12 1496.62,3740.08 1494.71,3726.33C1492.38,3709.51 1490.01,3644.59 1476.09,3639.22C1465.21,3635.02 1444.14,3635.45 1409.38,3635.94C1370.25,3636.48 1330.29,3637.79 1296.67,3640.03C1285.1,3640.81 1241,3639.91 1240.43,3644.58C1239.03,3656.1 1236.3,3679.75 1241.46,3699.12Z"/>
            <path d="M1234.82,3700.18C1234.99,3705.91 1236.03,3739.19 1236.57,3744.16C1240.08,3776.21 1241.18,3811.53 1244.94,3828.95C1245.29,3830.56 1246.53,3833.52 1250.67,3834.95C1254.09,3836.13 1263.48,3837.18 1276.82,3837.8C1326.72,3840.13 1435.45,3838.54 1479.69,3835.11C1489.17,3834.37 1495.89,3833.48 1498.78,3832.6C1500.89,3831.96 1502.17,3831.02 1502.83,3830.36C1503.57,3829.64 1504.42,3828.49 1505.02,3826.72C1505.68,3824.75 1506.21,3820.57 1506.35,3814.86C1506.94,3791.26 1502.86,3736.46 1501.31,3725.31C1499.66,3713.39 1497.93,3677.63 1492.25,3655.38C1490.58,3648.87 1488.53,3643.41 1486.19,3639.65C1483.9,3635.99 1481.19,3633.68 1478.38,3632.6C1467.11,3628.25 1445.3,3628.39 1409.29,3628.89C1370.05,3629.44 1329.96,3630.75 1296.25,3633C1286.86,3633.63 1256.37,3633.23 1244.25,3635.44C1240.86,3636.06 1238.45,3637.08 1237.2,3638C1234.92,3639.66 1234.05,3641.76 1233.82,3643.68C1232.37,3655.63 1229.69,3679.98 1234.82,3700.18L1234.82,3700.18ZM1492.72,3819.42C1489.68,3819.88 1484.17,3820.63 1478.71,3821.05C1434.82,3824.46 1326.92,3826.03 1277.41,3823.72C1269.12,3823.34 1261.06,3822.39 1257.19,3821.88C1254.1,3803.76 1253.02,3771.77 1249.82,3742.54C1249.24,3737.24 1248.12,3698.9 1248.12,3698.9C1248.11,3698.32 1248.03,3697.76 1247.88,3697.2C1243.52,3680.86 1245.21,3661.29 1246.57,3649.47C1248.81,3649.1 1252.36,3648.56 1255.52,3648.35C1269.61,3647.38 1289.8,3647.55 1297.09,3647.07C1330.61,3644.83 1370.45,3643.53 1409.46,3642.98C1442.99,3642.51 1463.31,3641.79 1473.8,3645.83C1474.67,3646.17 1475.09,3647.36 1475.75,3648.65C1477.15,3651.37 1478.32,3654.95 1479.37,3659.06C1484.92,3680.78 1486.5,3715.72 1488.12,3727.35C1489.62,3738.2 1493.59,3791.53 1493.02,3814.49C1492.98,3816.22 1492.85,3818.02 1492.72,3819.42Z"/>
        </g>
    </g>
    <g id="Cancel-Reservation" serif:id="Cancel Reservation" transform="matrix(0.79879,-0.167491,0.161306,0.829418,-753.755,2985.48)">
        <g transform="matrix(-0.99964,0.0268126,-0.0268126,-0.99964,2878.88,6497.48)">
            <path d="M596.341,2509.6C596.341,2509.6 595.29,2500.93 596.456,2519.61C615.445,2823.92 630.627,3132.47 655.329,3436.38C675.32,3682.33 702.337,4022.68 711.847,4026.46C731.534,4034.27 1256.76,4027.17 1275.54,4026.26C1444.97,4018.07 2152.22,4020.27 2162.99,4001.06C2169.9,3988.74 2139.54,3650.06 2138.34,3639.5C2129.56,3562.62 2088.4,3149.77 2081.88,3054.43C2079.72,3022.78 2019.86,2498.22 2013.27,2498.27C1976.78,2498.57 1668.8,2498.44 1640.16,2497.21C1269.11,2481.31 959.731,2509.6 596.341,2509.6Z" style="fill:rgb(0,173,255);stroke:black;stroke-width:50.58px;"/>
        </g>
        <g transform="matrix(0.890689,-0.0374405,0.0374405,0.890689,-224.913,-1709.96)">
            <g transform="matrix(0.995625,0,0,1,5.2833,0)">
                <text x="1207.61px" y="5578.26px" style="font-family:'Noteworthy-Bold', 'Noteworthy';font-weight:700;font-size:312.5px;">c<tspan x="1361.15px 1532.3px 1698.75px " y="5578.26px 5578.26px 5578.26px ">anc</tspan>el</text>
            </g>
            <g transform="matrix(0.995625,0,0,1,3.96568,0)">
                <text x="906.441px" y="5949.71px" style="font-family:'Noteworthy-Bold', 'Noteworthy';font-weight:700;font-size:312.5px;">r<tspan x="1018.93px 1161.12px 1308.79px 1457.27px 1582.31px 1716.64px 1871.71px 1987.76px 2042.06px 2204.2px " y="5949.71px 5949.71px 5949.71px 5949.71px 5949.71px 5949.71px 5949.71px 5949.71px 5949.71px 5949.71px ">eservation</tspan></text>
            </g>
        </g>
    </g>
    <g id="Event" transform="matrix(0.89717,0.191007,-0.197277,0.868655,6560.48,364.961)">
        <g transform="matrix(0.155102,0.909384,-0.850329,0.14503,3520.64,3791.25)">
            <path d="M651.314,2500.39C651.314,2500.39 668.714,2853.12 665.532,2971.42C661.814,3109.67 663.326,3280.94 688.028,3584.85C708.019,3830.8 702.337,4022.68 711.847,4026.46C731.534,4034.27 1256.76,4027.17 1275.54,4026.26C1444.97,4018.07 2079.08,4002.12 2089.86,3982.91C2096.76,3970.59 2081.92,3650.22 2086.81,3551.64C2094.26,3401.49 2072.93,3184.57 2072.36,2957.18C2072.28,2925.46 2019.86,2498.22 2013.27,2498.27C1976.78,2498.57 1668.8,2498.44 1640.16,2497.21C1269.11,2481.31 1014.7,2500.39 651.314,2500.39Z" style="fill:rgb(255,180,0);stroke:black;stroke-width:51.58px;"/>
        </g>
        <g transform="matrix(0.837002,-0.171539,0.172293,0.84068,-4689.87,2785.89)">
            <text x="5305.53px" y="4575.68px" style="font-family:'Noteworthy-Bold', 'Noteworthy';font-weight:700;font-size:485.538px;">e<tspan x="5526.47px 5748.6px 5979.29px 6212.91px " y="4575.68px 4575.68px 4575.68px 4575.68px ">vent</tspan></text>
        </g>
    </g>
    <g id="Actor2" serif:id="Actor">
        <g transform="matrix(0.349022,0.0204952,-0.0270046,0.459873,5812.64,2037.76)">
            <g id="Actor3" serif:id="Actor">
                <path d="M651.314,2500.39C651.314,2500.39 668.714,2853.12 665.532,2971.42C661.814,3109.67 663.326,3280.94 688.028,3584.85C708.019,3830.8 702.337,4022.68 711.847,4026.46C731.534,4034.27 1256.76,4027.17 1275.54,4026.26C1444.97,4018.07 2079.08,4002.12 2089.86,3982.91C2096.76,3970.59 2081.92,3650.22 2086.81,3551.64C2094.26,3401.49 2072.93,3184.57 2072.36,2957.18C2072.28,2925.46 2019.86,2498.22 2013.27,2498.27C1976.78,2498.57 1668.8,2498.44 1640.16,2497.21C1269.11,2481.31 1014.7,2500.39 651.314,2500.39Z" style="fill:rgb(255,245,90);stroke:black;stroke-width:55.92px;"/>
            </g>
        </g>
        <g transform="matrix(1.11526,0,0,1,-691.183,2.29941)">
            <path d="M6052.98,3902.86C6052.14,3904.27 6049.87,3888.91 6049.76,3887.5C6049,3877.18 6048.45,3866.84 6048.2,3856.49C6047.42,3824.46 6049.93,3792.49 6051.53,3760.51C6056.57,3659.69 6062.02,3507.72 6193.37,3495.21C6246.49,3490.15 6275.28,3544.22 6286.5,3587.95C6308.27,3672.76 6305.98,3728.08 6308.78,3812.79C6309.84,3845.1 6315.59,3879.19 6311.38,3911.45" style="fill:none;stroke:black;stroke-width:11.99px;"/>
        </g>
        <path d="M6072.42,3665.22C6078.35,3654.36 6102.98,3638.45 6112.86,3627.05C6137.95,3598.07 6164.94,3572.49 6192.4,3545.89C6206,3532.7 6219.13,3516.4 6235.07,3505.77" style="fill:none;stroke:black;stroke-width:12.7px;"/>
        <g transform="matrix(1,0,0,1,3.26044,4.77065)">
            <path d="M6064.76,3756.98C6068.66,3748.01 6127.3,3701.2 6137.98,3691.47C6185.42,3648.21 6234.01,3600.55 6289.86,3545.6" style="fill:none;stroke:black;stroke-width:12.7px;"/>
        </g>
        <g transform="matrix(1,0,0,1,0.199296,10.3719)">
            <path d="M6064.04,3845.33C6086.13,3828.65 6117.16,3806.26 6140.65,3786.14C6157.94,3771.34 6173.34,3754.44 6190.58,3739.58C6237.65,3699.02 6284.13,3658.6 6326.21,3612.7" style="fill:none;stroke:black;stroke-width:12.7px;"/>
        </g>
        <g transform="matrix(0.957872,0,0,0.958049,264.03,170.105)">
            <path d="M6113.61,3908.56C6118.51,3905.59 6124.65,3896.54 6129.22,3892.31C6149.6,3873.38 6169.7,3854.16 6189.89,3835.02C6239.63,3787.85 6293.13,3744.16 6339.94,3694.24" style="fill:none;stroke:black;stroke-width:13.26px;"/>
        </g>
        <g transform="matrix(0.81947,0,0,0.860452,1141.63,545.314)">
            <path d="M6217.26,3911.25C6217.12,3911.38 6217,3910.52 6217,3910.45C6217.07,3905.22 6226.07,3898.02 6229.14,3894.67C6237.8,3885.24 6247.15,3876.47 6256.22,3867.45C6271.94,3851.81 6286.77,3835.19 6303.31,3820.39C6316.27,3808.79 6331.23,3798.16 6343.14,3785.5" style="fill:none;stroke:black;stroke-width:15.12px;"/>
        </g>
        <path d="M6195.58,3355.66C6195.1,3355.85 6187.11,3346.86 6188.87,3338.7C6190.87,3329.45 6198.36,3324.94 6198.85,3324.63C6204.68,3320.96 6212.23,3320.69 6218.87,3321.52C6236,3323.66 6251.04,3332.99 6262.15,3345.95C6286.91,3374.83 6295.28,3435.82 6254.48,3455.37C6143.66,3508.5 6095.6,3365.42 6189.49,3329.31" style="fill:none;stroke:black;stroke-width:12.7px;"/>
    </g>
    <g id="Actor4" serif:id="Actor" transform="matrix(0.860993,-0.323266,0.323266,0.860993,-5950.55,5178.94)">
        <g transform="matrix(0.349022,0.0204952,-0.0270046,0.459873,5812.64,2037.76)">
            <g id="Actor5" serif:id="Actor">
                <path d="M651.314,2500.39C651.314,2500.39 668.714,2853.12 665.532,2971.42C661.814,3109.67 663.326,3280.94 688.028,3584.85C708.019,3830.8 702.337,4022.68 711.847,4026.46C731.534,4034.27 1256.76,4027.17 1275.54,4026.26C1444.97,4018.07 2079.08,4002.12 2089.86,3982.91C2096.76,3970.59 2081.92,3650.22 2086.81,3551.64C2094.26,3401.49 2072.93,3184.57 2072.36,2957.18C2072.28,2925.46 2019.86,2498.22 2013.27,2498.27C1976.78,2498.57 1668.8,2498.44 1640.16,2497.21C1269.11,2481.31 1014.7,2500.39 651.314,2500.39Z" style="fill:rgb(255,245,90);stroke:black;stroke-width:60.8px;"/>
            </g>
        </g>
        <g transform="matrix(1.11526,0,0,1,-691.183,2.29941)">
            <path d="M6052.98,3902.86C6052.14,3904.27 6049.87,3888.91 6049.76,3887.5C6049,3877.18 6048.45,3866.84 6048.2,3856.49C6047.42,3824.46 6049.93,3792.49 6051.53,3760.51C6056.57,3659.69 6062.02,3507.72 6193.37,3495.21C6246.49,3490.15 6275.28,3544.22 6286.5,3587.95C6308.27,3672.76 6305.98,3728.08 6308.78,3812.79C6309.84,3845.1 6315.59,3879.19 6311.38,3911.45" style="fill:none;stroke:black;stroke-width:13.04px;"/>
        </g>
        <path d="M6072.42,3665.22C6078.35,3654.36 6102.98,3638.45 6112.86,3627.05C6137.95,3598.07 6164.94,3572.49 6192.4,3545.89C6206,3532.7 6219.13,3516.4 6235.07,3505.77" style="fill:none;stroke:black;stroke-width:13.81px;"/>
        <g transform="matrix(1,0,0,1,3.26044,4.77065)">
            <path d="M6064.76,3756.98C6068.66,3748.01 6127.3,3701.2 6137.98,3691.47C6185.42,3648.21 6234.01,3600.55 6289.86,3545.6" style="fill:none;stroke:black;stroke-width:13.81px;"/>
        </g>
        <g transform="matrix(1,0,0,1,0.199296,10.3719)">
            <path d="M6064.04,3845.33C6086.13,3828.65 6117.16,3806.26 6140.65,3786.14C6157.94,3771.34 6173.34,3754.44 6190.58,3739.58C6237.65,3699.02 6284.13,3658.6 6326.21,3612.7" style="fill:none;stroke:black;stroke-width:13.81px;"/>
        </g>
        <g transform="matrix(0.957872,0,0,0.958049,264.03,170.105)">
            <path d="M6113.61,3908.56C6118.51,3905.59 6124.65,3896.54 6129.22,3892.31C6149.6,3873.38 6169.7,3854.16 6189.89,3835.02C6239.63,3787.85 6293.13,3744.16 6339.94,3694.24" style="fill:none;stroke:black;stroke-width:14.42px;"/>
        </g>
        <g transform="matrix(0.81947,0,0,0.860452,1141.63,545.314)">
            <path d="M6217.26,3911.25C6217.12,3911.38 6217,3910.52 6217,3910.45C6217.07,3905.22 6226.07,3898.02 6229.14,3894.67C6237.8,3885.24 6247.15,3876.47 6256.22,3867.45C6271.94,3851.81 6286.77,3835.19 6303.31,3820.39C6316.27,3808.79 6331.23,3798.16 6343.14,3785.5" style="fill:none;stroke:black;stroke-width:16.44px;"/>
        </g>
        <path d="M6195.58,3355.66C6195.1,3355.85 6187.11,3346.86 6188.87,3338.7C6190.87,3329.45 6198.36,3324.94 6198.85,3324.63C6204.68,3320.96 6212.23,3320.69 6218.87,3321.52C6236,3323.66 6251.04,3332.99 6262.15,3345.95C6286.91,3374.83 6295.28,3435.82 6254.48,3455.37C6143.66,3508.5 6095.6,3365.42 6189.49,3329.31" style="fill:none;stroke:black;stroke-width:13.81px;"/>
        <g transform="matrix(1.08166,0.0446546,-0.0448509,1.08641,6069.68,-3324.91)">
            <text x="312.491px" y="6073.96px" style="font-family:'Noteworthy-Bold', 'Noteworthy';font-weight:700;font-size:62.5px;">gue<tspan x="401.415px 432.204px " y="6073.96px 6073.96px ">st</tspan></text>
        </g>
    </g>
    <g id="Actor6" serif:id="Actor" transform="matrix(0.912557,-0.114234,0.114234,0.912557,-5449.48,6738.93)">
        <g transform="matrix(0.349022,0.0204952,-0.0270046,0.459873,5813.85,2036.03)">
            <g id="Actor7" serif:id="Actor">
                <path d="M651.314,2500.39C651.314,2500.39 668.714,2853.12 665.532,2971.42C661.814,3109.67 663.326,3280.94 688.028,3584.85C708.019,3830.8 702.337,4022.68 711.847,4026.46C731.534,4034.27 1256.76,4027.17 1275.54,4026.26C1444.97,4018.07 2079.08,4002.12 2089.86,3982.91C2096.76,3970.59 2081.92,3650.22 2086.81,3551.64C2094.26,3401.49 2072.93,3184.57 2072.36,2957.18C2072.28,2925.46 2019.86,2498.22 2013.27,2498.27C1976.78,2498.57 1668.8,2498.44 1640.16,2497.21C1269.11,2481.31 1014.7,2500.39 651.314,2500.39Z" style="fill:rgb(255,245,90);stroke:black;stroke-width:60.8px;"/>
            </g>
        </g>
        <g transform="matrix(1.11526,0,0,1,-691.183,2.29941)">
            <path d="M6052.98,3902.86C6052.14,3904.27 6049.87,3888.91 6049.76,3887.5C6049,3877.18 6048.45,3866.84 6048.2,3856.49C6047.42,3824.46 6049.93,3792.49 6051.53,3760.51C6056.57,3659.69 6062.02,3507.72 6193.37,3495.21C6246.49,3490.15 6275.28,3544.22 6286.5,3587.95C6308.27,3672.76 6305.98,3728.08 6308.78,3812.79C6309.84,3845.1 6315.59,3879.19 6311.38,3911.45" style="fill:none;stroke:black;stroke-width:13.04px;"/>
        </g>
        <path d="M6072.42,3665.22C6078.35,3654.36 6102.98,3638.45 6112.86,3627.05C6137.95,3598.07 6164.94,3572.49 6192.4,3545.89C6206,3532.7 6219.13,3516.4 6235.07,3505.77" style="fill:none;stroke:black;stroke-width:13.81px;"/>
        <g transform="matrix(1,0,0,1,3.26044,4.77065)">
            <path d="M6064.76,3756.98C6068.66,3748.01 6127.3,3701.2 6137.98,3691.47C6185.42,3648.21 6234.01,3600.55 6289.86,3545.6" style="fill:none;stroke:black;stroke-width:13.81px;"/>
        </g>
        <g transform="matrix(1,0,0,1,0.199296,10.3719)">
            <path d="M6064.04,3845.33C6086.13,3828.65 6117.16,3806.26 6140.65,3786.14C6157.94,3771.34 6173.34,3754.44 6190.58,3739.58C6237.65,3699.02 6284.13,3658.6 6326.21,3612.7" style="fill:none;stroke:black;stroke-width:13.81px;"/>
        </g>
        <g transform="matrix(0.957872,0,0,0.958049,264.03,170.105)">
            <path d="M6113.61,3908.56C6118.51,3905.59 6124.65,3896.54 6129.22,3892.31C6149.6,3873.38 6169.7,3854.16 6189.89,3835.02C6239.63,3787.85 6293.13,3744.16 6339.94,3694.24" style="fill:none;stroke:black;stroke-width:14.42px;"/>
        </g>
        <g transform="matrix(0.81947,0,0,0.860452,1141.63,545.314)">
            <path d="M6217.26,3911.25C6217.12,3911.38 6217,3910.52 6217,3910.45C6217.07,3905.22 6226.07,3898.02 6229.14,3894.67C6237.8,3885.24 6247.15,3876.47 6256.22,3867.45C6271.94,3851.81 6286.77,3835.19 6303.31,3820.39C6316.27,3808.79 6331.23,3798.16 6343.14,3785.5" style="fill:none;stroke:black;stroke-width:16.44px;"/>
        </g>
        <g transform="matrix(1.03394,0.129429,-0.124211,0.992256,218.476,-767.153)">
            <path d="M6195.58,3355.66C6195.1,3355.85 6187.11,3346.86 6188.87,3338.7C6190.87,3329.45 6198.36,3324.94 6198.85,3324.63C6204.68,3320.96 6212.23,3320.69 6218.87,3321.52C6236,3323.66 6251.04,3332.99 6262.15,3345.95C6286.91,3374.83 6295.28,3435.82 6254.48,3455.37C6143.66,3508.5 6095.6,3365.42 6189.49,3329.31" style="fill:none;stroke:black;stroke-width:13.53px;"/>
        </g>
        <g transform="matrix(1.70448,0.0703671,-0.0706763,1.71197,5998.45,-7106.76)">
            <text x="338.595px" y="6073.96px" style="font-family:'Noteworthy-Bold', 'Noteworthy';font-weight:700;font-size:62.5px;">de<tspan x="398.605px " y="6073.96px ">v</tspan></text>
        </g>
    </g>
    <g id="Actor8" serif:id="Actor" transform="matrix(0.913043,0.110288,-0.110288,0.913043,1286.57,4923.11)">
        <g transform="matrix(0.349022,0.0204952,-0.0270046,0.459873,5812.49,2035.86)">
            <g id="Actor9" serif:id="Actor">
                <path d="M651.314,2500.39C651.314,2500.39 668.714,2853.12 665.532,2971.42C661.814,3109.67 663.326,3280.94 688.028,3584.85C708.019,3830.8 702.337,4022.68 711.847,4026.46C731.534,4034.27 1256.76,4027.17 1275.54,4026.26C1444.97,4018.07 2079.08,4002.12 2089.86,3982.91C2096.76,3970.59 2081.92,3650.22 2086.81,3551.64C2094.26,3401.49 2072.93,3184.57 2072.36,2957.18C2072.28,2925.46 2019.86,2498.22 2013.27,2498.27C1976.78,2498.57 1668.8,2498.44 1640.16,2497.21C1269.11,2481.31 1014.7,2500.39 651.314,2500.39Z" style="fill:rgb(255,245,90);stroke:black;stroke-width:60.8px;"/>
            </g>
        </g>
        <g transform="matrix(1.11526,0,0,1,-691.183,2.29941)">
            <path d="M6052.98,3902.86C6052.14,3904.27 6049.87,3888.91 6049.76,3887.5C6049,3877.18 6048.45,3866.84 6048.2,3856.49C6047.42,3824.46 6049.93,3792.49 6051.53,3760.51C6056.57,3659.69 6062.02,3507.72 6193.37,3495.21C6246.49,3490.15 6275.28,3544.22 6286.5,3587.95C6308.27,3672.76 6305.98,3728.08 6308.78,3812.79C6309.84,3845.1 6315.59,3879.19 6311.38,3911.45" style="fill:none;stroke:black;stroke-width:13.04px;"/>
        </g>
        <path d="M6072.42,3665.22C6078.35,3654.36 6102.98,3638.45 6112.86,3627.05C6137.95,3598.07 6164.94,3572.49 6192.4,3545.89C6206,3532.7 6219.13,3516.4 6235.07,3505.77" style="fill:none;stroke:black;stroke-width:13.81px;"/>
        <g transform="matrix(1,0,0,1,3.26044,4.77065)">
            <path d="M6064.76,3756.98C6068.66,3748.01 6127.3,3701.2 6137.98,3691.47C6185.42,3648.21 6234.01,3600.55 6289.86,3545.6" style="fill:none;stroke:black;stroke-width:13.81px;"/>
        </g>
        <g transform="matrix(1,0,0,1,0.199296,10.3719)">
            <path d="M6064.04,3845.33C6086.13,3828.65 6117.16,3806.26 6140.65,3786.14C6157.94,3771.34 6173.34,3754.44 6190.58,3739.58C6237.65,3699.02 6284.13,3658.6 6326.21,3612.7" style="fill:none;stroke:black;stroke-width:13.81px;"/>
        </g>
        <g transform="matrix(0.957872,0,0,0.958049,264.03,170.105)">
            <path d="M6113.61,3908.56C6118.51,3905.59 6124.65,3896.54 6129.22,3892.31C6149.6,3873.38 6169.7,3854.16 6189.89,3835.02C6239.63,3787.85 6293.13,3744.16 6339.94,3694.24" style="fill:none;stroke:black;stroke-width:14.42px;"/>
        </g>
        <g transform="matrix(0.81947,0,0,0.860452,1141.63,545.314)">
            <path d="M6217.26,3911.25C6217.12,3911.38 6217,3910.52 6217,3910.45C6217.07,3905.22 6226.07,3898.02 6229.14,3894.67C6237.8,3885.24 6247.15,3876.47 6256.22,3867.45C6271.94,3851.81 6286.77,3835.19 6303.31,3820.39C6316.27,3808.79 6331.23,3798.16 6343.14,3785.5" style="fill:none;stroke:black;stroke-width:16.44px;"/>
        </g>
        <g transform="matrix(1.03394,0.129429,-0.124211,0.992256,218.476,-767.153)">
            <path d="M6195.58,3355.66C6195.1,3355.85 6187.11,3346.86 6188.87,3338.7C6190.87,3329.45 6198.36,3324.94 6198.85,3324.63C6204.68,3320.96 6212.23,3320.69 6218.87,3321.52C6236,3323.66 6251.04,3332.99 6262.15,3345.95C6286.91,3374.83 6295.28,3435.82 6254.48,3455.37C6143.66,3508.5 6095.6,3365.42 6189.49,3329.31" style="fill:none;stroke:black;stroke-width:13.53px;"/>
        </g>
        <g transform="matrix(1.70448,0.0703671,-0.0706763,1.71197,6001.86,-7123.49)">
            <text x="344.934px" y="6073.96px" style="font-family:'Noteworthy-Bold', 'Noteworthy';font-weight:700;font-size:62.5px;">j<tspan x="360.561px 392.991px " y="6073.96px 6073.96px ">oe</tspan></text>
        </g>
    </g>
</svg>
