<?xml version="1.0" encoding="UTF-8" standalone="no"?>
<!DOCTYPE svg PUBLIC "-//W3C//DTD SVG 1.1//EN" "http://www.w3.org/Graphics/SVG/1.1/DTD/svg11.dtd">
<svg width="100%" height="100%" viewBox="0 0 7200 10800" version="1.1" xmlns="http://www.w3.org/2000/svg" xmlns:xlink="http://www.w3.org/1999/xlink" xml:space="preserve" xmlns:serif="http://www.serif.com/" style="fill-rule:evenodd;clip-rule:evenodd;stroke-linecap:round;stroke-linejoin:round;stroke-miterlimit:1.5;">
    <g id="Banner" transform="matrix(1,0,0,1,38.7073,-72.0607)">
        <path d="M1074.05,1083.46C1040.17,1073.94 924.442,1073.86 750.089,1086.67C540.76,1102.04 259.278,1067.41 258.464,1069.6C251.38,1088.69 449.985,1265.83 608.588,1370.11C757.873,1468.27 924.35,1610.93 928.889,1623.95C943.484,1665.78 220.486,2209.5 262.803,2295.76C266.656,2303.61 646.78,2263.46 824.536,2250.89C1128.23,2229.41 1434.02,2212.58 1738.58,2214.91C1746.78,2214.97 1811.25,2222.18 1813.19,2208.27C1813.3,2207.45 1813.2,2206.61 1812.99,2205.81C1807.17,2184.63 1604.57,1981.65 1596.88,1982.09C1547.47,1984.9 1123.65,2007.05 1127.39,1976.99" style="fill:rgb(255,209,100);stroke:black;stroke-width:41.67px;"/>
        <path d="M5986.06,984.912C6042.52,989.457 6359.51,1013.25 6428.12,1015.93C6581.62,1021.94 6836.74,1005.08 6836.74,1005.08C6836.74,1005.08 6522.21,1323.53 6500.88,1352.81C6453.09,1418.42 6206.12,1641.47 6206.37,1642C6208.93,1647.45 6432.75,1870.17 6540.12,1951.95C6663.35,2045.81 6839.75,2224.36 6838.13,2224.36C6329.08,2224.36 5216.49,2239.67 5227.84,2226.04C5240.54,2210.81 5442.09,1960 5429.87,1975.12C5424.16,1982.18 5634.71,1983.84 5788.3,1989.13C5878.11,1992.22 5952.41,1981.28 5953.5,1980.62" style="fill:rgb(255,209,100);stroke:black;stroke-width:41.67px;"/>
        <path d="M1129.53,1984.38C1129.53,1984.38 1109.34,1583.11 1107.08,1503.79C1097.34,1161.52 1058.41,806.439 1071.31,464.538C1071.62,456.224 1067.88,422.832 1077.92,417.254C1111.62,398.533 1392.37,414.118 1429.54,415.299C1688.97,423.539 1942.96,401.023 2174.61,399.497C2519.74,397.224 2763.79,369.153 3108.96,372.84C3869.24,380.962 4311.13,400.956 5126.2,383.725C5321.05,379.605 5472.28,399.347 5606.63,399.147C5614.52,399.135 6000.31,396.317 5998.52,418.422C5994.37,469.652 5992.37,630.996 5990.73,694.774C5987.44,823.005 5981.21,1028.02 5984.18,1198.62C5987.15,1369.74 5978.44,1611.52 5975.21,1706.69C5974.03,1741.41 5962.83,1945.04 5957.06,1976.14C5952.79,1999.15 5521.82,1977.95 5515.62,1977.87C5256.97,1974.54 4816,1944.25 4270.9,1938.97C3912.67,1935.5 3480.5,1956.81 3127.47,1954.48C2809.14,1952.39 2479.64,1920.42 2161.63,1933.46C1991.27,1940.44 1297.52,2027.21 1129.53,1984.38Z" style="fill:rgb(255,233,180);stroke:black;stroke-width:41.67px;"/>
        <g transform="matrix(28.45,0,0,25.1506,-44027.6,-95076)">
            <text x="1606.16px" y="3845.49px" style="font-family:'Noteworthy-Light', 'Noteworthy';font-weight:300;font-size:49.701px;">Ev<tspan x="1655.49px 1676.49px 1697.61px 1712.02px " y="3845.49px 3845.49px 3845.49px 3845.49px ">ents</tspan></text>
        </g>
    </g>
    <g transform="matrix(1,0,0,1,-115.844,187.849)">
        <text x="2526.36px" y="2890.25px" style="font-family:'Noteworthy-Bold', 'Noteworthy';font-weight:700;font-size:416.667px;">s<tspan x="2727.4px 2943.55px 3244.59px 3425.84px 3572.19px 3788.86px 3873.75px " y="2890.25px 2890.25px 2890.25px 2890.25px 2890.25px 2890.25px 2890.25px ">omethin</tspan>g t<tspan x="4540.94px 4735.21px 4941.98px 5096.67px " y="2890.25px 2890.25px 2890.25px 2890.25px ">hat </tspan>ha<tspan x="5608.65px 5820.63px " y="2890.25px 2890.25px ">pp</tspan>en<tspan x="6455px 6652.92px " y="2890.25px 2890.25px ">ed</tspan></text>
        <text x="2757.09px" y="3448.17px" style="font-family:'Noteworthy-Bold', 'Noteworthy';font-weight:700;font-size:416.667px;">t<tspan x="2903.44px 3097.71px 3304.48px 3459.17px " y="3448.17px 3448.17px 3448.17px 3448.17px ">hat </tspan>peop<tspan x="4388.34px 4472.19px " y="3448.17px 3448.17px ">le</tspan> c<tspan x="4961.78px 5192.5px 5342.5px 5540.42px " y="3448.17px 3448.17px 3448.17px 3448.17px ">are </tspan>abo<tspan x="6290.94px 6477.92px " y="3448.17px 3448.17px ">ut</tspan></text>
    </g>
    <g id="Lightning-Bolt" serif:id="Lightning Bolt">
        <g transform="matrix(1,0,0,1,32.0086,13.2064)">
            <path d="M596.341,2509.6C596.341,2509.6 595.29,2500.93 596.456,2519.61C615.445,2823.92 630.627,3132.47 655.329,3436.38C675.32,3682.33 702.337,4022.68 711.847,4026.46C731.534,4034.27 1256.76,4027.17 1275.54,4026.26C1444.97,4018.07 2152.22,4020.27 2162.99,4001.06C2169.9,3988.74 2139.54,3650.06 2138.34,3639.5C2129.56,3562.62 2088.4,3149.77 2081.88,3054.43C2079.72,3022.78 2019.86,2498.22 2013.27,2498.27C1976.78,2498.57 1668.8,2498.44 1640.16,2497.21C1269.11,2481.31 959.731,2509.6 596.341,2509.6Z" style="fill:rgb(255,180,0);stroke:black;stroke-width:41.67px;"/>
        </g>
        <g transform="matrix(1,0,0,1,37.1565,-73.2496)">
            <path d="M1054.07,2934.98C1054.07,2934.98 1059.09,2924.55 1070.34,2907.76C1083.03,2888.79 1082.08,2880.91 1084.44,2881.11C1094.6,2881.94 1128.07,2878.66 1138.25,2879.14C1170.11,2880.64 1201.93,2881.66 1233.76,2883.7C1325.02,2889.54 1437.89,2891.92 1488.52,2891.33C1524.14,2890.92 1565.32,2894.55 1609.19,2893.03C1611.33,2892.96 1645.82,2893.58 1645.93,2894.67C1649.23,2927.72 1421.15,3225.73 1421.15,3332.76C1421.15,3337.24 1465.36,3339.9 1465.66,3339.95C1522.54,3350.02 1608.36,3343.45 1606.4,3348.22C1600.4,3362.83 1562.35,3422.18 1537.67,3449.21C1462.16,3531.88 1391.09,3618.5 1324.14,3708.24C1292.95,3750.07 1262.4,3792.53 1233.76,3836.16C1232.56,3837.99 1230.13,3843.84 1230.13,3841.64C1230.13,3748.98 1259.75,3645.27 1285.9,3557.11C1295.37,3525.18 1315.13,3489.94 1317.23,3456.26C1317.27,3455.77 1317.28,3455.29 1317.09,3454.83C1311.19,3440.67 1169.45,3450.22 1148.93,3452.56C1146.19,3452.87 1128.99,3457.36 1128.99,3452.06C1128.99,3384.69 1299.27,3090.12 1297.93,3082.77C1297.44,3080.06 1292.7,3080.38 1290.81,3080.42C1259.52,3080.98 1228.23,3079.61 1196.94,3080.49C1120.99,3082.62 1030.29,3081.28 1025.56,3082.08C997.187,3086.86 1028.68,2995.63 1054.07,2934.98Z" style="stroke:black;stroke-width:41.67px;"/>
        </g>
    </g>
    <g id="Account-Locked" serif:id="Account Locked">
        <g transform="matrix(0.884675,0,0,0.864857,-244.077,5228.03)">
            <path d="M596.341,2509.6C596.341,2509.6 595.29,2500.93 596.456,2519.61C615.445,2823.92 585.613,2940.22 610.315,3244.13C630.306,3490.09 645.729,3978.08 648.174,4034.99C649.101,4056.57 1256.74,4025.73 1275.54,4026.26C1489.64,4032.35 2122.98,4020.78 2119.84,3998.87C2114.82,3963.85 2101.46,3626.03 2100.26,3615.47C2091.48,3538.59 2093.98,3161.54 2092.31,3065.98C2090.9,2985.09 2095.13,2489.35 2088.54,2489.4C2052.05,2489.7 1595.39,2508.83 1437.75,2505.58C1066.46,2497.91 959.731,2509.6 596.341,2509.6Z" style="fill:rgb(255,180,0);stroke:black;stroke-width:47.63px;"/>
        </g>
        <g transform="matrix(0.857851,-0.0228159,0.0228159,0.857851,-4160.8,4070.41)">
            <g transform="matrix(0.995625,0,0,1,23.248,0)">
                <text x="5313.84px" y="4575.68px" style="font-family:'Noteworthy-Bold', 'Noteworthy';font-weight:700;font-size:312.5px;">a<tspan x="5484.99px 5641.67px 5798.35px 5968.74px 6118.41px 6268.77px " y="4575.68px 4575.68px 4575.68px 4575.68px 4575.68px 4575.68px ">ccount</tspan></text>
            </g>
            <g transform="matrix(0.995625,0,0,1,23.7741,0)">
                <text x="5434.09px" y="4909.73px" style="font-family:'Noteworthy-Bold', 'Noteworthy';font-weight:700;font-size:312.5px;">loc<tspan x="5815.85px " y="4909.73px ">k</tspan></text>
            </g>
            <g transform="matrix(0.995625,0,0,1,26.0527,0)">
                <text x="5954.9px" y="4909.73px" style="font-family:'Noteworthy-Bold', 'Noteworthy';font-weight:700;font-size:312.5px;">e</text>
            </g>
            <g transform="matrix(0.995625,0,0,1,26.6995,0)">
                <text x="6102.73px" y="4909.73px" style="font-family:'Noteworthy-Bold', 'Noteworthy';font-weight:700;font-size:312.5px;">d</text>
            </g>
            <g transform="matrix(0.995625,0,0,1,22.7138,0)">
                <text x="5191.72px" y="5323.4px" style="font-family:'Noteworthy-Bold', 'Noteworthy';font-weight:700;font-size:145.661px;">(wr<tspan x="5385.47px 5461.05px " y="5323.4px 5323.4px ">on</tspan>g p<tspan x="5713.1px 5791.04px 5856.95px 5927.24px 6026.67px 6102.25px 6156.14px 6229.72px " y="5323.4px 5323.4px 5323.4px 5323.4px 5323.4px 5323.4px 5323.4px 5323.4px ">assword </tspan>3x)</text>
            </g>
        </g>
    </g>
    <g id="Order-Submitted" serif:id="Order Submitted">
        <g transform="matrix(0.155102,0.909384,-0.850329,0.14503,3520.64,3791.25)">
            <path d="M651.314,2500.39C651.314,2500.39 668.714,2853.12 665.532,2971.42C661.814,3109.67 663.326,3280.94 688.028,3584.85C708.019,3830.8 702.337,4022.68 711.847,4026.46C731.534,4034.27 1256.76,4027.17 1275.54,4026.26C1444.97,4018.07 2079.08,4002.12 2089.86,3982.91C2096.76,3970.59 2081.92,3650.22 2086.81,3551.64C2094.26,3401.49 2072.93,3184.57 2072.36,2957.18C2072.28,2925.46 2019.86,2498.22 2013.27,2498.27C1976.78,2498.57 1668.8,2498.44 1640.16,2497.21C1269.11,2481.31 1014.7,2500.39 651.314,2500.39Z" style="fill:rgb(255,180,0);stroke:black;stroke-width:46.66px;"/>
        </g>
        <g transform="matrix(0.84068,-0.172293,0.172293,0.84068,-4774.15,2588.75)">
            <g transform="matrix(0.995625,0,0,1,24.0361,0)">
                <text x="5493.97px" y="4575.68px" style="font-family:'Noteworthy-Bold', 'Noteworthy';font-weight:700;font-size:312.5px;">or<tspan x="5771.74px 5929.6px " y="4575.68px 4575.68px ">de</tspan>r</text>
            </g>
            <g transform="matrix(0.995625,0,0,1,22.8577,0)">
                <text x="5224.62px" y="4964.84px" style="font-family:'Noteworthy-Bold', 'Noteworthy';font-weight:700;font-size:312.5px;">s<tspan x="5372.29px 5523.93px 5687.26px 5917.41px 5965.03px 6061.86px 6168.5px " y="4964.84px 4964.84px 4964.84px 4964.84px 4964.84px 4964.84px 4964.84px ">ubmitte</tspan></text>
            </g>
            <g transform="matrix(0.995625,0,0,1,27.6159,0)">
                <text x="6312.2px" y="4964.84px" style="font-family:'Noteworthy-Bold', 'Noteworthy';font-weight:700;font-size:312.5px;">d</text>
            </g>
        </g>
    </g>
    <g id="Item-Shipped" serif:id="Item Shipped">
        <g transform="matrix(0.885083,0.260124,-0.243232,0.827606,5875.28,1851.07)">
            <path d="M651.314,2500.39C651.314,2500.39 668.714,2853.12 665.532,2971.42C661.814,3109.67 663.326,3280.94 688.028,3584.85C708.019,3830.8 702.337,4022.68 711.847,4026.46C731.534,4034.27 1256.76,4027.17 1275.54,4026.26C1444.97,4018.07 2079.08,4002.12 2089.86,3982.91C2096.76,3970.59 2081.92,3650.22 2086.81,3551.64C2094.26,3401.49 2072.93,3184.57 2072.36,2957.18C2072.28,2925.46 2019.86,2498.22 2013.27,2498.27C1976.78,2498.57 1668.8,2498.44 1640.16,2497.21C1269.11,2481.31 1014.7,2500.39 651.314,2500.39Z" style="fill:rgb(255,180,0);stroke:black;stroke-width:46.66px;"/>
        </g>
        <g transform="matrix(0.968766,0.247978,-0.247978,0.968766,1913.64,-1073.43)">
            <g transform="matrix(0.995625,0,0,1,23.8984,0)">
                <text x="5462.49px" y="4575.68px" style="font-family:'Noteworthy-Bold', 'Noteworthy';font-weight:700;font-size:312.5px;">i<tspan x="5510.11px 5616.75px 5765.23px " y="4575.68px 4575.68px 4575.68px ">tem</tspan></text>
            </g>
            <g transform="matrix(0.995625,0,0,1,22.8572,0)">
                <text x="5224.51px" y="4961.51px" style="font-family:'Noteworthy-Bold', 'Noteworthy';font-weight:700;font-size:312.5px;">sh<tspan x="5541.07px 5604.78px " y="4961.51px 4961.51px ">ip</tspan>pe<tspan x="6071.31px " y="4961.51px ">d</tspan></text>
            </g>
        </g>
    </g>
    <g id="Nightly-Accounts" serif:id="Nightly Accounts">
        <g transform="matrix(-0.920292,-0.0640214,0.0598638,-0.860529,7279.15,9522.91)">
            <path d="M651.314,2500.39C651.314,2500.39 668.714,2853.12 665.532,2971.42C661.814,3109.67 663.326,3280.94 688.028,3584.85C708.019,3830.8 702.337,4022.68 711.847,4026.46C731.534,4034.27 1256.76,4027.17 1275.54,4026.26C1444.97,4018.07 2079.08,4002.12 2089.86,3982.91C2096.76,3970.59 2081.92,3650.22 2086.81,3551.64C2094.26,3401.49 2072.93,3184.57 2072.36,2957.18C2072.28,2925.46 2019.86,2498.22 2013.27,2498.27C1976.78,2498.57 1668.8,2498.44 1640.16,2497.21C1269.11,2481.31 1014.7,2500.39 651.314,2500.39Z" style="fill:rgb(255,180,0);stroke:black;stroke-width:46.66px;"/>
        </g>
        <g transform="matrix(0.999088,0.042697,-0.042697,0.999088,321.754,-51.4735)">
            <g transform="matrix(0.995625,0,0,1,25.4842,0)">
                <text x="5824.95px" y="6266.63px" style="font-family:'Noteworthy-Bold', 'Noteworthy';font-weight:700;font-size:254.167px;">n<tspan x="5965.44px 6012.15px 6141.49px 6244.39px 6338.78px 6384.86px " y="6266.63px 6266.63px 6266.63px 6266.63px 6266.63px 6266.63px ">ightly</tspan></text>
            </g>
            <g transform="matrix(0.995625,0,0,1,24.8446,0)">
                <text x="5678.78px" y="6513.3px" style="font-family:'Noteworthy-Bold', 'Noteworthy';font-weight:700;font-size:254.167px;">a<tspan x="5817.98px 5945.41px " y="6513.3px 6513.3px ">cc</tspan>o</text>
            </g>
            <g transform="matrix(0.995625,0,0,1,27.1648,0)">
                <text x="6209.1px" y="6513.3px" style="font-family:'Noteworthy-Bold', 'Noteworthy';font-weight:700;font-size:254.167px;">u</text>
            </g>
            <g transform="matrix(0.995625,0,0,1,27.6951,0)">
                <text x="6330.3px" y="6513.3px" style="font-family:'Noteworthy-Bold', 'Noteworthy';font-weight:700;font-size:254.167px;">n<tspan x="6452.59px 6534.22px " y="6513.3px 6513.3px ">ts</tspan></text>
            </g>
            <g transform="matrix(0.995625,0,0,1,24.6203,0)">
                <text x="5627.5px" y="6764.13px" style="font-family:'Noteworthy-Bold', 'Noteworthy';font-weight:700;font-size:254.167px;">r<tspan x="5718.99px 5839.75px " y="6764.13px 6764.13px ">ec</tspan>onc<tspan x="6361.87px " y="6764.13px ">i</tspan></text>
            </g>
            <g transform="matrix(0.995625,0,0,1,28.0448,0)">
                <text x="6410.25px" y="6764.13px" style="font-family:'Noteworthy-Bold', 'Noteworthy';font-weight:700;font-size:254.167px;">l</text>
            </g>
            <g transform="matrix(0.995625,0,0,1,28.2678,0)">
                <text x="6461.21px" y="6764.13px" style="font-family:'Noteworthy-Bold', 'Noteworthy';font-weight:700;font-size:254.167px;">ed</text>
            </g>
        </g>
    </g>
    <g id="or-the-consequence-of-another-event" serif:id="or the consequence of another event">
        <g transform="matrix(0.995625,0,0,1,1900.38,1674.12)">
            <text x="721.832px" y="8770.69px" style="font-family:'Noteworthy-Bold', 'Noteworthy';font-weight:700;font-size:291.667px;">or <tspan x="1050.8px 1153.25px 1289.28px " y="8770.69px 8770.69px 8770.69px ">the</tspan> c<tspan x="1635.02px " y="8770.69px ">o</tspan>ns<tspan x="2079.53px 2218.1px " y="8770.69px 8770.69px ">eq</tspan>ue<tspan x="2636.39px " y="8770.69px ">n</tspan>ce<tspan x="3076.55px 3137.47px 3280.02px 3396.73px 3457.65px 3617.39px 3772.74px 3909.06px 4011.52px 4147.55px " y="8770.69px 8770.69px 8770.69px 8770.69px 8770.69px 8770.69px 8770.69px 8770.69px 8770.69px 8770.69px "> of anothe</tspan>r <tspan x="4463.75px 4596.47px 4729.9px 4868.48px 5008.82px " y="8770.69px 8770.69px 8770.69px 8770.69px 8770.69px ">event</tspan></text>
        </g>
        <g>
            <g transform="matrix(1,0,0,1,-86.1999,1763.8)">
                <path d="M2203.1,8607.5C2198.48,8608.43 2212.45,8608.84 2217.16,8609.05C2224.69,8609.39 2232.24,8609.47 2239.78,8609.67C2262.32,8610.29 2284.79,8611.14 2307.34,8610.9C2376.8,8610.16 2445.74,8605.8 2514.84,8613.77" style="fill:none;stroke:black;stroke-width:41.67px;"/>
            </g>
            <g transform="matrix(1,0,0,1,-86.1999,1763.8)">
                <path d="M2411.62,8484.45C2424.19,8500.97 2452.57,8529.52 2464.6,8541.47C2487.19,8563.92 2532.58,8612.43 2529.76,8618.08C2524.82,8627.96 2465.77,8673.82 2463.14,8675.99C2443.23,8692.51 2414.3,8723.33 2402.05,8731.57" style="fill:none;stroke:black;stroke-width:41.67px;"/>
            </g>
        </g>
    </g>
    <g id="the-passing-of-time" serif:id="the passing of time">
        <g id="Time" transform="matrix(1,0,0,1,-94.6016,32.3076)">
            <g transform="matrix(-0.679671,-0.115344,0.103423,-0.609425,5781.5,11649.4)">
                <path d="M596.341,2509.6C596.341,2509.6 595.29,2500.93 596.456,2519.61C615.445,2823.92 630.627,3132.47 655.329,3436.38C675.32,3682.33 702.337,4022.68 711.847,4026.46C731.534,4034.27 1256.76,4027.17 1275.54,4026.26C1444.97,4018.07 2152.22,4020.27 2162.99,4001.06C2169.9,3988.74 2139.54,3650.06 2138.34,3639.5C2129.56,3562.62 2088.4,3149.77 2081.88,3054.43C2079.72,3022.78 2019.86,2498.22 2013.27,2498.27C1976.78,2498.57 1668.8,2498.44 1640.16,2497.21C1269.11,2481.31 959.731,2509.6 596.341,2509.6Z" style="fill:rgb(255,180,0);stroke:black;stroke-width:63.64px;"/>
            </g>
            <g transform="matrix(1.143,0,0,1.07921,-1022.68,-670.899)">
                <path d="M5483.65,9187.99C5485.85,9190.31 5522.77,9202.15 5531.24,9207.02C5614.42,9254.89 5683.77,9322.8 5699.32,9421.08C5752.98,9760.25 5436.25,9896.57 5209.22,9659.88C5069.92,9514.65 5145.43,9347.54 5241.95,9237.64C5317.34,9151.79 5423.38,9189.21 5483.65,9187.99Z" style="fill:none;stroke:black;stroke-width:37.48px;"/>
            </g>
            <g transform="matrix(0.868095,0,0,1.02954,432.934,-184.847)">
                <path d="M5573.77,9299.77C5569.37,9304.63 5527.04,9370.52 5518.19,9383.91C5492.71,9422.49 5478.37,9438.89 5453.97,9480.91" style="fill:none;stroke:black;stroke-width:30.83px;"/>
            </g>
            <g transform="matrix(1,0,0,1,-279.638,101.251)">
                <path d="M5450.32,9484.22C5448.62,9486.56 5455.56,9486.72 5457.97,9488.31C5465.48,9493.26 5473.09,9498.12 5480.43,9503.32C5503.68,9519.81 5530.59,9529.44 5549.82,9550.42" style="fill:none;stroke:black;stroke-width:16.73px;"/>
            </g>
            <g transform="matrix(1,0,0,1,-285.479,38.3642)">
                <path d="M5319.5,9084.67C5319.98,9084.11 5318.56,9086.83 5321.76,9095.81C5327.32,9111.42 5335.61,9126.28 5339.21,9142.48" style="fill:none;stroke:black;stroke-width:16.73px;"/>
            </g>
            <g transform="matrix(1,0,0,1,-285.479,38.3642)">
                <path d="M5267.54,9094.84C5266.27,9096.37 5275.76,9092.49 5277.88,9091.73C5286.33,9088.72 5294.6,9085.21 5303.07,9082.2C5323.63,9074.91 5357.48,9060.24 5380.28,9062.14" style="fill:none;stroke:black;stroke-width:16.73px;"/>
            </g>
            <g transform="matrix(1,0,0,1,-285.479,38.3642)">
                <path d="M5460.26,9060.58C5460.24,9060.59 5460.2,9060.64 5460.2,9060.62C5460.76,9055.68 5463.29,9076.66 5463.49,9079C5464.74,9093.52 5466.95,9109.84 5465.11,9124.51" style="fill:none;stroke:black;stroke-width:16.73px;"/>
            </g>
            <g transform="matrix(1,0,0,1,-285.479,38.3642)">
                <path d="M5425.42,9050.37C5425.85,9049.94 5438.81,9052.9 5440.77,9053.24C5463.12,9057.17 5487.29,9058.46 5509.05,9065.26" style="fill:none;stroke:black;stroke-width:16.73px;"/>
            </g>
            <g transform="matrix(1,0,0,1,-285.479,38.3642)">
                <path d="M5418.91,9126.01C5443.22,9137.99 5489.74,9124.3 5519.66,9135.81" style="fill:none;stroke:black;stroke-width:16.73px;"/>
            </g>
            <g transform="matrix(0.963982,0,0,1.06973,-78.0508,-589.046)">
                <path d="M5545.05,9135.48C5545.12,9135.55 5547.33,9132.1 5547.54,9131.78C5556.98,9117.59 5574.03,9084.97 5583.6,9070.86C5583.99,9070.29 5600.64,9152.28 5601.84,9152.88C5602.38,9153.15 5607.71,9146.06 5608.04,9145.69C5618.68,9133.77 5652.06,9090.76 5652.59,9089.72C5653.52,9087.91 5652.04,9137.84 5651.93,9147.78C5651.83,9156.93 5650.18,9166.04 5650.18,9175.12" style="fill:none;stroke:black;stroke-width:16.43px;"/>
            </g>
            <g transform="matrix(1,0,0,1,-285.479,38.3642)">
                <path d="M5710.03,9144.56C5710.05,9144.46 5703.53,9154.79 5701.98,9157.33C5694.38,9169.82 5686.29,9182.69 5680.34,9196.08" style="fill:none;stroke:black;stroke-width:16.73px;"/>
            </g>
            <g transform="matrix(1,0,0,1,-285.479,38.3642)">
                <path d="M5717.95,9142.03C5715.1,9143.12 5724.08,9148.13 5725.77,9149.28C5736.03,9156.31 5746.79,9162.58 5757.25,9169.3" style="fill:none;stroke:black;stroke-width:16.73px;"/>
            </g>
            <g transform="matrix(1,0,0,1,-285.479,38.3642)">
                <path d="M5698.41,9173.17C5698.13,9173.25 5699.33,9174.17 5699.33,9174.17C5707.07,9179.51 5715.18,9184.23 5723.24,9189.07" style="fill:none;stroke:black;stroke-width:16.73px;"/>
            </g>
            <g transform="matrix(1,0,0,1,-285.479,38.3642)">
                <path d="M5675.62,9200.95C5692.96,9205.01 5715.15,9221.73 5729.45,9232.45" style="fill:none;stroke:black;stroke-width:16.73px;"/>
            </g>
        </g>
        <g transform="matrix(0.995625,0,0,1,625.687,792.116)">
            <text x="2005.25px" y="8770.69px" style="font-family:'Noteworthy-Bold', 'Noteworthy';font-weight:700;font-size:312.5px;">t<tspan x="2115.03px 2260.77px " y="8770.69px 8770.69px ">he</tspan> p<tspan x="2624.52px 2791.74px 2933.14px 3090.22px 3153.93px " y="8770.69px 8770.69px 8770.69px 8770.69px 8770.69px ">assin</tspan>g <tspan x="3544.67px 3697.4px " y="8770.69px 8770.69px ">of</tspan></text>
        </g>
        <g>
            <g transform="matrix(1,0,0,1,-98.6275,846.469)">
                <path d="M2203.1,8607.5C2198.48,8608.43 2212.45,8608.84 2217.16,8609.05C2224.69,8609.39 2232.24,8609.47 2239.78,8609.67C2262.32,8610.29 2284.79,8611.14 2307.34,8610.9C2376.8,8610.16 2445.74,8605.8 2514.84,8613.77" style="fill:none;stroke:black;stroke-width:41.67px;"/>
            </g>
            <g transform="matrix(1,0,0,1,-98.6275,846.469)">
                <path d="M2411.62,8484.45C2424.19,8500.97 2452.57,8529.52 2464.6,8541.47C2487.19,8563.92 2532.58,8612.43 2529.76,8618.08C2524.82,8627.96 2465.77,8673.82 2463.14,8675.99C2443.23,8692.51 2414.3,8723.33 2402.05,8731.57" style="fill:none;stroke:black;stroke-width:41.67px;"/>
            </g>
        </g>
    </g>
    <g id="could-be-a-system" serif:id="could be a system">
        <g id="System">
            <g transform="matrix(-1.09717,-0.00659459,0.00314215,-0.522772,6289.45,10208.6)">
                <path d="M596.341,2509.6C596.341,2509.6 595.29,2500.93 596.456,2519.61C615.445,2823.92 585.613,2940.22 610.315,3244.13C630.306,3490.09 645.729,3978.08 648.174,4034.99C649.101,4056.57 1256.74,4025.73 1275.54,4026.26C1489.64,4032.35 2122.98,4020.78 2119.84,3998.87C2114.82,3963.85 2101.46,3626.03 2100.26,3615.47C2091.48,3538.59 2093.98,3161.54 2092.31,3065.98C2090.9,2985.09 2095.13,2489.35 2088.54,2489.4C2052.05,2489.7 1595.39,2508.83 1437.75,2505.58C1066.46,2497.91 959.731,2509.6 596.341,2509.6Z" style="fill:rgb(255,0,127);fill-opacity:0.87;stroke:black;stroke-width:48.48px;"/>
            </g>
            <g transform="matrix(1.22575,0.00717752,-0.00720906,1.23114,1314.09,-2226.59)">
                <text x="2447.98px" y="8770.69px" style="font-family:'Noteworthy-Bold', 'Noteworthy';font-weight:700;font-size:312.5px;">s<tspan x="2592.51px 2742.9px 2896.84px 3003.48px 3151.96px " y="8770.69px 8770.69px 8770.69px 8770.69px 8770.69px ">ystem</tspan></text>
            </g>
        </g>
        <g transform="matrix(0.995625,0,0,1,347.64,-189.734)">
            <text x="2260.74px" y="8770.69px" style="font-family:'Noteworthy-Bold', 'Noteworthy';font-weight:700;font-size:312.5px;">co<tspan x="2587.81px 2737.48px 2800.41px " y="8770.69px 8770.69px 8770.69px ">uld</tspan> b<tspan x="3183.73px " y="8770.69px ">e</tspan> a</text>
        </g>
        <g>
            <g transform="matrix(1,0,0,1,-114.419,-120.663)">
                <path d="M2203.1,8607.5C2198.48,8608.43 2212.45,8608.84 2217.16,8609.05C2224.69,8609.39 2232.24,8609.47 2239.78,8609.67C2262.32,8610.29 2284.79,8611.14 2307.34,8610.9C2376.8,8610.16 2445.74,8605.8 2514.84,8613.77" style="fill:none;stroke:black;stroke-width:41.67px;"/>
            </g>
            <g transform="matrix(1,0,0,1,-114.419,-120.663)">
                <path d="M2411.62,8484.45C2424.19,8500.97 2452.57,8529.52 2464.6,8541.47C2487.19,8563.92 2532.58,8612.43 2529.76,8618.08C2524.82,8627.96 2465.77,8673.82 2463.14,8675.99C2443.23,8692.51 2414.3,8723.33 2402.05,8731.57" style="fill:none;stroke:black;stroke-width:41.67px;"/>
            </g>
        </g>
    </g>
    <g transform="matrix(0.995625,0,0,1,1508.66,-435.887)">
        <text x="380.321px" y="8316.04px" style="font-family:'Noteworthy-Bold', 'Noteworthy';font-weight:700;font-size:416.667px;">wh<tspan x="863.238px 1061.21px 1211.19px 1409.15px 1496.19px 1706.65px 1922.85px 2009.88px 2199.48px 2390.1px 2588.07px 2788.55px 2922.37px 3127.63px 3214.66px 3423.57px 3639.76px 3940.87px 4138.84px 4225.87px 4384.22px 4530.01px 4746.21px " y="8316.04px 8316.04px 8316.04px 8316.04px 8316.04px 8316.04px 8316.04px 8316.04px 8316.04px 8316.04px 8316.04px 8316.04px 8316.04px 8316.04px 8316.04px 8316.04px 8316.04px 8316.04px 8316.04px 8316.04px 8316.04px 8316.04px 8316.04px ">ere do events come from</tspan>?</text>
    </g>
    <g transform="matrix(1,0,0,1,1367.77,73.8223)">
        <text x="231.12px" y="4723.28px" style="font-family:'Noteworthy-Bold', 'Noteworthy';font-weight:700;font-size:541.667px;fill:rgb(19,72,198);">&lt;s<tspan x="776.172px 1038.88px 1317.16px 1463.41px 1720.7px 1953.62px 2154.71px " y="4723.28px 4723.28px 4723.28px 4723.28px 4723.28px 4723.28px 4723.28px ">ubject&gt;</tspan> &lt;v<tspan x="3093.83px 3351.12px 3556.28px 3833.88px " y="4723.28px 4723.28px 4723.28px 4723.28px ">erb&gt;</tspan></text>
    </g>
    <g transform="matrix(0.889693,0,0,0.893603,432.235,520.09)">
        <text x="2722.06px" y="5126.2px" style="font-family:'Noteworthy-Bold', 'Noteworthy';font-weight:700;font-size:312.5px;">(a<tspan x="2985.05px 3047.98px 3255.41px 3422.63px 3573.02px 3726.97px 3792.24px 3942.24px 4109.47px " y="5126.2px 5126.2px 5126.2px 5126.2px 5126.2px 5126.2px 5126.2px 5126.2px 5126.2px ">lways pas</tspan>t <tspan x="4444.74px 4551.38px 4699.85px 4866.3px 5013.97px 5162.44px " y="5126.2px 5126.2px 5126.2px 5126.2px 5126.2px 5126.2px ">tense!</tspan>)</text>
    </g>
    <g transform="matrix(0.995625,0,0,1,70.5234,74.9002)">
        <text x="2872.26px" y="5866.19px" style="font-family:'Noteworthy-Bold', 'Noteworthy';font-weight:700;font-size:416.667px;">co<tspan x="3308.35px 3507.92px 3591.83px 3802.3px 3889.33px 4102.92px 4300.89px 4387.92px 4542.66px 4627.61px 4928.71px 5126.68px " y="5866.19px 5866.19px 5866.19px 5866.19px 5866.19px 5866.19px 5866.19px 5866.19px 5866.19px 5866.19px 5866.19px 5866.19px ">uld be timed</tspan></text>
    </g>
    <g transform="matrix(1,0,0,1,-1274.66,781.465)">
        <g transform="matrix(0.995625,0,0,1,12.5661,0)">
            <text x="2872.26px" y="5866.19px" style="font-family:'Noteworthy-Bold', 'Noteworthy';font-weight:700;font-size:375px;">t<tspan x="3003.99px 3178.89px " y="5866.19px 5866.19px ">he</tspan> m<tspan x="3706.38px 3877.49px 4082.87px 4290.14px 4366.59px 4566.32px 4745.85px 4880.84px 5060.45px 5135.96px 5214.29px 5349.27px 5519.91px 5697.11px 5876.72px 5937.17px " y="5866.19px 5866.19px 5866.19px 5866.19px 5866.19px 5866.19px 5866.19px 5866.19px 5866.19px 5866.19px 5866.19px 5866.19px 5866.19px 5866.19px 5866.19px 5866.19px ">eaningful result</tspan></text>
        </g>
        <g transform="matrix(0.995625,0,0,1,12.5661,0)">
            <text x="2872.26px" y="6332.44px" style="font-family:'Noteworthy-Bold', 'Noteworthy';font-weight:700;font-size:375px;">o<tspan x="3055.54px 3205.59px 3283.92px 3489.3px 3689.03px 3864.31px 3996.04px 4170.93px " y="6332.44px 6332.44px 6332.44px 6332.44px 6332.44px 6332.44px 6332.44px 6332.44px ">f anothe</tspan>r <tspan x="4577.48px 4709.21px 4904.34px 4980.8px " y="6332.44px 6332.44px 6332.44px 6332.44px ">thin</tspan>g</text>
        </g>
    </g>
    <g>
        <path d="M4960.21,6072.33C4964.45,6066.79 4951.88,6120.28 4976.39,6277.69C4985.42,6335.67 5053.2,6444.48 5148.78,6501.16C5256.72,6565.16 5405.73,6592.85 5410.46,6585.59" style="fill:none;stroke:black;stroke-width:41.67px;"/>
        <path d="M5131.72,6684.77C5172.21,6671.14 5286.6,6651.75 5313.28,6642.52C5396.6,6613.69 5436.39,6613.38 5419.9,6576.28C5402.91,6538.06 5266.74,6344 5252.76,6327.69" style="fill:none;stroke:black;stroke-width:41.67px;"/>
    </g>
    <g transform="matrix(0.995625,0,0,1,260.21,-96.8846)">
        <text x="3173.83px" y="6304.24px" style="font-family:'Noteworthy-Bold', 'Noteworthy';font-weight:700;font-size:270.833px;fill:rgb(192,13,13);">-or<tspan x="3535.5px " y="6304.24px ">-</tspan></text>
    </g>
    <g>
        <path d="M1515.46,6717.63C1515.49,6717.72 1504.21,6715.11 1503.8,6714.99C1458.09,6702.14 1407.98,6698.66 1360.83,6696.09C1256.83,6690.41 1144.14,6690.88 1045.21,6727.13C889.507,6784.21 819.636,6901.79 842.136,7067.42C848.856,7116.88 867.639,7184.43 866.064,7234.82" style="fill:none;stroke:black;stroke-width:41.67px;"/>
        <path d="M572.392,7018.28C602.26,7019.1 733.282,7129.95 834.244,7211.1C835.717,7212.28 862.91,7246.39 863.388,7246.1C878.084,7237.28 981.521,7125.31 992.497,7112.31C1016.12,7084.33 1103.31,6983.38 1121.08,6961.54" style="fill:none;stroke:black;stroke-width:41.67px;"/>
    </g>
</svg>
