<?xml version="1.0" encoding="UTF-8" standalone="no"?>
<!DOCTYPE svg PUBLIC "-//W3C//DTD SVG 1.1//EN" "http://www.w3.org/Graphics/SVG/1.1/DTD/svg11.dtd">
<svg width="100%" height="100%" viewBox="0 0 7200 10800" version="1.1" xmlns="http://www.w3.org/2000/svg" xmlns:xlink="http://www.w3.org/1999/xlink" xml:space="preserve" xmlns:serif="http://www.serif.com/" style="fill-rule:evenodd;clip-rule:evenodd;stroke-linecap:round;stroke-linejoin:round;stroke-miterlimit:1.5;">
    <g id="Banner" transform="matrix(1,0,0,1,38.7073,-72.0607)">
        <path d="M1074.05,1083.46C1040.17,1073.94 924.442,1073.86 750.089,1086.67C540.76,1102.04 259.278,1067.41 258.464,1069.6C251.38,1088.69 449.985,1265.83 608.588,1370.11C757.873,1468.27 924.35,1610.93 928.889,1623.95C943.484,1665.78 220.486,2209.5 262.803,2295.76C266.656,2303.61 646.78,2263.46 824.536,2250.89C1128.23,2229.41 1434.02,2212.58 1738.58,2214.91C1746.78,2214.97 1811.25,2222.18 1813.19,2208.27C1813.3,2207.45 1813.2,2206.61 1812.99,2205.81C1807.17,2184.63 1604.57,1981.65 1596.88,1982.09C1547.47,1984.9 1123.65,2007.05 1127.39,1976.99" style="fill:rgb(143,238,255);stroke:black;stroke-width:41.67px;"/>
        <path d="M5986.06,984.912C6042.52,989.457 6359.51,1013.25 6428.12,1015.93C6581.62,1021.94 6836.74,1005.08 6836.74,1005.08C6836.74,1005.08 6522.21,1323.53 6500.88,1352.81C6453.09,1418.42 6206.12,1641.47 6206.37,1642C6208.93,1647.45 6432.75,1870.17 6540.12,1951.95C6663.35,2045.81 6839.75,2224.36 6838.13,2224.36C6329.08,2224.36 5216.49,2239.67 5227.84,2226.04C5240.54,2210.81 5442.09,1960 5429.87,1975.12C5424.16,1982.18 5634.71,1983.84 5788.3,1989.13C5878.11,1992.22 5952.41,1981.28 5953.5,1980.62" style="fill:rgb(143,238,255);stroke:black;stroke-width:41.67px;"/>
        <path d="M1129.53,1984.38C1129.53,1984.38 1109.34,1583.11 1107.08,1503.79C1097.34,1161.52 1058.41,806.439 1071.31,464.538C1071.62,456.224 1067.88,422.832 1077.92,417.254C1111.62,398.533 1392.37,414.118 1429.54,415.299C1688.97,423.539 1942.96,401.023 2174.61,399.497C2519.74,397.224 2763.79,369.153 3108.96,372.84C3869.24,380.962 4311.13,400.956 5126.2,383.725C5321.05,379.605 5472.28,399.347 5606.63,399.147C5614.52,399.135 6000.31,396.317 5998.52,418.422C5994.37,469.652 5992.37,630.996 5990.73,694.774C5987.44,823.005 5981.21,1028.02 5984.18,1198.62C5987.15,1369.74 5978.44,1611.52 5975.21,1706.69C5974.03,1741.41 5962.83,1945.04 5957.06,1976.14C5952.79,1999.15 5521.82,1977.95 5515.62,1977.87C5256.97,1974.54 4816,1944.25 4270.9,1938.97C3912.67,1935.5 3480.5,1956.81 3127.47,1954.48C2809.14,1952.39 2479.64,1920.42 2161.63,1933.46C1991.27,1940.44 1297.52,2027.21 1129.53,1984.38Z" style="fill:rgb(197,246,255);stroke:black;stroke-width:41.67px;"/>
        <g transform="matrix(28.45,0,0,25.1506,-43408.6,-95202.1)">
            <text x="1606.16px" y="3845.49px" style="font-family:'Noteworthy-Light', 'Noteworthy';font-weight:300;font-size:33.134px;">Ex<tspan x="1640.12px 1651.39px 1660.42px 1675.37px " y="3845.49px 3845.49px 3845.49px 3845.49px ">tras</tspan></text>
        </g>
    </g>
    <g>
        <g transform="matrix(28.45,0,0,25.1506,-42689.2,-93376.4)">
            <text x="1612.96px" y="3845.49px" style="font-family:'Noteworthy-Bold', 'Noteworthy';font-weight:700;font-size:16.567px;">s<tspan x="1620.79px 1628.83px 1637.32px 1645.75px 1651.54px 1660.14px 1668.44px 1675.98px 1683.48px 1691.63px " y="3845.49px 3845.49px 3845.49px 3845.49px 3845.49px 3845.49px 3845.49px 3845.49px 3845.49px 3845.49px ">ubprocess </tspan>or</text>
            <text x="1606.16px" y="3863.48px" style="font-family:'Noteworthy-Bold', 'Noteworthy';font-weight:700;font-size:16.567px;">u<tspan x="1614.09px 1623.02px 1629.73px 1639.38px 1647.97px 1651.31px 1659.9px 1665.86px 1673.73px " y="3863.48px 3863.48px 3863.48px 3863.48px 3863.48px 3863.48px 3863.48px 3863.48px 3863.48px ">nexplored</tspan> a<tspan x="1694.73px 1700.69px 1708.25px " y="3863.48px 3863.48px 3863.48px ">rea</tspan></text>
        </g>
        <g id="process" transform="matrix(0.534438,-0.537466,0.510549,0.522721,-690.965,2559.87)">
            <g transform="matrix(-0.999577,0.0285207,-0.0282729,-0.999616,2883.57,6495.01)">
                <path d="M644.501,2566.08C644.501,2566.08 644.437,2562.62 644.501,2566.08C647.891,2748.29 649.891,2837.59 658.277,2976.31C663.918,3069.62 686.704,3200.57 685.517,3338.78C683.397,3585.43 702.337,4022.68 711.847,4026.46C731.534,4034.27 1256.76,4027.17 1275.54,4026.26C1444.97,4018.07 2152.22,4020.27 2162.99,4001.06C2169.9,3988.74 2139.54,3650.06 2138.34,3639.5C2129.56,3562.62 2102.73,3146.19 2108.11,3050.91C2112.74,2969.15 2076.54,2517.91 2069.94,2517.96C2033.46,2518.26 1256.82,2538.19 1228.23,2539.93C912.707,2559.18 1007.89,2566.08 644.501,2566.08Z" style="fill:rgb(194,96,255);stroke:black;stroke-width:56.33px;"/>
            </g>
            <g transform="matrix(0.671091,0.692552,-0.585589,0.660987,119.376,-3753.24)">
                <text x="5140.32px" y="4575.68px" style="font-family:'Noteworthy-Bold', 'Noteworthy';font-weight:700;font-size:432.908px;">pr<tspan x="5512.09px 5736.72px 5953.77px 6150.76px 6346.62px " y="4575.68px 4575.68px 4575.68px 4575.68px 4575.68px ">ocess</tspan></text>
            </g>
            <g transform="matrix(0.94394,0.970567,-0.92196,0.9651,3012.33,-1799.9)">
                <path d="M1549.02,3016.82C1549.01,3016.75 1546.63,3017.13 1546.44,3017.16C1541.33,3018.01 1684.02,3019.01 1710.06,3019.55C1781.15,3021.02 1779.65,3015.62 1850.79,3015.62" style="fill:none;stroke:black;stroke-width:24.78px;"/>
                <g transform="matrix(1,0,0,1,-8.26804,-18.7386)">
                    <path d="M1792.14,2967.88C1793.02,2967.19 1858.35,3021.42 1864,3038.36C1864.21,3038.98 1801.23,3089.12 1778.35,3100.56" style="fill:none;stroke:black;stroke-width:24.78px;"/>
                </g>
            </g>
            <g transform="matrix(0.94394,0.970567,-0.92196,0.9651,3012.33,-1799.9)">
                <g transform="matrix(1.00418,0,0,0.650488,5.62577,1086.1)">
                    <path d="M1839.08,3143C1842.89,3146.4 1721.37,3134.95 1692.86,3132.79C1620.13,3127.25 1602.82,3131.4 1535.69,3134.2" style="fill:none;stroke:black;stroke-width:29.29px;"/>
                </g>
                <path d="M1609.08,3056.38C1609.27,3056.27 1608.18,3056.68 1608.13,3056.7C1598.84,3061.13 1584.11,3075.68 1567.49,3087.86C1554.55,3097.35 1526.7,3126.45 1527.4,3127.35C1548,3153.64 1579.92,3171.6 1607.26,3187.64" style="fill:none;stroke:black;stroke-width:24.78px;"/>
            </g>
        </g>
        <g transform="matrix(0.425488,-0.212401,0.227349,0.455432,6206.14,3692.43)">
            <g transform="matrix(0.289914,0.493791,-0.405874,0.229518,1365.16,-2856.69)">
                <path d="M696.288,6124.04C787.985,6047.7 894.88,5969.8 990.77,5885.65C1091.05,5797.64 1199.6,5705.99 1301.06,5619.3C1372.17,5558.53 1448.82,5502.66 1522.54,5445.25C1583.04,5398.13 1667.84,5337.86 1738.33,5285" style="fill:none;stroke:rgb(255,9,0);stroke-width:139.94px;"/>
            </g>
            <g transform="matrix(0.288232,0.494737,-0.40707,0.227473,1314.28,-2709.09)">
                <path d="M635.072,6051.71C635.772,6052.55 636.085,6049.76 636.779,6048.92C644.825,6039.17 657.683,6032.28 667.806,6025.06C700.921,6001.45 732.106,5975.48 763.516,5949.68C834.798,5891.13 905.87,5832.51 975.559,5772.05C1201.98,5575.62 1430.16,5374.03 1678.62,5205.43" style="fill:rgb(255,0,16);stroke:rgb(255,11,0);stroke-width:140.07px;"/>
            </g>
        </g>
    </g>
    <g>
        <g transform="matrix(0.757339,0.0305092,-0.0400699,0.729583,1122.17,2486.82)">
            <g transform="matrix(-0.486185,0.0138722,-0.0203379,-0.719068,1752.6,5820.29)">
                <path d="M644.501,2566.08C644.501,2566.08 644.437,2562.62 644.501,2566.08C647.891,2748.29 649.891,2837.59 658.277,2976.31C663.918,3069.62 686.704,3200.57 685.517,3338.78C683.397,3585.43 702.337,4022.68 711.847,4026.46C731.534,4034.27 1256.76,4027.17 1275.54,4026.26C1444.97,4018.07 2152.22,4020.27 2162.99,4001.06C2169.9,3988.74 2139.54,3650.06 2138.34,3639.5C2129.56,3562.62 2102.73,3146.19 2108.11,3050.91C2112.74,2969.15 2076.54,2517.91 2069.94,2517.96C2033.46,2518.26 1256.82,2538.19 1228.23,2539.93C912.707,2559.18 1007.89,2566.08 644.501,2566.08Z" style="fill:rgb(63,227,67);stroke:black;stroke-width:92.35px;"/>
            </g>
            <g transform="matrix(1.3175,-0.0550942,0.072359,1.36762,-1656.88,-3557.48)">
                <path d="M1639.9,5118.61C1639.89,5118.62 1641.65,5117.78 1642.32,5117.59C1645.75,5116.64 1637.5,5135.09 1637.92,5125.98C1638.07,5122.53 1635.16,5128.53 1632.99,5126.78C1617.49,5114.3 1643.41,5102.52 1654.73,5106.42C1681.4,5115.59 1626.39,5141.69 1631.47,5113.95C1633.41,5103.36 1642.01,5093.53 1653.35,5093.37C1670.47,5093.14 1671.85,5112.16 1663.64,5123.16C1645.13,5147.95 1614.88,5093.45 1642.63,5104.9C1658.23,5111.33 1664.98,5141.67 1641.98,5141.35C1633.31,5141.22 1625.75,5133.09 1624.87,5124.75C1623.92,5115.67 1629.88,5107.53 1638.28,5104.53C1656.1,5098.17 1634.43,5139.12 1630.82,5119.82C1626.04,5094.33 1670.37,5094.47 1668.13,5117.14C1666.14,5137.42 1626.79,5129.69 1639.08,5106.34" style="fill:none;stroke:black;stroke-width:24.78px;"/>
            </g>
            <g transform="matrix(1.3175,-0.0550942,0.072359,1.36762,-1417.81,-3571.67)">
                <path d="M1639.9,5118.61C1639.89,5118.62 1641.65,5117.78 1642.32,5117.59C1645.75,5116.64 1637.5,5135.09 1637.92,5125.98C1638.07,5122.53 1635.16,5128.53 1632.99,5126.78C1617.49,5114.3 1643.41,5102.52 1654.73,5106.42C1681.4,5115.59 1626.39,5141.69 1631.47,5113.95C1633.41,5103.36 1642.01,5093.53 1653.35,5093.37C1670.47,5093.14 1671.85,5112.16 1663.64,5123.16C1645.13,5147.95 1614.88,5093.45 1642.63,5104.9C1658.23,5111.33 1664.98,5141.67 1641.98,5141.35C1633.31,5141.22 1625.75,5133.09 1624.87,5124.75C1623.92,5115.67 1629.88,5107.53 1638.28,5104.53C1656.1,5098.17 1634.43,5139.12 1630.82,5119.82C1626.04,5094.33 1670.37,5094.47 1668.13,5117.14C1666.14,5137.42 1626.79,5129.69 1639.08,5106.34" style="fill:none;stroke:black;stroke-width:24.78px;"/>
            </g>
            <g transform="matrix(1.3175,-0.0550942,0.072359,1.36762,-1656.88,-3557.48)">
                <path d="M1600.8,5275.99C1602.95,5301.63 1611.99,5337.59 1628.96,5356.29C1725.84,5463.07 1861.18,5402.76 1884.4,5277.34" style="fill:none;stroke:black;stroke-width:24.78px;"/>
            </g>
        </g>
        <g transform="matrix(0.918604,0,0,0.889407,1626.2,3017.12)">
            <text x="2526.36px" y="2890.25px" style="font-family:'Noteworthy-Bold', 'Noteworthy';font-weight:700;font-size:398.206px;">s<tspan x="2714.51px 2897.19px " y="2890.25px 2890.25px ">uc</tspan>ce<tspan x="3477.57px 3657.76px 3853.88px 3937px 4128.14px 4325.75px 4465.62px " y="2890.25px 2890.25px 2890.25px 2890.25px 2890.25px 2890.25px 2890.25px ">ss path</tspan></text>
        </g>
        <g transform="matrix(0.918604,0,0,0.889407,1615.85,2341.46)">
            <text x="2526.36px" y="2890.25px" style="font-family:'Noteworthy-Bold', 'Noteworthy';font-weight:700;font-size:398.206px;">v<tspan x="2697.59px 2918.09px 2998.23px " y="2890.25px 2890.25px 2890.25px ">alu</tspan>e r<tspan x="3596.54px 3778.22px 3996.23px 4195.84px " y="2890.25px 2890.25px 2890.25px 2890.25px ">each</tspan>ed</text>
        </g>
        <g transform="matrix(0.918604,0,0,0.889407,59.8754,2622.97)">
            <text x="2526.36px" y="2890.25px" style="font-family:'Noteworthy-Bold', 'Noteworthy';font-weight:700;font-size:398.206px;">ha<tspan x="2932.53px 3135.12px " y="2890.25px 2890.25px ">pp</tspan>y</text>
        </g>
        <g>
            <g transform="matrix(1,0,0,1,228.729,-2770.04)">
                <path d="M3239.8,7831.17C3246.13,7823.61 3297.02,7751.6 3304.7,7743.54C3388.29,7655.8 3492.66,7628.48 3608.53,7620.76" style="fill:none;stroke:black;stroke-width:36.84px;"/>
            </g>
            <g transform="matrix(1,0,0,1,228.729,-2770.04)">
                <path d="M3525.45,7534.45C3531.66,7540.66 3550.55,7559.49 3556.89,7566.22C3572.84,7583.16 3611.16,7617.39 3612.66,7619.52C3612.96,7619.96 3576.24,7668.62 3573.53,7671.76C3555.99,7692.09 3535.82,7713.77 3527.35,7720.86" style="fill:none;stroke:black;stroke-width:36.84px;"/>
            </g>
        </g>
        <g>
            <g transform="matrix(0.869396,0,0,0.949029,650.832,-2363.11)">
                <path d="M3231.93,7983.48C3233.54,7992.06 3237.71,8022.76 3241.08,8036.82C3253.7,8088.81 3286.94,8137.97 3322.06,8178.17C3382.01,8246.79 3472.41,8264.36 3548.26,8271.09C3571.81,8273.17 3617.28,8275.47 3646.32,8277.95" style="fill:none;stroke:black;stroke-width:40.48px;"/>
            </g>
            <g transform="matrix(1,0,0,1,176.265,-2790.41)">
                <path d="M3577.94,8204.96C3576.29,8206.82 3618.25,8235.2 3624,8239.82C3635.52,8249.06 3675.18,8270 3677.03,8282.93C3677.36,8285.23 3632.22,8318.41 3630.94,8319.49C3595.07,8349.68 3601.82,8340.48 3582.73,8360.33" style="fill:none;stroke:black;stroke-width:36.84px;"/>
            </g>
        </g>
    </g>
    <g>
        <g id="some-flow" serif:id="some flow" transform="matrix(0.0859445,0.450571,-1.96651,0.345421,8573.97,6049.43)">
            <g transform="matrix(-0.486185,0.0138722,-0.0203379,-0.719068,1752.6,5820.29)">
                <path d="M628.877,2495.38C628.877,2495.38 644.437,2562.62 644.501,2566.08C647.891,2748.29 649.891,2837.59 658.277,2976.31C663.918,3069.62 686.704,3200.57 685.517,3338.78C683.397,3585.43 702.337,4022.68 711.847,4026.46C731.534,4034.27 1256.76,4027.17 1275.54,4026.26C1444.97,4018.07 2114.54,4061.79 2125.32,4042.58C2132.23,4030.26 2139.54,3650.06 2138.34,3639.5C2129.56,3562.62 2102.73,3146.19 2108.11,3050.91C2112.74,2969.15 2076.33,2517.77 2069.94,2517.96C1910.05,2522.73 1365.11,2534.42 1334.06,2532.68C1169.08,2523.44 823.708,2497.03 628.877,2495.38Z" style="fill:rgb(251,255,209);stroke:black;stroke-width:41.39px;"/>
            </g>
            <g transform="matrix(-0.0345759,-0.460128,1.93891,-0.00118531,-4274.57,4923.47)">
                <text x="2526.36px" y="2890.25px" style="font-family:'Noteworthy-Bold', 'Noteworthy';font-weight:700;font-size:281.086px;">s<tspan x="2661.98px 2807.8px 3010.88px " y="2890.25px 2890.25px 2890.25px ">ome</tspan></text>
                <text x="3203.07px" y="2890.25px" style="font-family:'Noteworthy-Bold', 'Noteworthy';font-weight:700;font-size:281.086px;">f</text>
                <text x="3329px" y="2890.25px" style="font-family:'Noteworthy-Bold', 'Noteworthy';font-weight:700;font-size:281.086px;">low</text>
            </g>
        </g>
        <g transform="matrix(0.918604,5.55112e-17,2.77556e-17,0.889407,1182.22,5218.87)">
            <text x="2526.36px" y="2890.25px" style="font-family:'Noteworthy-Bold', 'Noteworthy';font-weight:700;font-size:468.477px;">g<tspan x="2774.07px 2938.03px 3193.35px 3422.32px 3660.66px 3758.45px 3987.42px " y="2890.25px 2890.25px 2890.25px 2890.25px 2890.25px 2890.25px 2890.25px ">roup of</tspan></text>
            <text x="4272.61px" y="2890.25px" style="font-family:'Noteworthy-Bold', 'Noteworthy';font-weight:700;font-size:468.477px;">f</text>
            <text x="4488.57px" y="2890.25px" style="font-family:'Noteworthy-Bold', 'Noteworthy';font-weight:700;font-size:468.477px;">low</text>
        </g>
    </g>
    <g>
        <g id="pivot" transform="matrix(0.464083,0.0293646,-0.127012,1.62938,1765.94,3415.2)">
            <g transform="matrix(-0.486185,0.0138722,-0.0203379,-0.719068,1752.6,5820.29)">
                <path d="M628.877,2495.38C628.877,2495.38 644.437,2562.62 644.501,2566.08C647.891,2748.29 649.891,2837.59 658.277,2976.31C663.918,3069.62 686.704,3200.57 685.517,3338.78C683.397,3585.43 702.337,4022.68 711.847,4026.46C731.534,4034.27 1256.76,4027.17 1275.54,4026.26C1444.97,4018.07 2114.54,4061.79 2125.32,4042.58C2132.23,4030.26 2139.54,3650.06 2138.34,3639.5C2129.56,3562.62 2102.73,3146.19 2108.11,3050.91C2112.74,2969.15 2076.33,2517.77 2069.94,2517.96C1910.05,2522.73 1365.11,2534.42 1334.06,2532.68C1169.08,2523.44 823.708,2497.03 628.877,2495.38Z" style="fill:rgb(251,255,209);stroke:black;stroke-width:50.24px;"/>
            </g>
            <g transform="matrix(2.2824,-0.00648427,0.0543415,0.628927,-5046.24,1241.63)">
                <text x="2527.3px" y="2890.25px" style="font-family:'Noteworthy-Bold', 'Noteworthy';font-weight:700;font-size:187.391px;">p</text>
                <text x="2555.87px" y="3099.19px" style="font-family:'Noteworthy-Bold', 'Noteworthy';font-weight:700;font-size:187.391px;">i</text>
                <text x="2529.29px" y="3222.87px" style="font-family:'Noteworthy-Bold', 'Noteworthy';font-weight:700;font-size:187.391px;">v</text>
                <text x="2526.36px" y="3344.67px" style="font-family:'Noteworthy-Bold', 'Noteworthy';font-weight:700;font-size:187.391px;">o</text>
                <text x="2540.18px" y="3501.61px" style="font-family:'Noteworthy-Bold', 'Noteworthy';font-weight:700;font-size:187.391px;">t</text>
            </g>
        </g>
        <g transform="matrix(0.918604,0,0,0.889407,837.474,6555.8)">
            <text x="2526.36px" y="2890.25px" style="font-family:'Noteworthy-Bold', 'Noteworthy';font-weight:700;font-size:398.206px;">p<tspan x="2733.92px 2807.09px 2993.25px 3179.41px 3327.25px 3410.38px 3591.56px 3773.74px 3962.89px 4154.52px 4282.44px " y="2890.25px 2890.25px 2890.25px 2890.25px 2890.25px 2890.25px 2890.25px 2890.25px 2890.25px 2890.25px 2890.25px ">ivot events</tspan></text>
        </g>
        <g transform="matrix(0.918604,0,0,0.889407,681.754,7018.89)">
            <text x="2526.36px" y="2890.25px" style="font-family:'Noteworthy-Bold', 'Noteworthy';font-weight:700;font-size:398.206px;">f<tspan x="2661.25px 2867.82px " y="2890.25px 2890.25px ">or</tspan> deno<tspan x="3898.67px 4046.51px " y="2890.25px 2890.25px ">ti</tspan>ng bo<tspan x="5046.5px 5237.14px 5449.19px 5638.83px 5859.34px 6018.62px 6091.79px " y="2890.25px 2890.25px 2890.25px 2890.25px 2890.25px 2890.25px 2890.25px ">undarie</tspan>s</text>
        </g>
        <g transform="matrix(0.918604,0,0,0.889407,3249.5,6563.9)">
            <text x="2526.36px" y="2890.25px" style="font-family:'Noteworthy-Bold', 'Noteworthy';font-weight:700;font-size:398.206px;">u<tspan x="2705.05px 2893.2px 3082.35px 3225.71px 3416.35px " y="2890.25px 2890.25px 2890.25px 2890.25px 2890.25px ">seful</tspan></text>
        </g>
        <g id="event" transform="matrix(0.871588,0,0,0.871588,-3660.51,3875.38)">
            <g transform="matrix(-0.920292,-0.0640214,0.0598638,-0.860529,7279.15,9522.91)">
                <path d="M651.314,2500.39C651.314,2500.39 668.714,2853.12 665.532,2971.42C661.814,3109.67 663.326,3280.94 688.028,3584.85C708.019,3830.8 702.337,4022.68 711.847,4026.46C731.534,4034.27 1256.76,4027.17 1275.54,4026.26C1444.97,4018.07 2079.08,4002.12 2089.86,3982.91C2096.76,3970.59 2081.92,3650.22 2086.81,3551.64C2094.26,3401.49 2072.93,3184.57 2072.36,2957.18C2072.28,2925.46 2019.86,2498.22 2013.27,2498.27C1976.78,2498.57 1668.8,2498.44 1640.16,2497.21C1269.11,2481.31 1014.7,2500.39 651.314,2500.39Z" style="fill:rgb(255,180,0);stroke:black;stroke-width:53.53px;"/>
            </g>
            <g transform="matrix(0.994717,0.0425102,-0.042697,0.999088,354.569,232.94)">
                <text x="5741.89px" y="6266.63px" style="font-family:'Noteworthy-Bold', 'Noteworthy';font-weight:700;font-size:382.444px;">e<tspan x="5915.92px 6090.89px 6272.59px 6456.61px " y="6266.63px 6266.63px 6266.63px 6266.63px ">vent</tspan></text>
            </g>
        </g>
        <g>
            <g transform="matrix(0.668122,0,0,0.688473,1655.7,2799.5)">
                <path d="M5161.17,9054.32C5161.07,9054.45 5166.76,9054.56 5167.23,9054.55C5180.19,9054.1 5193.13,9053.4 5206.09,9053.06C5236.67,9052.27 5267.22,9050.94 5297.8,9050.27C5390.36,9048.26 5483.24,9047.23 5575.82,9047.23" style="fill:none;stroke:black;stroke-width:54.31px;"/>
            </g>
            <g transform="matrix(0.668122,0,0,0.688473,1655.7,2799.5)">
                <path d="M5465.16,8924.3C5477.94,8935.01 5517.66,8976.53 5530.84,8988.34C5550.84,9006.26 5596.75,9045.44 5595.64,9049.89C5595.4,9050.84 5593.19,9051.07 5592.6,9051.57C5564.43,9075.19 5547.05,9085.49 5519.1,9105.46C5496.29,9121.76 5478.14,9137.92 5447.85,9156.49" style="fill:none;stroke:black;stroke-width:54.31px;"/>
            </g>
        </g>
    </g>
    <g>
        <g transform="matrix(0.757339,0.0305092,-0.0400699,0.729583,1155.86,3884.65)">
            <g transform="matrix(-0.486185,0.0138722,-0.0203379,-0.719068,1752.6,5820.29)">
                <path d="M644.501,2566.08C644.501,2566.08 644.437,2562.62 644.501,2566.08C647.891,2748.29 649.891,2837.59 658.277,2976.31C663.918,3069.62 686.704,3200.57 685.517,3338.78C683.397,3585.43 702.337,4022.68 711.847,4026.46C731.534,4034.27 1256.76,4027.17 1275.54,4026.26C1444.97,4018.07 2152.22,4020.27 2162.99,4001.06C2169.9,3988.74 2139.54,3650.06 2138.34,3639.5C2129.56,3562.62 2102.73,3146.19 2108.11,3050.91C2112.74,2969.15 2076.54,2517.91 2069.94,2517.96C2033.46,2518.26 1256.82,2538.19 1228.23,2539.93C912.707,2559.18 1007.89,2566.08 644.501,2566.08Z" style="fill:rgb(227,99,63);stroke:black;stroke-width:92.35px;"/>
            </g>
            <g transform="matrix(1.3175,-0.0550942,0.072359,1.36762,-1656.88,-3557.48)">
                <path d="M1639.9,5118.61C1639.89,5118.62 1641.65,5117.78 1642.32,5117.59C1645.75,5116.64 1637.5,5135.09 1637.92,5125.98C1638.07,5122.53 1635.16,5128.53 1632.99,5126.78C1617.49,5114.3 1643.41,5102.52 1654.73,5106.42C1681.4,5115.59 1626.39,5141.69 1631.47,5113.95C1633.41,5103.36 1642.01,5093.53 1653.35,5093.37C1670.47,5093.14 1671.85,5112.16 1663.64,5123.16C1645.13,5147.95 1614.88,5093.45 1642.63,5104.9C1658.23,5111.33 1664.98,5141.67 1641.98,5141.35C1633.31,5141.22 1625.75,5133.09 1624.87,5124.75C1623.92,5115.67 1629.88,5107.53 1638.28,5104.53C1656.1,5098.17 1634.43,5139.12 1630.82,5119.82C1626.04,5094.33 1670.37,5094.47 1668.13,5117.14C1666.14,5137.42 1626.79,5129.69 1639.08,5106.34" style="fill:none;stroke:black;stroke-width:24.78px;"/>
            </g>
            <g transform="matrix(1.3175,-0.0550942,0.072359,1.36762,-1417.81,-3571.67)">
                <path d="M1639.9,5118.61C1639.89,5118.62 1641.65,5117.78 1642.32,5117.59C1645.75,5116.64 1637.5,5135.09 1637.92,5125.98C1638.07,5122.53 1635.16,5128.53 1632.99,5126.78C1617.49,5114.3 1643.41,5102.52 1654.73,5106.42C1681.4,5115.59 1626.39,5141.69 1631.47,5113.95C1633.41,5103.36 1642.01,5093.53 1653.35,5093.37C1670.47,5093.14 1671.85,5112.16 1663.64,5123.16C1645.13,5147.95 1614.88,5093.45 1642.63,5104.9C1658.23,5111.33 1664.98,5141.67 1641.98,5141.35C1633.31,5141.22 1625.75,5133.09 1624.87,5124.75C1623.92,5115.67 1629.88,5107.53 1638.28,5104.53C1656.1,5098.17 1634.43,5139.12 1630.82,5119.82C1626.04,5094.33 1670.37,5094.47 1668.13,5117.14C1666.14,5137.42 1626.79,5129.69 1639.08,5106.34" style="fill:none;stroke:black;stroke-width:24.78px;"/>
            </g>
            <g transform="matrix(-1.31745,0.0560549,-0.0732845,-1.36758,3713.05,10864.9)">
                <path d="M1600.8,5275.99C1602.95,5301.63 1611.99,5337.59 1628.96,5356.29C1725.84,5463.07 1861.18,5402.76 1884.4,5277.34" style="fill:none;stroke:black;stroke-width:24.78px;"/>
            </g>
        </g>
        <g transform="matrix(0.918604,0,0,0.889407,449.539,3951.48)">
            <text x="2526.36px" y="2890.25px" style="font-family:'Noteworthy-Bold', 'Noteworthy';font-weight:700;font-size:398.206px;">s<tspan x="2718.49px 2936.51px " y="2890.25px 2890.25px ">ad</tspan></text>
        </g>
        <g transform="matrix(0.918604,0,0,0.889407,1642.16,3641.07)">
            <text x="2526.36px" y="2890.25px" style="font-family:'Noteworthy-Bold', 'Noteworthy';font-weight:700;font-size:398.206px;">v<tspan x="2697.59px 2918.09px 2998.23px " y="2890.25px 2890.25px 2890.25px ">alu</tspan>e no<tspan x="3851.39px 3999.22px 4082.35px 4225.7px 4407.38px 4625.4px 4825px " y="2890.25px 2890.25px 2890.25px 2890.25px 2890.25px 2890.25px 2890.25px ">t reach</tspan>ed</text>
        </g>
        <g transform="matrix(0.918604,0,0,0.889407,1652.51,4316.73)">
            <text x="2526.36px" y="2890.25px" style="font-family:'Noteworthy-Bold', 'Noteworthy';font-weight:700;font-size:398.206px;">f<tspan x="2649.3px 2869.81px 2950.95px 3031.08px 3225.71px 3369.06px 3558.21px 3641.33px 3832.47px 4030.08px 4169.95px " y="2890.25px 2890.25px 2890.25px 2890.25px 2890.25px 2890.25px 2890.25px 2890.25px 2890.25px 2890.25px 2890.25px ">ailure path</tspan></text>
        </g>
        <g>
            <g transform="matrix(1,0,0,1,255.04,-1470.42)">
                <path d="M3239.8,7831.17C3246.13,7823.61 3297.02,7751.6 3304.7,7743.54C3388.29,7655.8 3492.66,7628.48 3608.53,7620.76" style="fill:none;stroke:black;stroke-width:36.84px;"/>
            </g>
            <g transform="matrix(1,0,0,1,255.04,-1470.42)">
                <path d="M3525.45,7534.45C3531.66,7540.66 3550.55,7559.49 3556.89,7566.22C3572.84,7583.16 3611.16,7617.39 3612.66,7619.52C3612.96,7619.96 3576.24,7668.62 3573.53,7671.76C3555.99,7692.09 3535.82,7713.77 3527.35,7720.86" style="fill:none;stroke:black;stroke-width:36.84px;"/>
            </g>
        </g>
        <g>
            <g transform="matrix(0.869396,0,0,0.949029,677.142,-1063.5)">
                <path d="M3231.93,7983.48C3233.54,7992.06 3237.71,8022.76 3241.08,8036.82C3253.7,8088.81 3286.94,8137.97 3322.06,8178.17C3382.01,8246.79 3472.41,8264.36 3548.26,8271.09C3571.81,8273.17 3617.28,8275.47 3646.32,8277.95" style="fill:none;stroke:black;stroke-width:40.48px;"/>
            </g>
            <g transform="matrix(1,0,0,1,202.575,-1490.79)">
                <path d="M3577.94,8204.96C3576.29,8206.82 3618.25,8235.2 3624,8239.82C3635.52,8249.06 3675.18,8270 3677.03,8282.93C3677.36,8285.23 3632.22,8318.41 3630.94,8319.49C3595.07,8349.68 3601.82,8340.48 3582.73,8360.33" style="fill:none;stroke:black;stroke-width:36.84px;"/>
            </g>
        </g>
    </g>
</svg>
