<?xml version="1.0" encoding="UTF-8" standalone="no"?>
<!DOCTYPE svg PUBLIC "-//W3C//DTD SVG 1.1//EN" "http://www.w3.org/Graphics/SVG/1.1/DTD/svg11.dtd">
<svg width="100%" height="100%" viewBox="0 0 10800 7200" version="1.1" xmlns="http://www.w3.org/2000/svg" xmlns:xlink="http://www.w3.org/1999/xlink" xml:space="preserve" xmlns:serif="http://www.serif.com/" style="fill-rule:evenodd;clip-rule:evenodd;stroke-linecap:round;stroke-linejoin:round;stroke-miterlimit:1.5;">
    <g id="Banner" transform="matrix(0.768094,-0.210185,0.210185,0.768094,-260.518,1094.7)">
        <path d="M1074.05,1083.46C1040.17,1073.94 924.442,1073.86 750.089,1086.67C540.76,1102.04 259.278,1067.41 258.464,1069.6C251.38,1088.69 449.985,1265.83 608.588,1370.11C757.873,1468.27 924.35,1610.93 928.889,1623.95C943.484,1665.78 220.486,2209.5 262.803,2295.76C266.656,2303.61 646.78,2263.46 824.536,2250.89C1128.23,2229.41 1434.02,2212.58 1738.58,2214.91C1746.78,2214.97 1811.25,2222.18 1813.19,2208.27C1813.3,2207.45 1813.2,2206.61 1812.99,2205.81C1807.17,2184.63 1604.57,1981.65 1596.88,1982.09C1547.47,1984.9 1123.65,2007.05 1127.39,1976.99" style="fill:rgb(143,238,255);stroke:black;stroke-width:52.32px;"/>
        <path d="M5986.06,984.912C6042.52,989.457 6359.51,1013.25 6428.12,1015.93C6581.62,1021.94 6836.74,1005.08 6836.74,1005.08C6836.74,1005.08 6522.21,1323.53 6500.88,1352.81C6453.09,1418.42 6206.12,1641.47 6206.37,1642C6208.93,1647.45 6432.75,1870.17 6540.12,1951.95C6663.35,2045.81 6839.75,2224.36 6838.13,2224.36C6329.08,2224.36 5216.49,2239.67 5227.84,2226.04C5240.54,2210.81 5442.09,1960 5429.87,1975.12C5424.16,1982.18 5634.71,1983.84 5788.3,1989.13C5878.11,1992.22 5952.41,1981.28 5953.5,1980.62" style="fill:rgb(143,238,255);stroke:black;stroke-width:52.32px;"/>
        <path d="M1129.53,1984.38C1129.53,1984.38 1109.34,1583.11 1107.08,1503.79C1097.34,1161.52 1058.41,806.439 1071.31,464.538C1071.62,456.224 1067.88,422.832 1077.92,417.254C1111.62,398.533 1392.37,414.118 1429.54,415.299C1688.97,423.539 1942.96,401.023 2174.61,399.497C2519.74,397.224 2763.79,369.153 3108.96,372.84C3869.24,380.962 4311.13,400.956 5126.2,383.725C5321.05,379.605 5472.28,399.347 5606.63,399.147C5614.52,399.135 6000.31,396.317 5998.52,418.422C5994.37,469.652 5992.37,630.996 5990.73,694.774C5987.44,823.005 5981.21,1028.02 5984.18,1198.62C5987.15,1369.74 5978.44,1611.52 5975.21,1706.69C5974.03,1741.41 5962.83,1945.04 5957.06,1976.14C5952.79,1999.15 5521.82,1977.95 5515.62,1977.87C5256.97,1974.54 4816,1944.25 4270.9,1938.97C3912.67,1935.5 3480.5,1956.81 3127.47,1954.48C2809.14,1952.39 2479.64,1920.42 2161.63,1933.46C1991.27,1940.44 1297.52,2027.21 1129.53,1984.38Z" style="fill:rgb(197,246,255);stroke:black;stroke-width:52.32px;"/>
        <g transform="matrix(28.45,0,0,25.1506,-43077,-95205.5)">
            <text x="1606.16px" y="3845.49px" style="font-family:'Noteworthy-Light', 'Noteworthy';font-weight:300;font-size:33.134px;">Flow</text>
        </g>
    </g>
    <g id="command" transform="matrix(0.781315,0.0182552,-0.0275513,0.717554,1128.54,1939.46)">
        <g transform="matrix(-0.99964,0.0268126,-0.0268126,-0.99964,2878.88,6497.48)">
            <path d="M644.501,2566.08C644.501,2566.08 643.335,2547.4 644.501,2566.08C663.49,2870.38 688.47,2995.12 685.517,3338.78C683.397,3585.43 702.337,4022.68 711.847,4026.46C731.534,4034.27 1256.76,4027.17 1275.54,4026.26C1444.97,4018.07 2152.22,4020.27 2162.99,4001.06C2169.9,3988.74 2139.54,3650.06 2138.34,3639.5C2129.56,3562.62 2102.73,3146.19 2108.11,3050.91C2112.74,2969.15 2076.54,2517.91 2069.94,2517.96C2033.46,2518.26 1674.09,2527.02 1645.5,2528.77C1329.97,2548.01 1007.89,2566.08 644.501,2566.08Z" style="fill:rgb(0,173,255);stroke:black;stroke-width:55.81px;"/>
        </g>
        <g transform="matrix(0.918483,-0.059995,0.0618294,0.920456,-4251.38,-493.424)">
            <text x="5143.42px" y="4575.68px" style="font-family:'Noteworthy-Bold', 'Noteworthy';font-weight:700;font-size:349.103px;">com<tspan x="5756.69px 6003.27px 6194.47px 6380.41px " y="4575.68px 4575.68px 4575.68px 4575.68px ">mand</tspan></text>
        </g>
    </g>
    <g>
        <g transform="matrix(0.524724,0.492662,-0.454024,0.48178,790.966,-1648.78)">
            <text x="5506.72px" y="4575.68px" style="font-family:'Noteworthy-Bold', 'Noteworthy';font-weight:700;font-size:220.291px;">in<tspan x="5664.54px 5767.53px 5881.84px 5981.48px 6081.72px " y="4575.68px 4575.68px 4575.68px 4575.68px 4575.68px ">vokes</tspan></text>
        </g>
        <g>
            <g transform="matrix(1.03111,0,0,1.02422,-223.876,-173.768)">
                <path d="M1755.66,3486.03C1755.73,3485.58 1763.5,3488.56 1763.83,3488.69C1780,3495.22 1794.91,3505.49 1809.04,3515.55C1823.73,3526.01 1837.84,3537.43 1850.88,3549.9C1904.25,3600.97 1946.28,3686.72 1946.28,3761.96" style="fill:none;stroke:black;stroke-width:35.85px;"/>
            </g>
            <g transform="matrix(1.03111,0,0,1.02422,-223.876,-173.768)">
                <path d="M1849.15,3689.08C1851.73,3697.98 1943.47,3777.78 1952.21,3770.8C1978.56,3749.75 1979.37,3732.85 2011.47,3665.26" style="fill:none;stroke:black;stroke-width:35.85px;"/>
            </g>
        </g>
    </g>
    <g>
        <g transform="matrix(0.551335,-0.462689,0.424623,0.507883,-17.1083,5623.44)">
            <text x="5395.67px" y="4575.68px" style="font-family:'Noteworthy-Bold', 'Noteworthy';font-weight:700;font-size:220.291px;">gen<tspan x="5731.15px 5835.82px 5909.02px 6018.33px 6093.51px 6193.75px " y="4575.68px 4575.68px 4575.68px 4575.68px 4575.68px 4575.68px ">erates</tspan></text>
        </g>
        <g>
            <g transform="matrix(1.03111,0,0,1.02422,-264.009,-159.37)">
                <path d="M4928.14,5270.26C4925.52,5269.35 4941.32,5271.25 4945.21,5270.73C4958.34,5268.95 4971.42,5266.31 4984.34,5263.39C5025.45,5254.11 5063.61,5237.83 5098.01,5213.38C5184.54,5151.87 5217.67,5024.98 5207.55,4923.78" style="fill:none;stroke:black;stroke-width:35.85px;"/>
            </g>
            <g transform="matrix(1.03111,0,0,1.02422,-264.009,-159.37)">
                <path d="M5103.81,5034.11C5116.03,5021.27 5142.32,4984.5 5148.52,4976.41C5172.49,4945.15 5190.45,4913.37 5213.37,4910.82C5231.62,4908.78 5262.35,4958.47 5277.69,4981.78C5301.02,5017.24 5301.31,5019.35 5321.48,5048.51" style="fill:none;stroke:black;stroke-width:35.85px;"/>
            </g>
        </g>
    </g>
    <g>
        <g transform="matrix(0.719318,-0.025152,0.0219085,0.661642,1860.37,803.425)">
            <text x="5486.53px" y="4575.68px" style="font-family:'Noteworthy-Bold', 'Noteworthy';font-weight:700;font-size:220.291px;">tri<tspan x="5696.97px 5809.07px " y="4575.68px 4575.68px ">gg</tspan>er<tspan x="6102.09px " y="4575.68px ">s</tspan></text>
        </g>
        <g>
            <g transform="matrix(1.03111,0,0,1.02422,-2401.78,-170.206)">
                <path d="M7892.73,3752.49C7935.41,3715.29 8055.29,3642.11 8126.55,3620.48C8353.19,3551.68 8582.96,3611.85 8777.88,3737.97" style="fill:none;stroke:black;stroke-width:35.85px;"/>
            </g>
            <g transform="matrix(1.2607,0,0,1.08871,-4408.4,-424.856)">
                <path d="M8765.32,3610.36C8764.36,3605.77 8776.41,3670.16 8778.15,3682.57C8780.04,3696.09 8791.81,3752.59 8789.12,3759.98C8787.19,3765.3 8740.27,3772.11 8726.24,3772.42C8724.32,3772.46 8689.42,3772.96 8656.96,3776.92" style="fill:none;stroke:black;stroke-width:31.28px;"/>
            </g>
        </g>
    </g>
    <g>
        <g transform="matrix(0.719318,-0.025152,0.0219085,0.661642,4061.71,810.916)">
            <text x="5506.72px" y="4575.68px" style="font-family:'Noteworthy-Bold', 'Noteworthy';font-weight:700;font-size:220.291px;">in<tspan x="5664.54px 5767.53px 5881.84px 5981.48px 6081.72px " y="4575.68px 4575.68px 4575.68px 4575.68px 4575.68px ">vokes</tspan></text>
        </g>
        <g>
            <g transform="matrix(1.03111,0,0,1.02422,-223.876,-173.768)">
                <path d="M7892.73,3752.49C7935.41,3715.29 8055.29,3642.11 8126.55,3620.48C8353.19,3551.68 8582.96,3611.85 8777.88,3737.97" style="fill:none;stroke:black;stroke-width:35.85px;"/>
            </g>
            <g transform="matrix(1.2607,0,0,1.08871,-2230.5,-428.419)">
                <path d="M8765.32,3610.36C8764.36,3605.77 8776.41,3670.16 8778.15,3682.57C8780.04,3696.09 8791.81,3752.59 8789.12,3759.98C8787.19,3765.3 8740.27,3772.11 8726.24,3772.42C8724.32,3772.46 8689.42,3772.96 8656.96,3776.92" style="fill:none;stroke:black;stroke-width:31.28px;"/>
            </g>
        </g>
    </g>
    <g>
        <g transform="matrix(0.546515,0.468372,-0.43172,0.501864,7988.29,-2004.65)">
            <text x="5709.07px" y="4575.68px" style="font-family:'Noteworthy-Bold', 'Noteworthy';font-weight:700;font-size:220.291px;">f<tspan x="5783.66px 5897.97px " y="4575.68px 4575.68px ">or</tspan></text>
        </g>
        <g>
            <g transform="matrix(1.03111,0,0,1.02422,-223.876,-173.768)">
                <path d="M9249.81,2862.44C9246.82,2874.88 9237.58,2915.66 9235.72,2931.19C9232.36,2959.16 9229.11,2972.11 9234.83,2999.83C9254,3092.86 9350.31,3109.74 9432.19,3119.9" style="fill:none;stroke:black;stroke-width:35.85px;"/>
            </g>
            <g transform="matrix(1.03111,0,0,1.02422,-223.876,-173.768)">
                <path d="M9324.47,3185.02C9324.3,3184.79 9382.28,3162.2 9383.16,3161.75C9394.21,3156.05 9442.21,3137.27 9442.94,3135.85C9447.7,3126.61 9417.99,3079.94 9411.88,3069.93C9408.06,3063.67 9390.28,3031.51 9385.9,3023.95" style="fill:none;stroke:black;stroke-width:35.85px;"/>
            </g>
        </g>
    </g>
    <g>
        <g transform="matrix(0.716616,-0.0952632,0.0860204,0.656392,1298.29,732.684)">
            <g transform="matrix(0.995625,0,0,1,23.54,0)">
                <text x="5380.58px" y="4575.68px" style="font-family:'Noteworthy-Bold', 'Noteworthy';font-weight:700;font-size:220.291px;">tr<tspan x="5535.6px 5656.25px 5773.58px 5882.1px 5924.25px 6033.56px 6108.73px 6208.97px " y="4575.68px 4575.68px 4575.68px 4575.68px 4575.68px 4575.68px 4575.68px 4575.68px ">anslates</tspan></text>
            </g>
            <g transform="matrix(0.995625,0,0,1,25.1727,0)">
                <text x="5753.76px" y="4768.59px" style="font-family:'Noteworthy-Bold', 'Noteworthy';font-weight:700;font-size:220.291px;">t<tspan x="5826.72px " y="4768.59px ">o</tspan></text>
            </g>
        </g>
        <g>
            <g transform="matrix(1.03111,0,0,1.02422,-223.876,-173.768)">
                <path d="M5496.87,3730.07C5493.39,3661.61 5490.39,3560.35 5495.86,3497.05C5516.1,3262.6 5577.43,2984.59 5797.61,2852.48" style="fill:none;stroke:black;stroke-width:35.85px;"/>
            </g>
            <g transform="matrix(1.03111,0,0,1.02422,-223.876,-173.768)">
                <path d="M5634.99,2836.05C5651.87,2835.36 5783.47,2820.62 5822.64,2833.67C5824.53,2834.3 5794.75,2953.25 5796.65,3008.4" style="fill:none;stroke:black;stroke-width:35.85px;"/>
            </g>
        </g>
    </g>
    <g id="command1" serif:id="command" transform="matrix(0.778776,0.0651325,-0.0711651,0.714588,8238.97,1892.65)">
        <g transform="matrix(-0.99964,0.0268126,-0.0268126,-0.99964,2878.88,6497.48)">
            <path d="M644.501,2566.08C644.501,2566.08 643.335,2547.4 644.501,2566.08C663.49,2870.38 650.89,2988.82 685.517,3338.78C709.813,3584.33 702.337,4022.68 711.847,4026.46C731.534,4034.27 1256.76,4027.17 1275.54,4026.26C1444.97,4018.07 2152.22,4020.27 2162.99,4001.06C2169.9,3988.74 2138.15,3650.12 2138.34,3639.5C2139.85,3553.48 2117.68,3151.21 2108.11,3050.91C2100.34,2969.39 2076.54,2517.91 2069.94,2517.96C2033.46,2518.26 1674.13,2530.39 1645.5,2528.77C1318.08,2510.15 1007.89,2566.08 644.501,2566.08Z" style="fill:rgb(0,173,255);stroke:black;stroke-width:55.83px;"/>
        </g>
        <g transform="matrix(0.918483,-0.059995,0.0618294,0.920456,-4251.38,-493.424)">
            <text x="5143.42px" y="4575.68px" style="font-family:'Noteworthy-Bold', 'Noteworthy';font-weight:700;font-size:349.103px;">com<tspan x="5756.69px 6003.27px 6194.47px 6380.41px " y="4575.68px 4575.68px 4575.68px 4575.68px ">mand</tspan></text>
        </g>
    </g>
    <g id="aggregate" transform="matrix(0.851297,0,0,0.845607,2594.38,574.376)">
        <g transform="matrix(1.49466,0,0,0.801091,-610.247,707.067)">
            <path d="M596.341,2509.6C596.341,2509.6 595.29,2500.93 596.456,2519.61C615.445,2823.92 610.007,3064.77 621.044,3371.47C630.754,3641.26 633.741,4005.16 638.329,4025.96C645.989,4060.69 1455.42,4027.24 1474.21,4026.33C1643.64,4018.13 2073.18,4056.77 2072.07,4029.04C2070.9,3999.77 2059.4,3291.64 2052.88,3196.31C2050.72,3164.66 2040.11,2508.86 2033.51,2508.91C1997.03,2509.21 1445.46,2519.92 1219.22,2511.85C848.143,2498.6 959.731,2509.6 596.341,2509.6Z" style="fill:rgb(255,248,47);stroke:black;stroke-width:40.88px;"/>
        </g>
        <g transform="matrix(0.54244,0,0,0.525199,1008.46,1636.31)">
            <text x="-1026.85px" y="3521.83px" style="font-family:'Noteworthy-Bold', 'Noteworthy';font-weight:700;font-size:833.333px;">a<tspan x="-575.97px -152.012px 288.084px 589.143px 984.977px 1393.81px 1808.38px 2093.54px " y="3521.83px 3521.83px 3521.83px 3521.83px 3521.83px 3521.83px 3521.83px 3521.83px ">ggregate</tspan></text>
        </g>
    </g>
    <g id="system" transform="matrix(0.855155,0,0,0.808763,2634.46,2377.56)">
        <g transform="matrix(1.49466,0,0,0.801091,-610.247,707.067)">
            <path d="M596.341,2509.6C596.341,2509.6 595.29,2500.93 596.456,2519.61C615.445,2823.92 610.007,3064.77 621.044,3371.47C630.754,3641.26 633.741,4005.16 638.329,4025.96C645.989,4060.69 1455.42,4027.24 1474.21,4026.33C1643.64,4018.13 2073.18,4056.77 2072.07,4029.04C2070.9,3999.77 2059.4,3291.64 2052.88,3196.31C2050.72,3164.66 2040.11,2508.86 2033.51,2508.91C1997.03,2509.21 1445.46,2519.92 1219.22,2511.85C848.143,2498.6 959.731,2509.6 596.341,2509.6Z" style="fill:rgb(255,96,249);stroke:black;stroke-width:41.12px;"/>
        </g>
        <g transform="matrix(1.10761,0,0,1.12634,-2148.28,216.071)">
            <text x="2526.36px" y="2890.25px" style="font-family:'Noteworthy-Bold', 'Noteworthy';font-weight:700;font-size:468.477px;">s<tspan x="2743.03px 2968.48px 3199.21px 3359.08px 3581.6px " y="2890.25px 2890.25px 2890.25px 2890.25px 2890.25px ">ystem</tspan></text>
        </g>
    </g>
    <g id="event" transform="matrix(0.86242,0.173647,-0.189636,0.789709,5649.8,-243.703)">
        <g transform="matrix(0.155102,0.909384,-0.850329,0.14503,3520.64,3791.25)">
            <path d="M651.314,2500.39C651.314,2500.39 652.624,2853.89 665.532,2971.42C680.951,3111.81 682.072,3282.99 688.028,3584.85C692.898,3831.66 702.337,4022.68 711.847,4026.46C731.534,4034.27 1550.53,3997.14 1569.32,3996.23C1738.75,3988.03 2079.08,4002.12 2089.86,3982.91C2096.76,3970.59 2081.92,3650.22 2086.81,3551.64C2094.26,3401.49 2065.55,3202.6 2064.99,2975.21C2064.91,2943.48 2052.78,2463.05 2046.19,2463.1C2009.7,2463.4 1518.88,2487.44 1375.36,2484.68C1207.5,2481.46 925.56,2494.41 651.314,2500.39Z" style="fill:rgb(255,180,0);stroke:black;stroke-width:55.04px;"/>
        </g>
        <g transform="matrix(0.837002,-0.171539,0.172293,0.84068,-4660.58,2775.46)">
            <text x="5332.49px" y="4575.68px" style="font-family:'Noteworthy-Bold', 'Noteworthy';font-weight:700;font-size:461.364px;">e<tspan x="5542.43px 5753.5px 5972.7px 6194.69px " y="4575.68px 4575.68px 4575.68px 4575.68px ">vent</tspan></text>
        </g>
    </g>
    <g id="whenever" transform="matrix(0.849106,0,0,0.843431,6123.84,1483.08)">
        <g transform="matrix(1.49466,0,0,0.801091,-610.247,707.067)">
            <path d="M596.341,2509.6C596.341,2509.6 595.29,2500.93 596.456,2519.61C615.445,2823.92 610.007,3064.77 621.044,3371.47C630.754,3641.26 633.741,4005.16 638.329,4025.96C645.989,4060.69 1455.42,4027.24 1474.21,4026.33C1643.64,4018.13 2073.18,4056.77 2072.07,4029.04C2070.9,3999.77 2059.4,3291.64 2052.88,3196.31C2050.72,3164.66 2040.11,2508.86 2033.51,2508.91C1997.03,2509.21 1445.46,2519.92 1219.22,2511.85C848.143,2498.6 959.731,2509.6 596.341,2509.6Z" style="fill:rgb(255,219,254);stroke:black;stroke-width:40.98px;"/>
        </g>
        <g transform="matrix(0.54244,0,0,0.525199,995.149,1636.31)">
            <text x="-254.88px" y="3521.83px" style="font-family:'Noteworthy-Bold', 'Noteworthy';font-weight:700;font-size:833.333px;">po<tspan x="609.439px 785.216px 955.007px 1340.44px " y="3521.83px 3521.83px 3521.83px 3521.83px ">licy</tspan></text>
        </g>
    </g>
    <g id="actor" transform="matrix(1.03111,0,0,1.02422,-5128.66,-337.548)">
        <g transform="matrix(0.349022,0.0204952,-0.0270046,0.459873,5812.64,2037.76)">
            <g id="Actor">
                <path d="M651.314,2500.39C651.314,2500.39 668.714,2853.12 665.532,2971.42C661.814,3109.67 663.326,3280.94 688.028,3584.85C708.019,3830.8 702.337,4022.68 711.847,4026.46C731.534,4034.27 1256.76,4027.17 1275.54,4026.26C1444.97,4018.07 2079.08,4002.12 2089.86,3982.91C2096.76,3970.59 2081.92,3650.22 2086.81,3551.64C2094.26,3401.49 2072.93,3184.57 2072.36,2957.18C2072.28,2925.46 2019.86,2498.22 2013.27,2498.27C1976.78,2498.57 1668.8,2498.44 1640.16,2497.21C1269.11,2481.31 1014.7,2500.39 651.314,2500.39Z" style="fill:rgb(255,245,90);stroke:black;stroke-width:54.48px;"/>
            </g>
        </g>
        <g transform="matrix(1.11526,0,0,1,-691.183,2.29941)">
            <path d="M6052.98,3902.86C6052.14,3904.27 6049.87,3888.91 6049.76,3887.5C6049,3877.18 6048.45,3866.84 6048.2,3856.49C6047.42,3824.46 6049.93,3792.49 6051.53,3760.51C6056.57,3659.69 6062.02,3507.72 6193.37,3495.21C6246.49,3490.15 6275.28,3544.22 6286.5,3587.95C6308.27,3672.76 6305.98,3728.08 6308.78,3812.79C6309.84,3845.1 6315.59,3879.19 6311.38,3911.45" style="fill:none;stroke:black;stroke-width:11.67px;"/>
        </g>
        <path d="M6072.42,3665.22C6078.35,3654.36 6102.98,3638.45 6112.86,3627.05C6137.95,3598.07 6164.94,3572.49 6192.4,3545.89C6206,3532.7 6219.13,3516.4 6235.07,3505.77" style="fill:none;stroke:black;stroke-width:12.36px;"/>
        <g transform="matrix(1,0,0,1,3.26044,4.77065)">
            <path d="M6064.76,3756.98C6068.66,3748.01 6127.3,3701.2 6137.98,3691.47C6185.42,3648.21 6234.01,3600.55 6289.86,3545.6" style="fill:none;stroke:black;stroke-width:12.36px;"/>
        </g>
        <g transform="matrix(1,0,0,1,0.199296,10.3719)">
            <path d="M6064.04,3845.33C6086.13,3828.65 6117.16,3806.26 6140.65,3786.14C6157.94,3771.34 6173.34,3754.44 6190.58,3739.58C6237.65,3699.02 6284.13,3658.6 6326.21,3612.7" style="fill:none;stroke:black;stroke-width:12.36px;"/>
        </g>
        <g transform="matrix(0.957872,0,0,0.958049,264.03,170.105)">
            <path d="M6113.61,3908.56C6118.51,3905.59 6124.65,3896.54 6129.22,3892.31C6149.6,3873.38 6169.7,3854.16 6189.89,3835.02C6239.63,3787.85 6293.13,3744.16 6339.94,3694.24" style="fill:none;stroke:black;stroke-width:12.9px;"/>
        </g>
        <g transform="matrix(0.81947,0,0,0.860452,1141.63,545.314)">
            <path d="M6217.26,3911.25C6217.12,3911.38 6217,3910.52 6217,3910.45C6217.07,3905.22 6226.07,3898.02 6229.14,3894.67C6237.8,3885.24 6247.15,3876.47 6256.22,3867.45C6271.94,3851.81 6286.77,3835.19 6303.31,3820.39C6316.27,3808.79 6331.23,3798.16 6343.14,3785.5" style="fill:none;stroke:black;stroke-width:14.71px;"/>
        </g>
        <path d="M6195.58,3355.66C6195.1,3355.85 6187.11,3346.86 6188.87,3338.7C6190.87,3329.45 6198.36,3324.94 6198.85,3324.63C6204.68,3320.96 6212.23,3320.69 6218.87,3321.52C6236,3323.66 6251.04,3332.99 6262.15,3345.95C6286.91,3374.83 6295.28,3435.82 6254.48,3455.37C6143.66,3508.5 6095.6,3365.42 6189.49,3329.31" style="fill:none;stroke:black;stroke-width:12.36px;"/>
    </g>
    <g id="actor1" serif:id="actor" transform="matrix(1.03111,0,0,1.02422,3442.44,-515.083)">
        <g transform="matrix(0.349022,0.0204952,-0.0270046,0.459873,5812.64,2037.76)">
            <g id="Actor1" serif:id="Actor">
                <path d="M651.314,2500.39C651.314,2500.39 668.714,2853.12 665.532,2971.42C661.814,3109.67 663.326,3280.94 688.028,3584.85C708.019,3830.8 702.337,4022.68 711.847,4026.46C731.534,4034.27 1256.76,4027.17 1275.54,4026.26C1444.97,4018.07 2079.08,4002.12 2089.86,3982.91C2096.76,3970.59 2081.92,3650.22 2086.81,3551.64C2094.26,3401.49 2072.93,3184.57 2072.36,2957.18C2072.28,2925.46 2019.86,2498.22 2013.27,2498.27C1976.78,2498.57 1668.8,2498.44 1640.16,2497.21C1269.11,2481.31 1014.7,2500.39 651.314,2500.39Z" style="fill:rgb(255,245,90);stroke:black;stroke-width:54.48px;"/>
            </g>
        </g>
        <g transform="matrix(1.11526,0,0,1,-691.183,2.29941)">
            <path d="M6052.98,3902.86C6052.14,3904.27 6049.87,3888.91 6049.76,3887.5C6049,3877.18 6048.45,3866.84 6048.2,3856.49C6047.42,3824.46 6049.93,3792.49 6051.53,3760.51C6056.57,3659.69 6062.02,3507.72 6193.37,3495.21C6246.49,3490.15 6275.28,3544.22 6286.5,3587.95C6308.27,3672.76 6305.98,3728.08 6308.78,3812.79C6309.84,3845.1 6315.59,3879.19 6311.38,3911.45" style="fill:none;stroke:black;stroke-width:11.67px;"/>
        </g>
        <path d="M6072.42,3665.22C6078.35,3654.36 6102.98,3638.45 6112.86,3627.05C6137.95,3598.07 6164.94,3572.49 6192.4,3545.89C6206,3532.7 6219.13,3516.4 6235.07,3505.77" style="fill:none;stroke:black;stroke-width:12.36px;"/>
        <g transform="matrix(1,0,0,1,3.26044,4.77065)">
            <path d="M6064.76,3756.98C6068.66,3748.01 6127.3,3701.2 6137.98,3691.47C6185.42,3648.21 6234.01,3600.55 6289.86,3545.6" style="fill:none;stroke:black;stroke-width:12.36px;"/>
        </g>
        <g transform="matrix(1,0,0,1,0.199296,10.3719)">
            <path d="M6064.04,3845.33C6086.13,3828.65 6117.16,3806.26 6140.65,3786.14C6157.94,3771.34 6173.34,3754.44 6190.58,3739.58C6237.65,3699.02 6284.13,3658.6 6326.21,3612.7" style="fill:none;stroke:black;stroke-width:12.36px;"/>
        </g>
        <g transform="matrix(0.957872,0,0,0.958049,264.03,170.105)">
            <path d="M6113.61,3908.56C6118.51,3905.59 6124.65,3896.54 6129.22,3892.31C6149.6,3873.38 6169.7,3854.16 6189.89,3835.02C6239.63,3787.85 6293.13,3744.16 6339.94,3694.24" style="fill:none;stroke:black;stroke-width:12.9px;"/>
        </g>
        <g transform="matrix(0.81947,0,0,0.860452,1141.63,545.314)">
            <path d="M6217.26,3911.25C6217.12,3911.38 6217,3910.52 6217,3910.45C6217.07,3905.22 6226.07,3898.02 6229.14,3894.67C6237.8,3885.24 6247.15,3876.47 6256.22,3867.45C6271.94,3851.81 6286.77,3835.19 6303.31,3820.39C6316.27,3808.79 6331.23,3798.16 6343.14,3785.5" style="fill:none;stroke:black;stroke-width:14.71px;"/>
        </g>
        <path d="M6195.58,3355.66C6195.1,3355.85 6187.11,3346.86 6188.87,3338.7C6190.87,3329.45 6198.36,3324.94 6198.85,3324.63C6204.68,3320.96 6212.23,3320.69 6218.87,3321.52C6236,3323.66 6251.04,3332.99 6262.15,3345.95C6286.91,3374.83 6295.28,3435.82 6254.48,3455.37C6143.66,3508.5 6095.6,3365.42 6189.49,3329.31" style="fill:none;stroke:black;stroke-width:12.36px;"/>
    </g>
    <g id="read-model" serif:id="read model" transform="matrix(0.781315,0.0182552,-0.0275513,0.717554,5433.88,103.478)">
        <g transform="matrix(-0.99964,0.0268126,-0.0268126,-0.99964,2878.88,6497.48)">
            <path d="M644.501,2566.08C644.501,2566.08 643.335,2547.4 644.501,2566.08C663.49,2870.38 688.47,2995.12 685.517,3338.78C683.397,3585.43 702.337,4022.68 711.847,4026.46C731.534,4034.27 1256.76,4027.17 1275.54,4026.26C1444.97,4018.07 2152.22,4020.27 2162.99,4001.06C2169.9,3988.74 2139.54,3650.06 2138.34,3639.5C2129.56,3562.62 2102.73,3146.19 2108.11,3050.91C2112.74,2969.15 2076.54,2517.91 2069.94,2517.96C2033.46,2518.26 1674.09,2527.02 1645.5,2528.77C1329.97,2548.01 1007.89,2566.08 644.501,2566.08Z" style="fill:rgb(88,235,153);stroke:black;stroke-width:55.81px;"/>
        </g>
        <g transform="matrix(0.922519,-0.0602586,0.0618294,0.920456,-4294.11,-663.001)">
            <g transform="matrix(0.995625,0,0,1,23.661,0)">
                <text x="5408.22px" y="4575.68px" style="font-family:'Noteworthy-Bold', 'Noteworthy';font-weight:700;font-size:471.587px;">r<tspan x="5577.97px 5793.15px 6051.43px " y="4575.68px 4575.68px 4575.68px ">ead</tspan></text>
            </g>
            <g transform="matrix(0.995625,0,0,1,23.088,0)">
                <text x="5277.25px" y="5055.94px" style="font-family:'Noteworthy-Bold', 'Noteworthy';font-weight:700;font-size:471.587px;">m<tspan x="5619.82px 5864.52px 6102.73px 6326.79px " y="5055.94px 5055.94px 5055.94px 5055.94px ">odel</tspan></text>
            </g>
        </g>
    </g>
    <g transform="matrix(1.03111,0,0,1.02422,4207.44,-8139.42)">
        <g transform="matrix(-1.66976,-0.0806516,0.0354748,-1.01418,6462.21,13240.1)">
            <path d="M763.901,2566.41C763.901,2566.41 658.811,2559.62 659.027,2562.98C678.139,2859.69 682.606,3000.1 685.517,3338.78C687.646,3586.52 690.631,4017.87 700.14,4021.65C719.827,4029.47 1256.76,4027.17 1275.54,4026.26C1444.97,4018.07 2152.22,4020.27 2162.99,4001.06C2169.9,3988.74 2138.91,3650.11 2138.34,3639.5C2134.29,3565.29 2117.41,3149.97 2116.16,3050.93C2115.12,2969.06 2114.92,2509.08 2108.32,2509.13C2071.84,2509.43 1674.09,2527.02 1645.5,2528.77C1329.97,2548.01 1127.29,2566.41 763.901,2566.41Z" style="fill:rgb(228,241,255);stroke:black;stroke-width:29.11px;"/>
        </g>
        <path d="M3312.21,9278.81C3312.17,9278.61 3311.86,9279.18 3311.85,9279.19" style="fill:none;stroke:black;stroke-width:24.11px;"/>
        <path d="M3393.2,9272.94C3392.84,9273.17 3392.22,9272.66 3391.91,9272.96" style="fill:none;stroke:black;stroke-width:24.11px;"/>
        <path d="M3482.47,9274.43C3482.66,9274.59 3482.66,9273.99 3482.53,9274.5" style="fill:none;stroke:black;stroke-width:24.11px;"/>
        <path d="M3400.61,9489.43C3403.52,9481.87 3460.56,9483.29 3466.4,9483.05C3489.69,9482.1 3512.97,9482.08 3536.25,9483.12C3613.39,9486.55 3694.64,9484.41 3771.2,9490.98C3840.08,9496.9 3899.85,9489.17 3968.74,9496.06" style="fill:none;stroke:black;stroke-width:24.11px;"/>
        <path d="M3399.4,9587.62C3400.52,9588.09 3462.63,9590.9 3463.82,9590.6C3500.39,9581.44 3513.33,9594.94 3550.46,9595.6C3682.34,9597.95 3839.06,9592.92 3970.59,9602.66" style="fill:none;stroke:black;stroke-width:24.11px;"/>
        <path d="M3400.7,9699.67C3483.34,9704.82 3562.06,9696.56 3646.83,9705.6C3703.91,9711.69 3764.71,9709.65 3822.29,9709.09C3880.01,9708.53 3932.1,9704.28 3960.99,9711.5" style="fill:none;stroke:black;stroke-width:24.11px;"/>
        <path d="M4131.02,9480.49C4131.02,9480.49 4442.32,9476.02 4445.65,9486.68C4450,9500.6 4444.57,9531.71 4448.32,9545.06C4451.8,9557.44 4453.64,9593.68 4448.14,9606.52C4447.02,9609.13 4366.65,9606.04 4347.5,9606.12C4327.64,9606.22 4127.8,9608.33 4121.86,9602.39C4113.04,9593.57 4119.3,9559.32 4117.78,9547.79C4114.72,9524.65 4095.47,9470.95 4131.02,9480.49Z" style="fill:none;stroke:black;stroke-width:24.11px;"/>
        <path d="M4120.41,9678.9C4164.31,9681.35 4454.08,9676.03 4458.09,9685.23C4464.1,9699 4457.95,9739.69 4459.62,9753.67C4461.19,9766.72 4465.43,9798.65 4460.76,9811.48C4457.46,9820.56 4360.83,9810.24 4340.79,9809.38C4304.47,9807.82 4113.82,9815.16 4112.21,9803.91C4110.7,9793.32 4110.24,9709.9 4111.75,9685.78C4111.86,9684.07 4112.07,9678.94 4114.25,9678.22" style="fill:none;stroke:black;stroke-width:24.11px;"/>
        <path d="M4100.44,9895.94C4100.44,9895.94 4135.74,9893.96 4138.67,9894.05C4151.71,9894.44 4164.74,9894.7 4177.79,9894.83C4209.01,9895.12 4240.24,9894.98 4271.46,9895.09C4325.27,9895.28 4363.47,9904.01 4418.47,9898.31C4428.61,9897.25 4478.54,9902.17 4480.44,9904.5C4488.71,9914.68 4488.74,9943.57 4488.83,9955.62C4488.97,9974.77 4488.56,9999.07 4483.33,10017.4C4482.98,10018.6 4482.11,10019.4 4480.9,10019.8C4457.05,10027.5 4377.62,10022.7 4349.54,10018.7C4298.18,10011.5 4246.07,10016.1 4194.08,10017.7C4179.35,10018.2 4111.32,10018.1 4098.26,10010.5C4081,10000.5 4094.93,9912.46 4100.44,9895.94Z" style="fill:none;stroke:black;stroke-width:24.11px;"/>
        <path d="M4664.69,10011.5C4667.69,10012.2 4658.89,9908.28 4658.89,9861.87C4658.89,9804.27 4656.78,9529.35 4661.46,9517.78C4664.74,9509.68 4850.41,9515.31 4875.83,9515.15C4949.44,9514.69 5074.21,9523.4 5073.96,9526.2C5068.79,9583.46 5066.2,9668.23 5065.47,9721.76C5064.9,9762.88 5057.21,9803.59 5054.88,9844.64C5052.44,9887.54 5055.82,9898.46 5050.1,9941.08C5046.94,9964.61 5056.62,10013.2 5048,10019.7C5039.5,10026.1 5007.76,10022.6 4984.23,10019.5C4880.25,10006 4664.69,10011.5 4664.69,10011.5Z" style="fill:none;stroke:black;stroke-width:24.11px;"/>
        <path d="M3361.43,10100C3361.43,10100 3502.84,10104.8 3538.56,10103.1C3651.5,10097.5 3764.97,10095.1 3878.04,10094.1C4039.76,10092.6 4203.05,10088.1 4364.67,10095.3C4501.64,10101.3 4648.74,10102.1 4786.05,10104.6C4883.05,10106.3 4983.03,10117.6 5071.06,10120.6C5072.98,10120.6 5108.48,10120.2 5110.16,10121.6C5123.11,10132.2 5103.21,10270.4 5101.15,10295.1C5099.91,10310 4789.42,10282.7 4662.05,10282.3C4471.52,10281.5 4297.27,10272.7 4106.78,10272.3C3964.67,10272 3807.8,10279.5 3665.9,10275.2C3567.12,10272.1 3424.38,10283.2 3331.83,10284.4C3324.62,10284.5 3326.32,10219.1 3325.89,10211.2C3323.64,10168.5 3322.95,10109.8 3324.44,10106.1C3327.69,10098.2 3347.56,10101.7 3361.43,10100Z" style="fill:none;stroke:black;stroke-width:24.11px;"/>
        <path d="M3262.78,9325.19C3262.75,9325.8 3448.92,9318.19 3479.5,9322.64C3601.4,9340.4 3709.25,9321.87 3832.36,9324.23C3965.39,9326.77 4117.24,9327.07 4250.05,9327.07C4365.19,9327.07 4499.56,9346.22 4614.62,9349.23C4700.14,9351.46 4839.3,9371.17 4924.83,9373.28C5089.62,9377.36 5068.41,9378.72 5230.78,9378.72" style="fill:none;stroke:black;stroke-width:24.11px;"/>
        <path d="M3269.89,10353.4C3269.8,10353.4 3264.2,10081.5 3264.02,10049.3C3263.5,9958.55 3268.64,9718.89 3264.41,9628.2C3262.38,9584.73 3242.7,9236.78 3242.96,9236.39C3243.44,9235.67 3603.34,9218.7 3715.41,9226.21C3883.06,9237.45 3981.54,9215.38 4149.06,9220.16C4379.25,9226.74 4611.13,9245.76 4840.98,9261.47C4968.98,9270.22 5236.07,9260.93 5239.28,9266.44C5245.39,9276.92 5234.55,9417.34 5231.74,9431.79C5209.54,9546.07 5229.3,9621.57 5216.74,9737.33C5204.38,9851.12 5211.15,9975.08 5206.64,10089.3C5203.22,10176.1 5212.31,10379.3 5210.83,10380.7C5193.37,10396.4 4686.74,10345.3 4633.85,10345C4159.08,10341.6 3269.89,10353.4 3269.89,10353.4Z" style="fill:none;stroke:black;stroke-width:24.11px;"/>
    </g>
    <g id="process" transform="matrix(0.48601,-0.485496,0.464285,0.472177,5236.88,4843.41)">
        <g transform="matrix(-0.999577,0.0285207,-0.0282729,-0.999616,2883.57,6495.01)">
            <path d="M644.501,2566.08C644.501,2566.08 644.437,2562.62 644.501,2566.08C647.891,2748.29 649.891,2837.59 658.277,2976.31C663.918,3069.62 686.704,3200.57 685.517,3338.78C683.397,3585.43 702.337,4022.68 711.847,4026.46C731.534,4034.27 1256.76,4027.17 1275.54,4026.26C1444.97,4018.07 2152.22,4020.27 2162.99,4001.06C2169.9,3988.74 2139.54,3650.06 2138.34,3639.5C2129.56,3562.62 2102.73,3146.19 2108.11,3050.91C2112.74,2969.15 2076.54,2517.91 2069.94,2517.96C2033.46,2518.26 1256.82,2538.19 1228.23,2539.93C912.707,2559.18 1007.89,2566.08 644.501,2566.08Z" style="fill:rgb(194,96,255);stroke:black;stroke-width:61.94px;"/>
        </g>
        <g transform="matrix(0.671091,0.692552,-0.585589,0.660987,119.376,-3753.24)">
            <text x="5140.32px" y="4575.68px" style="font-family:'Noteworthy-Bold', 'Noteworthy';font-weight:700;font-size:432.908px;">pr<tspan x="5512.09px 5736.72px 5953.77px 6150.76px 6346.62px " y="4575.68px 4575.68px 4575.68px 4575.68px 4575.68px ">ocess</tspan></text>
        </g>
        <g transform="matrix(0.94394,0.970567,-0.92196,0.9651,3012.33,-1799.9)">
            <path d="M1549.02,3016.82C1549.01,3016.75 1546.63,3017.13 1546.44,3017.16C1541.33,3018.01 1684.02,3019.01 1710.06,3019.55C1781.15,3021.02 1779.65,3015.62 1850.79,3015.62" style="fill:none;stroke:black;stroke-width:27.34px;"/>
            <g transform="matrix(1,0,0,1,-8.26804,-18.7386)">
                <path d="M1792.14,2967.88C1793.02,2967.19 1858.35,3021.42 1864,3038.36C1864.21,3038.98 1801.23,3089.12 1778.35,3100.56" style="fill:none;stroke:black;stroke-width:27.34px;"/>
            </g>
        </g>
        <g transform="matrix(0.94394,0.970567,-0.92196,0.9651,3012.33,-1799.9)">
            <g transform="matrix(1.00418,0,0,0.650488,5.62577,1086.1)">
                <path d="M1839.08,3143C1842.89,3146.4 1721.37,3134.95 1692.86,3132.79C1620.13,3127.25 1602.82,3131.4 1535.69,3134.2" style="fill:none;stroke:black;stroke-width:32.27px;"/>
            </g>
            <path d="M1609.08,3056.38C1609.27,3056.27 1608.18,3056.68 1608.13,3056.7C1598.84,3061.13 1584.11,3075.68 1567.49,3087.86C1554.55,3097.35 1526.7,3126.45 1527.4,3127.35C1548,3153.64 1579.92,3171.6 1607.26,3187.64" style="fill:none;stroke:black;stroke-width:27.34px;"/>
        </g>
    </g>
    <g id="assumption" transform="matrix(0.779652,0.0537972,-0.0606225,0.715547,8289.17,3225.25)">
        <g transform="matrix(-0.99964,0.0268126,-0.0268126,-0.99964,2878.88,6497.48)">
            <path d="M644.501,2566.08C644.501,2566.08 644.656,2547.36 644.501,2566.08C642.09,2857.43 649.718,2971.67 685.517,3338.78C709.456,3584.27 702.337,4022.68 711.847,4026.46C731.534,4034.27 1256.76,4027.17 1275.54,4026.26C1444.97,4018.07 2152.22,4020.27 2162.99,4001.06C2169.9,3988.74 2139.54,3650.06 2138.34,3639.5C2129.56,3562.62 2102.73,3146.19 2108.11,3050.91C2112.74,2969.15 2076.54,2517.91 2069.94,2517.96C2033.46,2518.26 1674.09,2527.02 1645.5,2528.77C1329.97,2548.01 1007.89,2566.08 644.501,2566.08Z" style="fill:rgb(255,96,249);stroke:black;stroke-width:55.83px;"/>
        </g>
        <g transform="matrix(0.918483,-0.059995,0.0618294,0.920456,-4259.75,-538.233)">
            <text x="5162.36px" y="4575.68px" style="font-family:'Noteworthy-Bold', 'Noteworthy';font-weight:700;font-size:290.092px;">as<tspan x="5448.84px 5585.92px 5724.86px 5938.51px 6074.47px 6182.21px 6232.61px 6383.13px " y="4575.68px 4575.68px 4575.68px 4575.68px 4575.68px 4575.68px 4575.68px 4575.68px ">sumption</tspan></text>
        </g>
    </g>
    <g id="_-" serif:id="?" transform="matrix(0.780192,0.0454172,-0.0528271,0.716156,3828.4,3880.99)">
        <g transform="matrix(-0.99964,0.0268126,-0.0268126,-0.99964,2878.88,6497.48)">
            <path d="M644.501,2566.08C644.501,2566.08 644.656,2547.36 644.501,2566.08C642.09,2857.43 649.718,2971.67 685.517,3338.78C709.456,3584.27 702.337,4022.68 711.847,4026.46C731.534,4034.27 1256.76,4027.17 1275.54,4026.26C1444.97,4018.07 2152.22,4020.27 2162.99,4001.06C2169.9,3988.74 2139.54,3650.06 2138.34,3639.5C2129.56,3562.62 2102.73,3146.19 2108.11,3050.91C2112.74,2969.15 2076.54,2517.91 2069.94,2517.96C2033.46,2518.26 1674.09,2527.02 1645.5,2528.77C1329.97,2548.01 1007.89,2566.08 644.501,2566.08Z" style="fill:rgb(255,96,249);stroke:black;stroke-width:55.82px;"/>
        </g>
        <g transform="matrix(0.918483,-0.059995,0.0618294,0.920456,-4221.14,-114.926)">
            <text x="5380.84px" y="4575.68px" style="font-family:'Noteworthy-Bold', 'Noteworthy';font-weight:700;font-size:1289.3px;">?</text>
        </g>
    </g>
    <g>
        <g transform="matrix(1.513,0,0,1.33091,-1617.22,-1326.41)">
            <path d="M2672.94,3758.31C2669.84,3709.17 2685.67,3657.74 2707.04,3631.8C2726.24,3608.49 2757.16,3540.49 2875.75,3531.18" style="fill:none;stroke:black;stroke-width:25.85px;"/>
        </g>
        <g transform="matrix(1.513,0,0,1.33091,-1617.22,-1326.41)">
            <path d="M2815.08,3458.77C2815.31,3458.07 2815.72,3459.58 2816.01,3460.01C2822.57,3469.66 2832.67,3477.95 2841.12,3485.85C2853.67,3497.59 2888.47,3520.68 2891.41,3539.34C2891.72,3541.32 2840.18,3592.1 2826.06,3620.34" style="fill:none;stroke:black;stroke-width:25.85px;"/>
        </g>
    </g>
    <g>
        <g transform="matrix(1.03111,0,0,1.02422,-225.735,-201.032)">
            <path d="M2704.22,4981.86C2700.58,4980.05 2693.41,5057.51 2719.32,5135.58C2760.05,5258.3 2831.81,5282.44 2944.7,5300.5" style="fill:none;stroke:black;stroke-width:35.85px;"/>
        </g>
        <g transform="matrix(1.03111,0,0,1.02422,-225.735,-201.032)">
            <path d="M2872.54,5203C2869.71,5197.89 2957.05,5273.23 2962.38,5302.55C2962.66,5304.09 2873.68,5367.19 2855.8,5380.9" style="fill:none;stroke:black;stroke-width:35.85px;"/>
        </g>
    </g>
    <g>
        <g transform="matrix(0.758753,0,0,0.774223,1097.26,793.519)">
            <path d="M4832.57,3289.81C4853.32,3279.9 4950.17,3315.57 4969.64,3323.45C5133.46,3389.77 5197.54,3548.1 5193.09,3714.85" style="fill:none;stroke:black;stroke-width:48.06px;"/>
        </g>
        <g transform="matrix(0.758753,0,0,0.774223,1097.26,793.519)">
            <path d="M5059.3,3571.53C5070.17,3586.1 5084.43,3601.17 5091.28,3607.75C5105.86,3621.76 5123.45,3644.64 5138.23,3658.44C5153.64,3672.82 5193.18,3720.98 5195.94,3719.6C5201.08,3717.03 5253.83,3633.26 5257.99,3627.52C5293.35,3578.84 5278.81,3588.82 5312.69,3542.96" style="fill:none;stroke:black;stroke-width:48.06px;"/>
        </g>
    </g>
    <g>
        <g transform="matrix(1.03111,0,0,1.02422,-223.876,-173.768)">
            <path d="M6578.77,1916.93C6578.09,1917.77 6553.17,1821.71 6600.2,1750.29C6647.4,1678.63 6701.39,1637.35 6759.91,1609.07C6823.41,1578.38 6892.24,1557.11 7007.26,1557.25C7032.55,1557.28 7134.46,1565.55 7165.33,1562.24" style="fill:none;stroke:black;stroke-width:35.85px;"/>
        </g>
        <g transform="matrix(1.03111,0,0,1.02422,-225.462,-181.725)">
            <path d="M7036.27,1465.61C7058.44,1480.39 7111.49,1512.29 7112,1512.6C7130.81,1523.99 7185.15,1556.86 7182.91,1568.56C7180.6,1580.64 7119.78,1635.38 7118.46,1636.41C7107.37,1645.08 7067.74,1681.16 7052.76,1694.92" style="fill:none;stroke:black;stroke-width:35.85px;"/>
        </g>
    </g>
</svg>
