<?xml version="1.0" encoding="UTF-8" standalone="no"?>
<!DOCTYPE svg PUBLIC "-//W3C//DTD SVG 1.1//EN" "http://www.w3.org/Graphics/SVG/1.1/DTD/svg11.dtd">
<svg width="100%" height="100%" viewBox="0 0 7200 10800" version="1.1" xmlns="http://www.w3.org/2000/svg" xmlns:xlink="http://www.w3.org/1999/xlink" xml:space="preserve" xmlns:serif="http://www.serif.com/" style="fill-rule:evenodd;clip-rule:evenodd;stroke-linecap:round;stroke-linejoin:round;stroke-miterlimit:1.5;">
    <g id="Banner" transform="matrix(1,0,0,1,38.7073,-72.0607)">
        <path d="M1074.05,1083.46C1040.17,1073.94 924.442,1073.86 750.089,1086.67C540.76,1102.04 259.278,1067.41 258.464,1069.6C251.38,1088.69 449.985,1265.83 608.588,1370.11C757.873,1468.27 924.35,1610.93 928.889,1623.95C943.484,1665.78 220.486,2209.5 262.803,2295.76C266.656,2303.61 646.78,2263.46 824.536,2250.89C1128.23,2229.41 1434.02,2212.58 1738.58,2214.91C1746.78,2214.97 1811.25,2222.18 1813.19,2208.27C1813.3,2207.45 1813.2,2206.61 1812.99,2205.81C1807.17,2184.63 1604.57,1981.65 1596.88,1982.09C1547.47,1984.9 1123.65,2007.05 1127.39,1976.99" style="fill:rgb(255,177,251);stroke:black;stroke-width:41.67px;"/>
        <path d="M5986.06,984.912C6042.52,989.457 6359.51,1013.25 6428.12,1015.93C6581.62,1021.94 6836.74,1005.08 6836.74,1005.08C6836.74,1005.08 6522.21,1323.53 6500.88,1352.81C6453.09,1418.42 6206.12,1641.47 6206.37,1642C6208.93,1647.45 6432.75,1870.17 6540.12,1951.95C6663.35,2045.81 6839.75,2224.36 6838.13,2224.36C6329.08,2224.36 5216.49,2239.67 5227.84,2226.04C5240.54,2210.81 5442.09,1960 5429.87,1975.12C5424.16,1982.18 5634.71,1983.84 5788.3,1989.13C5878.11,1992.22 5952.41,1981.28 5953.5,1980.62" style="fill:rgb(255,177,251);stroke:black;stroke-width:41.67px;"/>
        <path d="M1129.53,1984.38C1129.53,1984.38 1109.34,1583.11 1107.08,1503.79C1097.34,1161.52 1058.41,806.439 1071.31,464.538C1071.62,456.224 1067.88,422.832 1077.92,417.254C1111.62,398.533 1392.37,414.118 1429.54,415.299C1688.97,423.539 1942.96,401.023 2174.61,399.497C2519.74,397.224 2763.79,369.153 3108.96,372.84C3869.24,380.962 4311.13,400.956 5126.2,383.725C5321.05,379.605 5472.28,399.347 5606.63,399.147C5614.52,399.135 6000.31,396.317 5998.52,418.422C5994.37,469.652 5992.37,630.996 5990.73,694.774C5987.44,823.005 5981.21,1028.02 5984.18,1198.62C5987.15,1369.74 5978.44,1611.52 5975.21,1706.69C5974.03,1741.41 5962.83,1945.04 5957.06,1976.14C5952.79,1999.15 5521.82,1977.95 5515.62,1977.87C5256.97,1974.54 4816,1944.25 4270.9,1938.97C3912.67,1935.5 3480.5,1956.81 3127.47,1954.48C2809.14,1952.39 2479.64,1920.42 2161.63,1933.46C1991.27,1940.44 1297.52,2027.21 1129.53,1984.38Z" style="fill:rgb(255,212,253);stroke:black;stroke-width:41.67px;"/>
        <g transform="matrix(28.45,0,0,25.1506,-44428.2,-95601.4)">
            <text x="1606.16px" y="3845.49px" style="font-family:'Noteworthy-Light', 'Noteworthy';font-weight:300;font-size:23.856px;">P<tspan x="1620.71px 1631.89px 1635.83px 1639.41px 1650.27px 1653.99px " y="3845.49px 3845.49px 3845.49px 3845.49px 3845.49px 3845.49px ">olicie</tspan>s</text>
        </g>
        <g transform="matrix(13.231,0,0,11.6966,-17953.9,-43699.9)">
            <text x="1606.16px" y="3845.49px" style="font-family:'Noteworthy-Light', 'Noteworthy';font-weight:300;font-size:23.856px;">-a<tspan x="1626.08px 1637.03px " y="3845.49px 3845.49px ">nd</tspan>-</text>
        </g>
        <g transform="matrix(28.45,0,0,25.1506,-42791.5,-94908)">
            <text x="1606.16px" y="3845.49px" style="font-family:'Noteworthy-Light', 'Noteworthy';font-weight:300;font-size:23.856px;">Pr<tspan x="1628.02px 1638.96px " y="3845.49px 3845.49px ">oc</tspan>edu<tspan x="1681.43px 1688.58px 1698.19px " y="3845.49px 3845.49px 3845.49px ">res</tspan></text>
        </g>
    </g>
    <g transform="matrix(0.918604,0,0,0.889407,686.269,382.679)">
        <text x="2526.36px" y="2890.25px" style="font-family:'Noteworthy-Bold', 'Noteworthy';font-weight:700;font-size:416.667px;">t<tspan x="2672.71px 2866.98px " y="2890.25px 2890.25px ">he</tspan> “l<tspan x="3405.53px 3482.09px 3680px " y="2890.25px 2890.25px 2890.25px ">ie </tspan>de<tspan x="4158.65px 4300.84px 4498.75px 4677.92px 4815.94px 5032.09px " y="2890.25px 2890.25px 2890.25px 2890.25px 2890.25px 2890.25px ">tector</tspan>” bo<tspan x="5845.11px " y="2890.25px ">x</tspan></text>
    </g>
    <g transform="matrix(0.869163,0,0,0.811711,-1656.4,5177.05)">
        <text x="2526.36px" y="2890.25px" style="font-family:'Noteworthy-Bold', 'Noteworthy';font-weight:700;font-size:416.667px;">k<tspan x="2714.9px 2904.48px 3117.5px 3204.48px 3488.86px 3705px 3859.17px 4061.25px 4266.46px 4353.44px 4491.46px 4707.61px 4794.59px 4981.57px 5178.44px 5376.36px 5463.34px 5694.07px 5844.07px 6041.98px " y="2890.25px 2890.25px 2890.25px 2890.25px 2890.25px 2890.25px 2890.25px 2890.25px 2890.25px 2890.25px 2890.25px 2890.25px 2890.25px 2890.25px 2890.25px 2890.25px 2890.25px 2890.25px 2890.25px 2890.25px ">ey words to use are:</tspan></text>
    </g>
    <g transform="matrix(0.810716,-0.313342,0.29263,0.757128,-2787.06,8031.46)">
        <text x="2814.81px" y="2890.25px" style="font-family:'Noteworthy-Bold', 'Noteworthy';font-weight:700;font-size:307.991px;">c<tspan x="2966.11px 3134.73px 3298.74px " y="2890.25px 2890.25px 2890.25px ">an </tspan>be a<tspan x="3902.02px 4040.23px 4142.25px 4302.02px 4519.54px 4672.38px 4786.72px " y="2890.25px 2890.25px 2890.25px 2890.25px 2890.25px 2890.25px 2890.25px ">utomati</tspan>c pr<tspan x="5332.64px 5492.41px 5646.79px 5786.92px 5926.29px 6071.82px " y="2890.25px 2890.25px 2890.25px 2890.25px 2890.25px 2890.25px ">ocesse</tspan>s</text>
        <text x="2532.22px" y="3303.99px" style="font-family:'Noteworthy-Bold', 'Noteworthy';font-weight:700;font-size:307.991px;">or a<tspan x="3046.18px 3209.03px 3319.91px 3466.21px 3612.5px 3835.03px 3981.32px 4129.54px 4228.49px 4380.17px " y="3303.99px 3303.99px 3303.99px 3303.99px 3303.99px 3303.99px 3303.99px 3303.99px 3303.99px 3303.99px ">greements </tspan>be<tspan x="4736.29px 4847.55px 5060.83px " y="3303.99px 3303.99px 3303.99px ">twe</tspan>en h<tspan x="5729.18px 5876.63px 6094.15px 6262.77px 6426.78px " y="3303.99px 3303.99px 3303.99px 3303.99px 3303.99px ">umans</tspan>,</text>
        <text x="2634.25px" y="3717.72px" style="font-family:'Noteworthy-Bold', 'Noteworthy';font-weight:700;font-size:307.991px;">b<tspan x="2798.25px 2936.46px 3050.8px 3115.1px 3285.65px 3347.63px 3552.06px 3716.84px 3865.06px 4016.74px 4081.04px 4251.59px 4408.28px 4568.05px 4633.11px 4689.7px 4836px " y="3717.72px 3717.72px 3717.72px 3717.72px 3717.72px 3717.72px 3717.72px 3717.72px 3717.72px 3717.72px 3717.72px 3717.72px 3717.72px 3717.72px 3717.72px 3717.72px 3717.72px ">ut always applied</tspan> im<tspan x="5345.34px 5567.86px 5714.16px 5872.78px 5926.67px 6079.52px 6184.62px 6330.91px 6386.74px " y="3717.72px 3717.72px 3717.72px 3717.72px 3717.72px 3717.72px 3717.72px 3717.72px 3717.72px ">mediately</tspan></text>
        <text x="3614.81px" y="4131.45px" style="font-family:'Noteworthy-Bold', 'Noteworthy';font-weight:700;font-size:307.991px;">a<tspan x="3770.73px 3868.91px 3974.01px 4120.31px " y="4131.45px 4131.45px 4131.45px 4131.45px ">fter</tspan> t<tspan x="4415.98px 4559.58px " y="4131.45px 4131.45px ">he</tspan> e<tspan x="4910.3px 5051.21px 5197.51px 5345.73px 5460.07px " y="4131.45px 4131.45px 4131.45px 4131.45px 4131.45px ">vent!</tspan></text>
    </g>
    <g>
        <g transform="matrix(0.946178,0,0,0.912643,366.537,541.783)">
            <g transform="matrix(-0.999749,0.0223857,-0.0223857,-0.999749,8077.7,11219.9)">
                <path d="M4136.13,3768.23C4167.4,3760.82 4258.27,3767.56 4281.52,3766.62" style="fill:none;stroke:rgb(226,1,217);stroke-width:39.6px;"/>
            </g>
            <g transform="matrix(-0.999749,0.0223857,-0.0223857,-0.999749,8077.7,11219.9)">
                <path d="M4175.05,3696.19C4176.99,3696.92 4113.55,3747.05 4112.19,3760.7C4111.93,3763.23 4175.78,3827.27 4176.67,3826.82" style="fill:none;stroke:rgb(226,1,217);stroke-width:39.6px;"/>
            </g>
        </g>
        <g transform="matrix(0.946178,0,0,0.912643,364.189,948.498)">
            <g transform="matrix(-0.999749,0.0223857,-0.0223857,-0.999749,8077.7,11219.9)">
                <path d="M4136.13,3768.23C4167.4,3760.82 4258.27,3767.56 4281.52,3766.62" style="fill:none;stroke:rgb(226,1,217);stroke-width:39.6px;"/>
            </g>
            <g transform="matrix(-0.999749,0.0223857,-0.0223857,-0.999749,8077.7,11219.9)">
                <path d="M4175.05,3696.19C4176.99,3696.92 4113.55,3747.05 4112.19,3760.7C4111.93,3763.23 4175.78,3827.27 4176.67,3826.82" style="fill:none;stroke:rgb(226,1,217);stroke-width:39.6px;"/>
            </g>
        </g>
        <g transform="matrix(0.946178,0,0,0.912643,374.513,1360.95)">
            <g transform="matrix(-0.999749,0.0223857,-0.0223857,-0.999749,8077.7,11219.9)">
                <path d="M4136.13,3768.23C4167.4,3760.82 4258.27,3767.56 4281.52,3766.62" style="fill:none;stroke:rgb(226,1,217);stroke-width:39.6px;"/>
            </g>
            <g transform="matrix(-0.999749,0.0223857,-0.0223857,-0.999749,8077.7,11219.9)">
                <path d="M4175.05,3696.19C4176.99,3696.92 4113.55,3747.05 4112.19,3760.7C4111.93,3763.23 4175.78,3827.27 4176.67,3826.82" style="fill:none;stroke:rgb(226,1,217);stroke-width:39.6px;"/>
            </g>
        </g>
        <g transform="matrix(0.946178,0,0,0.912643,373.869,1735.76)">
            <g transform="matrix(-0.999749,0.0223857,-0.0223857,-0.999749,8077.7,11219.9)">
                <path d="M4136.13,3768.23C4167.4,3760.82 4258.27,3767.56 4281.52,3766.62" style="fill:none;stroke:rgb(226,1,217);stroke-width:39.6px;"/>
            </g>
            <g transform="matrix(-0.999749,0.0223857,-0.0223857,-0.999749,8077.7,11219.9)">
                <path d="M4175.05,3696.19C4176.99,3696.92 4113.55,3747.05 4112.19,3760.7C4111.93,3763.23 4175.78,3827.27 4176.67,3826.82" style="fill:none;stroke:rgb(226,1,217);stroke-width:39.6px;"/>
            </g>
        </g>
        <g transform="matrix(0.946178,0,0,0.912643,385.243,2157.84)">
            <g transform="matrix(-0.999749,0.0223857,-0.0223857,-0.999749,8077.7,11219.9)">
                <path d="M4136.13,3768.23C4167.4,3760.82 4258.27,3767.56 4281.52,3766.62" style="fill:none;stroke:rgb(226,1,217);stroke-width:39.6px;"/>
            </g>
            <g transform="matrix(-0.999749,0.0223857,-0.0223857,-0.999749,8077.7,11219.9)">
                <path d="M4175.05,3696.19C4176.99,3696.92 4113.55,3747.05 4112.19,3760.7C4111.93,3763.23 4175.78,3827.27 4176.67,3826.82" style="fill:none;stroke:rgb(226,1,217);stroke-width:39.6px;"/>
            </g>
        </g>
        <g transform="matrix(0.946178,0,0,0.912643,387.14,2549.57)">
            <g transform="matrix(-0.999749,0.0223857,-0.0223857,-0.999749,8077.7,11219.9)">
                <path d="M4136.13,3768.23C4167.4,3760.82 4258.27,3767.56 4281.52,3766.62" style="fill:none;stroke:rgb(226,1,217);stroke-width:39.6px;"/>
            </g>
            <g transform="matrix(-0.999749,0.0223857,-0.0223857,-0.999749,8077.7,11219.9)">
                <path d="M4175.05,3696.19C4176.99,3696.92 4113.55,3747.05 4112.19,3760.7C4111.93,3763.23 4175.78,3827.27 4176.67,3826.82" style="fill:none;stroke:rgb(226,1,217);stroke-width:39.6px;"/>
            </g>
        </g>
        <g transform="matrix(0.946178,0,0,0.912643,387.181,2928.36)">
            <g transform="matrix(-0.999749,0.0223857,-0.0223857,-0.999749,8077.7,11219.9)">
                <path d="M4136.13,3768.23C4167.4,3760.82 4258.27,3767.56 4281.52,3766.62" style="fill:none;stroke:rgb(226,1,217);stroke-width:39.6px;"/>
            </g>
            <g transform="matrix(-0.999749,0.0223857,-0.0223857,-0.999749,8077.7,11219.9)">
                <path d="M4175.05,3696.19C4176.99,3696.92 4113.55,3747.05 4112.19,3760.7C4111.93,3763.23 4175.78,3827.27 4176.67,3826.82" style="fill:none;stroke:rgb(226,1,217);stroke-width:39.6px;"/>
            </g>
        </g>
        <g transform="matrix(0.946178,0,0,0.912643,387.222,3307.16)">
            <g transform="matrix(-0.999749,0.0223857,-0.0223857,-0.999749,8077.7,11219.9)">
                <path d="M4136.13,3768.23C4167.4,3760.82 4258.27,3767.56 4281.52,3766.62" style="fill:none;stroke:rgb(226,1,217);stroke-width:39.6px;"/>
            </g>
            <g transform="matrix(-0.999749,0.0223857,-0.0223857,-0.999749,8077.7,11219.9)">
                <path d="M4175.05,3696.19C4176.99,3696.92 4113.55,3747.05 4112.19,3760.7C4111.93,3763.23 4175.78,3827.27 4176.67,3826.82" style="fill:none;stroke:rgb(226,1,217);stroke-width:39.6px;"/>
            </g>
        </g>
    </g>
    <g transform="matrix(0.869163,0,0,0.811711,2019.24,5190.86)">
        <text x="2526.36px" y="2890.25px" style="font-family:'Noteworthy-Bold', 'Noteworthy';font-weight:700;font-size:416.667px;">a<tspan x="2757.09px 2840.94px 3117.5px 3340.42px 3540.94px " y="2890.25px 2890.25px 2890.25px 2890.25px 2890.25px ">lways</tspan></text>
        <text x="2526.36px" y="3400.89px" style="font-family:'Noteworthy-Bold', 'Noteworthy';font-weight:700;font-size:416.667px;">im<tspan x="2918.03px 3219.07px 3416.98px 3631.57px 3704.48px " y="3400.89px 3400.89px 3400.89px 3400.89px 3400.89px ">media</tspan></text>
        <text x="3911.25px" y="3400.89px" style="font-family:'Noteworthy-Bold', 'Noteworthy';font-weight:700;font-size:416.667px;">t</text>
        <text x="4053.44px" y="3400.89px" style="font-family:'Noteworthy-Bold', 'Noteworthy';font-weight:700;font-size:416.667px;">el<tspan x="4326.88px " y="3400.89px ">y</tspan></text>
        <text x="2526.36px" y="3884.36px" style="font-family:'Noteworthy-Bold', 'Noteworthy';font-weight:700;font-size:416.667px;">a<tspan x="2757.09px 2944.07px 3082.09px 3298.23px 3592.5px 3799.28px 3953.96px " y="3884.36px 3884.36px 3884.36px 3884.36px 3884.36px 3884.36px 3884.36px ">utomati</tspan>c pr<tspan x="4692.5px 4908.65px 5117.5px 5307.09px 5495.63px " y="3884.36px 3884.36px 3884.36px 3884.36px 3884.36px ">ocess</tspan></text>
        <text x="2526.36px" y="4388.91px" style="font-family:'Noteworthy-Bold', 'Noteworthy';font-weight:700;font-size:416.667px;">l<tspan x="2614.38px 2682.61px 2887.82px " y="4388.91px 4388.91px 4388.91px ">ist</tspan></text>
        <text x="3030px" y="4388.91px" style="font-family:'Noteworthy-Bold', 'Noteworthy';font-weight:700;font-size:416.667px;">e</text>
        <text x="3227.92px" y="4388.91px" style="font-family:'Noteworthy-Bold', 'Noteworthy';font-weight:700;font-size:416.667px;">n<tspan x="3452.4px 3650.32px " y="4388.91px 4388.91px ">er</tspan></text>
        <text x="2526.36px" y="4872.38px" style="font-family:'Noteworthy-Bold', 'Noteworthy';font-weight:700;font-size:416.667px;">a<tspan x="2751.88px 2972.19px 3122.19px 3320.11px 3518.03px 3819.07px 4016.98px 4217.5px " y="4872.38px 4872.38px 4872.38px 4872.38px 4872.38px 4872.38px 4872.38px 4872.38px ">greement</tspan></text>
        <text x="2526.36px" y="5355.85px" style="font-family:'Noteworthy-Bold', 'Noteworthy';font-weight:700;font-size:416.667px;">ru<tspan x="2892.5px 2976.36px 3165.94px " y="5355.85px 5355.85px 5355.85px ">les</tspan></text>
        <text x="2526.36px" y="5839.31px" style="font-family:'Noteworthy-Bold', 'Noteworthy';font-weight:700;font-size:416.667px;">hab<tspan x="3169.59px 3233.13px " y="5839.31px 5839.31px ">it</tspan></text>
        <text x="2526.36px" y="6322.78px" style="font-family:'Noteworthy-Bold', 'Noteworthy';font-weight:700;font-size:416.667px;">“don’t f<tspan x="3805px 4021.15px 4162.3px 4374.28px 4555.53px 4710.21px 4797.19px 4935.21px 5151.36px " y="6322.78px 6322.78px 6322.78px 6322.78px 6322.78px 6322.78px 6322.78px 6322.78px 6322.78px ">orget to.</tspan>..”</text>
    </g>
    <g transform="matrix(0.764587,0,0,0.740286,-1267.64,559.841)">
        <text x="1975.22px" y="9789.08px" style="font-family:'Noteworthy-Bold', 'Noteworthy';font-weight:700;font-size:833.333px;fill:rgb(225,29,0);stroke:rgb(255,0,1);stroke-width:1.33px;stroke-linecap:butt;stroke-miterlimit:2;">*</text>
    </g>
    <g id="example" transform="matrix(0.894716,-0.446636,0.446636,0.894716,-1843.32,2229.48)">
        <g transform="matrix(0.876547,0.481317,-0.481317,0.876547,3154.63,-1120.34)">
            <path d="M696.288,6124.04C787.985,6047.7 894.88,5969.8 990.77,5885.65C1091.05,5797.64 1199.6,5705.99 1301.06,5619.3C1372.17,5558.53 1448.82,5502.66 1522.54,5445.25C1583.04,5398.13 1667.84,5337.86 1738.33,5285" style="fill:none;stroke:rgb(255,9,0);stroke-width:36.84px;"/>
        </g>
        <g transform="matrix(0.874548,0.48494,-0.48494,0.874548,3182.57,-1082.73)">
            <path d="M635.072,6051.71C635.772,6052.55 636.085,6049.76 636.779,6048.92C644.825,6039.17 657.683,6032.28 667.806,6025.06C700.921,6001.45 732.106,5975.48 763.516,5949.68C834.798,5891.13 905.87,5832.51 975.559,5772.05C1201.98,5575.62 1430.16,5374.03 1678.62,5205.43" style="fill:rgb(255,0,16);stroke:rgb(255,11,0);stroke-width:36.84px;"/>
        </g>
        <g transform="matrix(0.883853,-0.140506,0.140506,0.883853,-1864.7,2223.31)">
            <text x="2526.36px" y="2890.25px" style="font-family:'Noteworthy-Bold', 'Noteworthy';font-weight:700;font-size:416.667px;stroke:rgb(255,177,247);stroke-width:1.12px;stroke-linecap:butt;stroke-miterlimit:2;">e<tspan x="2695.11px 2933.65px 3164.38px 3471.15px 3687.3px 3771.15px " y="2890.25px 2890.25px 2890.25px 2890.25px 2890.25px 2890.25px ">xample</tspan>!</text>
        </g>
    </g>
    <g id="whenever" transform="matrix(1,0,0,1,-60.174,-9.95244)">
        <g transform="matrix(1.49466,0,0,0.801091,-610.247,707.067)">
            <path d="M596.341,2509.6C596.341,2509.6 595.29,2500.93 596.456,2519.61C615.445,2823.92 610.007,3064.77 621.044,3371.47C630.754,3641.26 633.741,4005.16 638.329,4025.96C645.989,4060.69 1455.42,4027.24 1474.21,4026.33C1643.64,4018.13 2073.18,4056.77 2072.07,4029.04C2070.9,3999.77 2059.4,3291.64 2052.88,3196.31C2050.72,3164.66 2040.11,2508.86 2033.51,2508.91C1997.03,2509.21 1445.46,2519.92 1219.22,2511.85C848.143,2498.6 959.731,2509.6 596.341,2509.6Z" style="fill:rgb(255,219,254);stroke:black;stroke-width:34.75px;"/>
        </g>
        <g transform="matrix(0.54244,0,0,0.525199,1006.54,1636.31)">
            <text x="-915.784px" y="3521.83px" style="font-family:'Noteworthy-Bold', 'Noteworthy';font-weight:700;font-size:833.333px;">when<tspan x="894.467px 1274.16px 1656.21px 2052.04px " y="3521.83px 3521.83px 3521.83px 3521.83px ">ever</tspan></text>
        </g>
    </g>
    <g id="whenever-then" serif:id="whenever then" transform="matrix(0.829356,0,0,0.789641,3687.95,1354.15)">
        <g transform="matrix(1.49466,0,0,0.801091,-610.247,707.067)">
            <path d="M596.341,2509.6C596.341,2509.6 595.29,2500.93 596.456,2519.61C615.445,2823.92 610.007,3064.77 621.044,3371.47C630.754,3641.26 633.741,4005.16 638.329,4025.96C645.989,4060.69 1455.42,4027.24 1474.21,4026.33C1643.64,4018.13 2073.18,4056.77 2072.07,4029.04C2070.9,3999.77 2059.4,3291.64 2052.88,3196.31C2050.72,3164.66 2040.11,2508.86 2033.51,2508.91C1997.03,2509.21 1445.46,2519.92 1219.22,2511.85C848.143,2498.6 959.731,2509.6 596.341,2509.6Z" style="fill:rgb(255,219,254);stroke:black;stroke-width:42.34px;"/>
        </g>
        <g transform="matrix(0.457949,0,0,0.443393,1196.9,1605.71)">
            <text x="-915.784px" y="3521.83px" style="font-family:'Noteworthy-Bold', 'Noteworthy';font-weight:700;font-size:833.333px;">when<tspan x="894.467px 1274.16px 1656.21px 2052.04px " y="3521.83px 3521.83px 3521.83px 3521.83px ">ever</tspan></text>
        </g>
        <g transform="matrix(0.457949,0,0,0.443393,1342.03,2020.24)">
            <text x="3.327px" y="3521.83px" style="font-family:'Noteworthy-Bold', 'Noteworthy';font-weight:700;font-size:833.333px;">t<tspan x="296.565px 685.107px " y="3521.83px 3521.83px ">he</tspan>n</text>
        </g>
        <g transform="matrix(-1.20545,0.0283492,-0.0269917,-1.26608,7343.17,8128.09)">
            <path d="M4136.13,3768.23C4167.4,3760.82 4258.27,3767.56 4281.52,3766.62" style="fill:none;stroke:black;stroke-width:36.84px;"/>
            <path d="M4175.05,3696.19C4176.99,3696.92 4113.55,3747.05 4112.19,3760.7C4111.93,3763.23 4175.78,3827.27 4176.67,3826.82" style="fill:none;stroke:black;stroke-width:36.84px;"/>
        </g>
        <g transform="matrix(1.20575,0,0,1.2664,-4446.77,-1714.9)">
            <path d="M4136.13,3768.23C4167.4,3760.82 4258.27,3767.56 4281.52,3766.62" style="fill:none;stroke:black;stroke-width:36.84px;"/>
            <path d="M4175.05,3696.19C4176.99,3696.92 4113.55,3747.05 4112.19,3760.7C4111.93,3763.23 4175.78,3827.27 4176.67,3826.82" style="fill:none;stroke:black;stroke-width:36.84px;"/>
        </g>
    </g>
    <g id="Refund-Policy" serif:id="Refund Policy" transform="matrix(0.829356,0,0,0.789641,2910.26,3337.95)">
        <g transform="matrix(1.49466,0,0,0.801091,-610.247,707.067)">
            <path d="M596.341,2509.6C596.341,2509.6 595.29,2500.93 596.456,2519.61C615.445,2823.92 610.007,3064.77 621.044,3371.47C630.754,3641.26 633.741,4005.16 638.329,4025.96C645.989,4060.69 1455.42,4027.24 1474.21,4026.33C1643.64,4018.13 2073.18,4056.77 2072.07,4029.04C2070.9,3999.77 2059.4,3291.64 2052.88,3196.31C2050.72,3164.66 2040.11,2508.86 2033.51,2508.91C1997.03,2509.21 1445.46,2519.92 1219.22,2511.85C848.143,2498.6 959.731,2509.6 596.341,2509.6Z" style="fill:rgb(255,219,254);stroke:black;stroke-width:42.34px;"/>
        </g>
        <g transform="matrix(0.443393,0,0,0.443393,1058.26,1680.76)">
            <g transform="matrix(1.03283,0,0,1,16.8079,0)">
                <text x="-512.006px" y="3521.83px" style="font-family:'Noteworthy-Bold', 'Noteworthy';font-weight:700;font-size:928.538px;">r<tspan x="-176.551px 264.504px 599.959px 1043.91px 1538.35px " y="3521.83px 3521.83px 3521.83px 3521.83px 3521.83px ">efund</tspan></text>
            </g>
            <g transform="matrix(1.03283,0,0,1,12.282,0)">
                <text x="-374.136px" y="4464.29px" style="font-family:'Noteworthy-Bold', 'Noteworthy';font-weight:700;font-size:928.538px;">po<tspan x="588.927px 784.786px 973.975px 1403.44px " y="4464.29px 4464.29px 4464.29px 4464.29px ">licy</tspan></text>
            </g>
        </g>
    </g>
    <g id="Action" transform="matrix(0.752498,0.0907777,-0.0941238,0.694752,5453.46,1405.87)">
        <g transform="matrix(-0.99964,0.0268126,-0.0268126,-0.99964,2878.88,6497.48)">
            <path d="M596.341,2509.6C596.341,2509.6 595.29,2500.93 596.456,2519.61C615.445,2823.92 630.627,3132.47 655.329,3436.38C675.32,3682.33 702.337,4022.68 711.847,4026.46C731.534,4034.27 1256.76,4027.17 1275.54,4026.26C1444.97,4018.07 2152.22,4020.27 2162.99,4001.06C2169.9,3988.74 2139.54,3650.06 2138.34,3639.5C2129.56,3562.62 2088.4,3149.77 2081.88,3054.43C2079.72,3022.78 2019.86,2498.22 2013.27,2498.27C1976.78,2498.57 1668.8,2498.44 1640.16,2497.21C1269.11,2481.31 959.731,2509.6 596.341,2509.6Z" style="fill:rgb(0,173,255);stroke:black;stroke-width:57.37px;"/>
        </g>
        <g transform="matrix(0.890783,-0.0581856,0.0599647,0.892697,-4046.33,-317.891)">
            <text x="5224.82px" y="4575.68px" style="font-family:'Noteworthy-Bold', 'Noteworthy';font-weight:700;font-size:485.538px;">a<tspan x="5490.74px 5699.43px 5879.75px 5964.11px 6216.04px " y="4575.68px 4575.68px 4575.68px 4575.68px 4575.68px ">ction</tspan></text>
        </g>
    </g>
    <g id="Issue-Refund" serif:id="Issue Refund" transform="matrix(0.752498,0.0907777,-0.0941238,0.694752,4675.77,3389.67)">
        <g transform="matrix(-0.99964,0.0268126,-0.0268126,-0.99964,2878.88,6497.48)">
            <path d="M644.501,2566.08C644.501,2566.08 643.335,2547.4 644.501,2566.08C663.49,2870.38 688.47,2995.12 685.517,3338.78C683.397,3585.43 702.337,4022.68 711.847,4026.46C731.534,4034.27 1256.76,4027.17 1275.54,4026.26C1444.97,4018.07 2152.22,4020.27 2162.99,4001.06C2169.9,3988.74 2139.54,3650.06 2138.34,3639.5C2129.56,3562.62 2102.73,3146.19 2108.11,3050.91C2112.74,2969.15 2076.54,2517.91 2069.94,2517.96C2033.46,2518.26 1674.09,2527.02 1645.5,2528.77C1329.97,2548.01 1007.89,2566.08 644.501,2566.08Z" style="fill:rgb(0,173,255);stroke:black;stroke-width:57.37px;"/>
        </g>
        <g transform="matrix(0.851756,-0.0556364,0.0570867,0.849852,-3840.45,-366.081)">
            <g transform="matrix(0.995625,0,0,1,23.4417,0)">
                <text x="5358.1px" y="4575.68px" style="font-family:'Noteworthy-Bold', 'Noteworthy';font-weight:700;font-size:485.538px;">i<tspan x="5437.59px 5657.27px 5886.7px 6109.5px " y="4575.68px 4575.68px 4575.68px 4575.68px ">ssue</tspan></text>
            </g>
            <g transform="matrix(0.995625,0,0,1,22.7131,0)">
                <text x="5191.56px" y="5081.51px" style="font-family:'Noteworthy-Bold', 'Noteworthy';font-weight:700;font-size:485.538px;">r<tspan x="5366.32px 5597.02px 5771.78px 6004.34px " y="5081.51px 5081.51px 5081.51px 5081.51px ">efun</tspan></text>
            </g>
            <g transform="matrix(0.995625,0,0,1,27.3799,0)">
                <text x="6258.26px" y="5081.51px" style="font-family:'Noteworthy-Bold', 'Noteworthy';font-weight:700;font-size:485.538px;">d</text>
            </g>
        </g>
    </g>
    <g id="Event" transform="matrix(0.83622,0.169505,-0.183875,0.77087,3689.3,-628.15)">
        <g transform="matrix(0.155102,0.909384,-0.850329,0.14503,3520.64,3791.25)">
            <path d="M651.314,2500.39C651.314,2500.39 668.714,2853.12 665.532,2971.42C661.814,3109.67 663.326,3280.94 688.028,3584.85C708.019,3830.8 702.337,4022.68 711.847,4026.46C731.534,4034.27 1256.76,4027.17 1275.54,4026.26C1444.97,4018.07 2079.08,4002.12 2089.86,3982.91C2096.76,3970.59 2081.92,3650.22 2086.81,3551.64C2094.26,3401.49 2072.93,3184.57 2072.36,2957.18C2072.28,2925.46 2019.86,2498.22 2013.27,2498.27C1976.78,2498.57 1668.8,2498.44 1640.16,2497.21C1269.11,2481.31 1014.7,2500.39 651.314,2500.39Z" style="fill:rgb(255,180,0);stroke:black;stroke-width:56.6px;"/>
        </g>
        <g transform="matrix(0.837002,-0.171539,0.172293,0.84068,-4689.87,2785.89)">
            <text x="5305.53px" y="4575.68px" style="font-family:'Noteworthy-Bold', 'Noteworthy';font-weight:700;font-size:485.538px;">e<tspan x="5526.47px 5748.6px 5979.29px 6212.91px " y="4575.68px 4575.68px 4575.68px 4575.68px ">vent</tspan></text>
        </g>
    </g>
    <g id="Event1" serif:id="Event" transform="matrix(0.83622,0.169505,-0.183875,0.77087,2911.61,1355.65)">
        <g transform="matrix(0.155102,0.909384,-0.850329,0.14503,3520.64,3791.25)">
            <path d="M651.314,2500.39C651.314,2500.39 652.624,2853.89 665.532,2971.42C680.951,3111.81 682.072,3282.99 688.028,3584.85C692.898,3831.66 702.337,4022.68 711.847,4026.46C731.534,4034.27 1550.53,3997.14 1569.32,3996.23C1738.75,3988.03 2079.08,4002.12 2089.86,3982.91C2096.76,3970.59 2081.92,3650.22 2086.81,3551.64C2094.26,3401.49 2065.55,3202.6 2064.99,2975.21C2064.91,2943.48 2052.78,2463.05 2046.19,2463.1C2009.7,2463.4 1518.88,2487.44 1375.36,2484.68C1207.5,2481.46 925.56,2494.41 651.314,2500.39Z" style="fill:rgb(255,180,0);stroke:black;stroke-width:56.6px;"/>
        </g>
        <g transform="matrix(0.84068,-0.172293,0.172293,0.84068,-4744.3,2644.16)">
            <g transform="matrix(0.995625,0,0,1,23.6213,0)">
                <text x="5399.15px" y="4575.68px" style="font-family:'Noteworthy-Bold', 'Noteworthy';font-weight:700;font-size:331.75px;">r<tspan x="5518.56px 5676.19px 5795.6px 5954.49px 6131.19px " y="4575.68px 4575.68px 4575.68px 4575.68px 4575.68px ">efund</tspan></text>
            </g>
            <g transform="matrix(0.995625,0,0,1,22.6448,0)">
                <text x="5175.95px" y="4899.24px" style="font-family:'Noteworthy-Bold', 'Noteworthy';font-weight:700;font-size:331.75px;">r<tspan x="5295.36px 5452.99px " y="4899.24px 4899.24px ">eq</tspan>ue<tspan x="5922.1px 6085.52px 6198.73px 6356.35px " y="4899.24px 4899.24px 4899.24px 4899.24px ">sted</tspan></text>
            </g>
        </g>
    </g>
</svg>
