<?xml version="1.0" encoding="UTF-8" standalone="no"?>
<!DOCTYPE svg PUBLIC "-//W3C//DTD SVG 1.1//EN" "http://www.w3.org/Graphics/SVG/1.1/DTD/svg11.dtd">
<svg width="100%" height="100%" viewBox="0 0 7200 10800" version="1.1" xmlns="http://www.w3.org/2000/svg" xmlns:xlink="http://www.w3.org/1999/xlink" xml:space="preserve" xmlns:serif="http://www.serif.com/" style="fill-rule:evenodd;clip-rule:evenodd;stroke-linecap:round;stroke-linejoin:round;stroke-miterlimit:1.5;">
    <g id="Banner" transform="matrix(1,0,0,1,38.7073,-72.0607)">
        <path d="M1074.05,1083.46C1040.17,1073.94 924.442,1073.86 750.089,1086.67C540.76,1102.04 259.278,1067.41 258.464,1069.6C251.38,1088.69 449.985,1265.83 608.588,1370.11C757.873,1468.27 924.35,1610.93 928.889,1623.95C943.484,1665.78 220.486,2209.5 262.803,2295.76C266.656,2303.61 646.78,2263.46 824.536,2250.89C1128.23,2229.41 1434.02,2212.58 1738.58,2214.91C1746.78,2214.97 1811.25,2222.18 1813.19,2208.27C1813.3,2207.45 1813.2,2206.61 1812.99,2205.81C1807.17,2184.63 1604.57,1981.65 1596.88,1982.09C1547.47,1984.9 1123.65,2007.05 1127.39,1976.99" style="fill:rgb(120,255,179);stroke:black;stroke-width:41.67px;"/>
        <path d="M5986.06,984.912C6042.52,989.457 6359.51,1013.25 6428.12,1015.93C6581.62,1021.94 6836.74,1005.08 6836.74,1005.08C6836.74,1005.08 6522.21,1323.53 6500.88,1352.81C6453.09,1418.42 6206.12,1641.47 6206.37,1642C6208.93,1647.45 6432.75,1870.17 6540.12,1951.95C6663.35,2045.81 6839.75,2224.36 6838.13,2224.36C6329.08,2224.36 5216.49,2239.67 5227.84,2226.04C5240.54,2210.81 5442.09,1960 5429.87,1975.12C5424.16,1982.18 5634.71,1983.84 5788.3,1989.13C5878.11,1992.22 5952.41,1981.28 5953.5,1980.62" style="fill:rgb(120,255,179);stroke:black;stroke-width:41.67px;"/>
        <path d="M1129.53,1984.38C1129.53,1984.38 1109.34,1583.11 1107.08,1503.79C1097.34,1161.52 1058.41,806.439 1071.31,464.538C1071.62,456.224 1067.88,422.832 1077.92,417.254C1111.62,398.533 1392.37,414.118 1429.54,415.299C1688.97,423.539 1942.96,401.023 2174.61,399.497C2519.74,397.224 2763.79,369.153 3108.96,372.84C3869.24,380.962 4311.13,400.956 5126.2,383.725C5321.05,379.605 5472.28,399.347 5606.63,399.147C5614.52,399.135 6000.31,396.317 5998.52,418.422C5994.37,469.652 5992.37,630.996 5990.73,694.774C5987.44,823.005 5981.21,1028.02 5984.18,1198.62C5987.15,1369.74 5978.44,1611.52 5975.21,1706.69C5974.03,1741.41 5962.83,1945.04 5957.06,1976.14C5952.79,1999.15 5521.82,1977.95 5515.62,1977.87C5256.97,1974.54 4816,1944.25 4270.9,1938.97C3912.67,1935.5 3480.5,1956.81 3127.47,1954.48C2809.14,1952.39 2479.64,1920.42 2161.63,1933.46C1991.27,1940.44 1297.52,2027.21 1129.53,1984.38Z" style="fill:rgb(184,255,215);stroke:black;stroke-width:41.67px;"/>
        <g transform="matrix(28.45,0,0,25.1506,-44311.9,-95190.9)">
            <text x="1606.16px" y="3845.49px" style="font-family:'Noteworthy-Light', 'Noteworthy';font-weight:300;font-size:33.134px;">R<tspan x="1628.07px 1641.74px 1657.1px 1672.3px " y="3845.49px 3845.49px 3845.49px 3845.49px ">ead </tspan>Model</text>
        </g>
    </g>
    <g id="ties-to-the-layout" serif:id="ties to the layout">
        <g transform="matrix(1,0,0,1,317.527,-15.0462)">
            <g transform="matrix(-1.66976,-0.0806516,0.0354748,-1.01418,6462.21,13240.1)">
                <path d="M763.901,2566.41C763.901,2566.41 658.811,2559.62 659.027,2562.98C678.139,2859.69 682.606,3000.1 685.517,3338.78C687.646,3586.52 690.631,4017.87 700.14,4021.65C719.827,4029.47 1256.76,4027.17 1275.54,4026.26C1444.97,4018.07 2152.22,4020.27 2162.99,4001.06C2169.9,3988.74 2138.91,3650.11 2138.34,3639.5C2134.29,3565.29 2117.41,3149.97 2116.16,3050.93C2115.12,2969.06 2114.92,2509.08 2108.32,2509.13C2071.84,2509.43 1674.09,2527.02 1645.5,2528.77C1329.97,2548.01 1127.29,2566.41 763.901,2566.41Z" style="fill:rgb(228,241,255);stroke:black;stroke-width:29.96px;"/>
            </g>
            <path d="M3312.21,9278.81C3312.17,9278.61 3311.86,9279.18 3311.85,9279.19" style="fill:none;stroke:black;stroke-width:24.78px;"/>
            <path d="M3393.2,9272.94C3392.84,9273.17 3392.22,9272.66 3391.91,9272.96" style="fill:none;stroke:black;stroke-width:24.78px;"/>
            <path d="M3482.47,9274.43C3482.66,9274.59 3482.66,9273.99 3482.53,9274.5" style="fill:none;stroke:black;stroke-width:24.78px;"/>
            <path d="M3400.61,9489.43C3403.52,9481.87 3460.56,9483.29 3466.4,9483.05C3489.69,9482.1 3512.97,9482.08 3536.25,9483.12C3613.39,9486.55 3694.64,9484.41 3771.2,9490.98C3840.08,9496.9 3899.85,9489.17 3968.74,9496.06" style="fill:none;stroke:black;stroke-width:24.78px;"/>
            <path d="M3399.4,9587.62C3400.52,9588.09 3462.63,9590.9 3463.82,9590.6C3500.39,9581.44 3513.33,9594.94 3550.46,9595.6C3682.34,9597.95 3839.06,9592.92 3970.59,9602.66" style="fill:none;stroke:black;stroke-width:24.78px;"/>
            <path d="M3400.7,9699.67C3483.34,9704.82 3562.06,9696.56 3646.83,9705.6C3703.91,9711.69 3764.71,9709.65 3822.29,9709.09C3880.01,9708.53 3932.1,9704.28 3960.99,9711.5" style="fill:none;stroke:black;stroke-width:24.78px;"/>
            <path d="M4131.02,9480.49C4131.02,9480.49 4442.32,9476.02 4445.65,9486.68C4450,9500.6 4444.57,9531.71 4448.32,9545.06C4451.8,9557.44 4453.64,9593.68 4448.14,9606.52C4447.02,9609.13 4366.65,9606.04 4347.5,9606.12C4327.64,9606.22 4127.8,9608.33 4121.86,9602.39C4113.04,9593.57 4119.3,9559.32 4117.78,9547.79C4114.72,9524.65 4095.47,9470.95 4131.02,9480.49Z" style="fill:none;stroke:black;stroke-width:24.78px;"/>
            <path d="M4120.41,9678.9C4164.31,9681.35 4454.08,9676.03 4458.09,9685.23C4464.1,9699 4457.95,9739.69 4459.62,9753.67C4461.19,9766.72 4465.43,9798.65 4460.76,9811.48C4457.46,9820.56 4360.83,9810.24 4340.79,9809.38C4304.47,9807.82 4113.82,9815.16 4112.21,9803.91C4110.7,9793.32 4110.24,9709.9 4111.75,9685.78C4111.86,9684.07 4112.07,9678.94 4114.25,9678.22" style="fill:none;stroke:black;stroke-width:24.78px;"/>
            <path d="M4100.44,9895.94C4100.44,9895.94 4135.74,9893.96 4138.67,9894.05C4151.71,9894.44 4164.74,9894.7 4177.79,9894.83C4209.01,9895.12 4240.24,9894.98 4271.46,9895.09C4325.27,9895.28 4363.47,9904.01 4418.47,9898.31C4428.61,9897.25 4478.54,9902.17 4480.44,9904.5C4488.71,9914.68 4488.74,9943.57 4488.83,9955.62C4488.97,9974.77 4488.56,9999.07 4483.33,10017.4C4482.98,10018.6 4482.11,10019.4 4480.9,10019.8C4457.05,10027.5 4377.62,10022.7 4349.54,10018.7C4298.18,10011.5 4246.07,10016.1 4194.08,10017.7C4179.35,10018.2 4111.32,10018.1 4098.26,10010.5C4081,10000.5 4094.93,9912.46 4100.44,9895.94Z" style="fill:none;stroke:black;stroke-width:24.78px;"/>
            <path d="M4664.69,10011.5C4667.69,10012.2 4658.89,9908.28 4658.89,9861.87C4658.89,9804.27 4656.78,9529.35 4661.46,9517.78C4664.74,9509.68 4850.41,9515.31 4875.83,9515.15C4949.44,9514.69 5074.21,9523.4 5073.96,9526.2C5068.79,9583.46 5066.2,9668.23 5065.47,9721.76C5064.9,9762.88 5057.21,9803.59 5054.88,9844.64C5052.44,9887.54 5055.82,9898.46 5050.1,9941.08C5046.94,9964.61 5056.62,10013.2 5048,10019.7C5039.5,10026.1 5007.76,10022.6 4984.23,10019.5C4880.25,10006 4664.69,10011.5 4664.69,10011.5Z" style="fill:none;stroke:black;stroke-width:24.78px;"/>
            <path d="M3361.43,10100C3361.43,10100 3502.84,10104.8 3538.56,10103.1C3651.5,10097.5 3764.97,10095.1 3878.04,10094.1C4039.76,10092.6 4203.05,10088.1 4364.67,10095.3C4501.64,10101.3 4648.74,10102.1 4786.05,10104.6C4883.05,10106.3 4983.03,10117.6 5071.06,10120.6C5072.98,10120.6 5108.48,10120.2 5110.16,10121.6C5123.11,10132.2 5103.21,10270.4 5101.15,10295.1C5099.91,10310 4789.42,10282.7 4662.05,10282.3C4471.52,10281.5 4297.27,10272.7 4106.78,10272.3C3964.67,10272 3807.8,10279.5 3665.9,10275.2C3567.12,10272.1 3424.38,10283.2 3331.83,10284.4C3324.62,10284.5 3326.32,10219.1 3325.89,10211.2C3323.64,10168.5 3322.95,10109.8 3324.44,10106.1C3327.69,10098.2 3347.56,10101.7 3361.43,10100Z" style="fill:none;stroke:black;stroke-width:24.78px;"/>
            <path d="M3262.78,9325.19C3262.75,9325.8 3448.92,9318.19 3479.5,9322.64C3601.4,9340.4 3709.25,9321.87 3832.36,9324.23C3965.39,9326.77 4117.24,9327.07 4250.05,9327.07C4365.19,9327.07 4499.56,9346.22 4614.62,9349.23C4700.14,9351.46 4839.3,9371.17 4924.83,9373.28C5089.62,9377.36 5068.41,9378.72 5230.78,9378.72" style="fill:none;stroke:black;stroke-width:24.78px;"/>
            <path d="M3269.89,10353.4C3269.8,10353.4 3264.2,10081.5 3264.02,10049.3C3263.5,9958.55 3268.64,9718.89 3264.41,9628.2C3262.38,9584.73 3242.7,9236.78 3242.96,9236.39C3243.44,9235.67 3603.34,9218.7 3715.41,9226.21C3883.06,9237.45 3981.54,9215.38 4149.06,9220.16C4379.25,9226.74 4611.13,9245.76 4840.98,9261.47C4968.98,9270.22 5236.07,9260.93 5239.28,9266.44C5245.39,9276.92 5234.55,9417.34 5231.74,9431.79C5209.54,9546.07 5229.3,9621.57 5216.74,9737.33C5204.38,9851.12 5211.15,9975.08 5206.64,10089.3C5203.22,10176.1 5212.31,10379.3 5210.83,10380.7C5193.37,10396.4 4686.74,10345.3 4633.85,10345C4159.08,10341.6 3269.89,10353.4 3269.89,10353.4Z" style="fill:none;stroke:black;stroke-width:24.78px;"/>
        </g>
        <g id="Banner1" serif:id="Banner" transform="matrix(0.301189,-0.0381457,0.0381457,0.301189,2458.9,8665.59)">
            <path d="M1074.05,1083.46C1040.17,1073.94 924.442,1073.86 750.089,1086.67C540.76,1102.04 259.278,1067.41 258.464,1069.6C251.38,1088.69 449.985,1265.83 608.588,1370.11C757.873,1468.27 924.35,1610.93 928.889,1623.95C943.484,1665.78 220.486,2209.5 262.803,2295.76C266.656,2303.61 646.78,2263.46 824.536,2250.89C1128.23,2229.41 1434.02,2212.58 1738.58,2214.91C1746.78,2214.97 1811.25,2222.18 1813.19,2208.27C1813.3,2207.45 1813.2,2206.61 1812.99,2205.81C1807.17,2184.63 1604.57,1981.65 1596.88,1982.09C1547.47,1984.9 1123.65,2007.05 1127.39,1976.99" style="fill:rgb(127,230,220);stroke:black;stroke-width:137.24px;"/>
            <path d="M5986.06,984.912C6042.52,989.457 6359.51,1013.25 6428.12,1015.93C6581.62,1021.94 6836.74,1005.08 6836.74,1005.08C6836.74,1005.08 6522.21,1323.53 6500.88,1352.81C6453.09,1418.42 6206.12,1641.47 6206.37,1642C6208.93,1647.45 6432.75,1870.17 6540.12,1951.95C6663.35,2045.81 6839.75,2224.36 6838.13,2224.36C6329.08,2224.36 5216.49,2239.67 5227.84,2226.04C5240.54,2210.81 5442.09,1960 5429.87,1975.12C5424.16,1982.18 5634.71,1983.84 5788.3,1989.13C5878.11,1992.22 5952.41,1981.28 5953.5,1980.62" style="fill:rgb(127,230,220);stroke:black;stroke-width:137.24px;"/>
            <path d="M1129.53,1984.38C1129.53,1984.38 1109.34,1583.11 1107.08,1503.79C1097.34,1161.52 1058.41,806.439 1071.31,464.538C1071.62,456.224 1067.88,422.832 1077.92,417.254C1111.62,398.533 1392.37,414.118 1429.54,415.299C1688.97,423.539 1942.96,401.023 2174.61,399.497C2519.74,397.224 2763.79,369.153 3108.96,372.84C3869.24,380.962 4311.13,400.956 5126.2,383.725C5321.05,379.605 5472.28,399.347 5606.63,399.147C5614.52,399.135 6000.31,396.317 5998.52,418.422C5994.37,469.652 5992.37,630.996 5990.73,694.774C5987.44,823.005 5981.21,1028.02 5984.18,1198.62C5987.15,1369.74 5978.44,1611.52 5975.21,1706.69C5974.03,1741.41 5962.83,1945.04 5957.06,1976.14C5952.79,1999.15 5521.82,1977.95 5515.62,1977.87C5256.97,1974.54 4816,1944.25 4270.9,1938.97C3912.67,1935.5 3480.5,1956.81 3127.47,1954.48C2809.14,1952.39 2479.64,1920.42 2161.63,1933.46C1991.27,1940.44 1297.52,2027.21 1129.53,1984.38Z" style="fill:rgb(184,255,248);stroke:black;stroke-width:137.24px;"/>
            <g transform="matrix(28.45,0,0,25.1506,-43585,-95230.3)">
                <text x="1606.16px" y="3845.49px" style="font-family:'Noteworthy-Bold', 'Noteworthy';font-weight:700;font-size:35.47px;">Layo<tspan x="1682.95px 1698.87px " y="3845.49px 3845.49px ">ut</tspan></text>
            </g>
        </g>
        <g transform="matrix(0.918604,0,0,0.889407,-1381.21,7164.07)">
            <text x="2833.47px" y="2890.25px" style="font-family:'Noteworthy-Bold', 'Noteworthy';font-weight:700;font-size:398.206px;">ti<tspan x="3054.48px 3235.66px 3431.78px 3514.9px 3646.81px " y="2890.25px 2890.25px 2890.25px 2890.25px 2890.25px ">es to</tspan></text>
            <text x="2526.36px" y="3342.8px" style="font-family:'Noteworthy-Bold', 'Noteworthy';font-weight:700;font-size:398.206px;">t<tspan x="2666.23px 2851.89px " y="3342.8px 3342.8px ">he</tspan> l<tspan x="3200.32px 3413.36px 3616.94px 3833.97px 4012.66px " y="3342.8px 3342.8px 3342.8px 3342.8px 3342.8px ">ayout</tspan></text>
        </g>
        <g>
            <g transform="matrix(1,0,0,1,317.527,-15.0462)">
                <path d="M2253.52,9801.26C2253.93,9800.68 2360.24,9798.16 2407.05,9795.29C2545.93,9786.76 2685.41,9772.23 2824.65,9772.23" style="fill:none;stroke:rgb(255,5,0);stroke-width:36.84px;"/>
            </g>
            <g transform="matrix(1,0,0,1,313.018,-22.0475)">
                <path d="M2665.44,9656.78C2668.22,9659.55 2672.55,9663.04 2674.34,9664.8C2679.61,9669.99 2685.54,9674.13 2691.38,9678.64C2706.6,9690.41 2718.68,9699.24 2734.64,9709.98C2765.68,9730.87 2797.12,9751.32 2829.68,9769.81C2833.02,9771.71 2847.99,9776.92 2848.88,9781.7C2849.52,9785.09 2833.44,9791.52 2831.38,9792.68C2778.36,9822.36 2726.11,9853.36 2675,9886.22" style="fill:none;stroke:rgb(255,5,0);stroke-width:36.84px;"/>
            </g>
        </g>
    </g>
    <g id="some-decisions-are..." serif:id="some decisions are...">
        <g transform="matrix(0.918604,0,0,0.889407,-1907.67,5305.57)">
            <text x="2526.36px" y="2890.25px" style="font-family:'Noteworthy-Bold', 'Noteworthy';font-weight:700;font-size:398.206px;">s<tspan x="2718.49px 2925.06px 3212.76px " y="2890.25px 2890.25px 2890.25px ">ome</tspan></text>
        </g>
        <g transform="matrix(0.918604,0,0,0.889407,217.148,5318.38)">
            <text x="2526.36px" y="2890.25px" style="font-family:'Noteworthy-Bold', 'Noteworthy';font-weight:700;font-size:398.206px;">a<tspan x="2746.87px 2890.22px " y="2890.25px 2890.25px ">re</tspan></text>
        </g>
        <g transform="matrix(0.918604,0,0,0.889407,1290.75,5005.66)">
            <text x="2526.36px" y="2890.25px" style="font-family:'Noteworthy-Bold', 'Noteworthy';font-weight:700;font-size:398.206px;">r<tspan x="2658.76px 2856.37px 3004.2px 3073.39px 3279.96px 3492.01px 3712.51px " y="2890.25px 2890.25px 2890.25px 2890.25px 2890.25px 2890.25px 2890.25px ">ational</tspan></text>
        </g>
        <g transform="matrix(0.918604,0,0,0.889407,1301.09,5681.31)">
            <text x="2526.36px" y="2890.25px" style="font-family:'Noteworthy-Bold', 'Noteworthy';font-weight:700;font-size:398.206px;">em<tspan x="3004.7px 3190.86px 3338.7px 3407.89px 3614.45px 3826.5px 4047.01px " y="2890.25px 2890.25px 2890.25px 2890.25px 2890.25px 2890.25px 2890.25px ">otional</tspan></text>
        </g>
        <g id="data" transform="matrix(0.757744,0.0178236,-0.0267202,0.70059,5308.5,4917.43)">
            <g transform="matrix(-0.99964,0.0268126,-0.0268126,-0.99964,2878.88,6497.48)">
                <path d="M644.501,2566.08C644.501,2566.08 643.335,2547.4 644.501,2566.08C663.49,2870.38 688.47,2995.12 685.517,3338.78C683.397,3585.43 702.337,4022.68 711.847,4026.46C731.534,4034.27 1256.76,4027.17 1275.54,4026.26C1444.97,4018.07 2152.22,4020.27 2162.99,4001.06C2169.9,3988.74 2139.54,3650.06 2138.34,3639.5C2129.56,3562.62 2102.73,3146.19 2108.11,3050.91C2112.74,2969.15 2076.54,2517.91 2069.94,2517.96C2033.46,2518.26 1674.09,2527.02 1645.5,2528.77C1329.97,2548.01 1007.89,2566.08 644.501,2566.08Z" style="fill:rgb(88,235,153);stroke:black;stroke-width:57.37px;"/>
            </g>
            <g transform="matrix(0.918483,-0.059995,0.0618294,0.920456,-4248,-393.513)">
                <text x="5382.02px" y="4575.68px" style="font-family:'Noteworthy-Bold', 'Noteworthy';font-weight:700;font-size:515.72px;">d<tspan x="5627.63px 5883.53px 6040.1px " y="4575.68px 4575.68px 4575.68px ">ata</tspan></text>
            </g>
        </g>
        <g id="text---images" serif:id="text &amp; images" transform="matrix(0.757744,0.0178236,-0.0267202,0.70059,5357.61,6064.06)">
            <g transform="matrix(-0.99964,0.0268126,-0.0268126,-0.99964,2878.88,6497.48)">
                <path d="M644.501,2566.08C644.501,2566.08 643.335,2547.4 644.501,2566.08C663.49,2870.38 688.47,2995.12 685.517,3338.78C683.397,3585.43 702.337,4022.68 711.847,4026.46C731.534,4034.27 1256.76,4027.17 1275.54,4026.26C1444.97,4018.07 2152.22,4020.27 2162.99,4001.06C2169.9,3988.74 2139.54,3650.06 2138.34,3639.5C2129.56,3562.62 2102.73,3146.19 2108.11,3050.91C2112.74,2969.15 2076.54,2517.91 2069.94,2517.96C2033.46,2518.26 1674.09,2527.02 1645.5,2528.77C1329.97,2548.01 1007.89,2566.08 644.501,2566.08Z" style="fill:rgb(88,235,153);stroke:black;stroke-width:57.37px;"/>
            </g>
            <g transform="matrix(0.922519,-0.0602586,0.0618294,0.920456,-4298.71,-826.728)">
                <g transform="matrix(0.995625,0,0,1,24.1918,0)">
                    <text x="5529.56px" y="4575.68px" style="font-family:'Noteworthy-Bold', 'Noteworthy';font-weight:700;font-size:386.79px;">t<tspan x="5661.55px 5818.13px 6023.57px " y="4575.68px 4575.68px 4575.68px ">ext</tspan></text>
                </g>
                <g transform="matrix(0.995625,0,0,1,24.8466,0)">
                    <text x="5679.21px" y="4977.94px" style="font-family:'Noteworthy-Bold', 'Noteworthy';font-weight:700;font-size:386.79px;">&amp;</text>
                </g>
                <g transform="matrix(0.995625,0,0,1,23.1308,0)">
                    <text x="5287.03px" y="5276.41px" style="font-family:'Noteworthy-Bold', 'Noteworthy';font-weight:700;font-size:386.79px;">im<tspan x="5639.09px 5848.5px 6045.33px 6221.33px " y="5276.41px 5276.41px 5276.41px 5276.41px ">ages</tspan></text>
                </g>
            </g>
        </g>
        <g id="decisions" transform="matrix(0.756376,0.0488841,-0.0554293,0.698904,1017.77,5428.64)">
            <g transform="matrix(-0.99964,0.0268126,-0.0268126,-0.99964,2878.88,6497.48)">
                <path d="M644.501,2566.08C644.501,2566.08 643.335,2547.4 644.501,2566.08C663.49,2870.38 688.47,2995.12 685.517,3338.78C683.397,3585.43 702.337,4022.68 711.847,4026.46C731.534,4034.27 1256.76,4027.17 1275.54,4026.26C1444.97,4018.07 2152.22,4020.27 2162.99,4001.06C2169.9,3988.74 2139.54,3650.06 2138.34,3639.5C2129.56,3562.62 2102.73,3146.19 2108.11,3050.91C2112.74,2969.15 2076.54,2517.91 2069.94,2517.96C2033.46,2518.26 1674.09,2527.02 1645.5,2528.77C1329.97,2548.01 1007.89,2566.08 644.501,2566.08Z" style="fill:rgb(0,173,255);stroke:black;stroke-width:57.37px;"/>
            </g>
            <g transform="matrix(0.918483,-0.059995,0.0618294,0.920456,-4254.09,-479.092)">
                <text x="5150.34px" y="4575.68px" style="font-family:'Noteworthy-Bold', 'Noteworthy';font-weight:700;font-size:361.996px;">dec<tspan x="5686.68px 5745.94px 5927.91px 5990.8px 6178.63px " y="4575.68px 4575.68px 4575.68px 4575.68px 4575.68px ">ision</tspan>s</text>
            </g>
        </g>
        <g>
            <g transform="matrix(1,0,0,1,-96.3743,-105.838)">
                <path d="M3239.8,7831.17C3246.13,7823.61 3297.02,7751.6 3304.7,7743.54C3388.29,7655.8 3492.66,7628.48 3608.53,7620.76" style="fill:none;stroke:black;stroke-width:36.84px;"/>
            </g>
            <g transform="matrix(1,0,0,1,-96.3743,-105.838)">
                <path d="M3525.45,7534.45C3531.66,7540.66 3550.55,7559.49 3556.89,7566.22C3572.84,7583.16 3611.16,7617.39 3612.66,7619.52C3612.96,7619.96 3576.24,7668.62 3573.53,7671.76C3555.99,7692.09 3535.82,7713.77 3527.35,7720.86" style="fill:none;stroke:black;stroke-width:36.84px;"/>
            </g>
        </g>
        <g>
            <g transform="matrix(0.869396,0,0,0.949029,325.728,301.088)">
                <path d="M3231.93,7983.48C3233.54,7992.06 3237.71,8022.76 3241.08,8036.82C3253.7,8088.81 3286.94,8137.97 3322.06,8178.17C3382.01,8246.79 3472.41,8264.36 3548.26,8271.09C3571.81,8273.17 3617.28,8275.47 3646.32,8277.95" style="fill:none;stroke:black;stroke-width:40.48px;"/>
            </g>
            <g transform="matrix(1,0,0,1,-148.839,-126.206)">
                <path d="M3577.94,8204.96C3576.29,8206.82 3618.25,8235.2 3624,8239.82C3635.52,8249.06 3675.18,8270 3677.03,8282.93C3677.36,8285.23 3632.22,8318.41 3630.94,8319.49C3595.07,8349.68 3601.82,8340.48 3582.73,8360.33" style="fill:none;stroke:black;stroke-width:36.84px;"/>
            </g>
        </g>
        <g>
            <g transform="matrix(1.31909,0,0,1.53505,-1718.29,-4155.91)">
                <path d="M5008.33,7547.56C5002.16,7546.99 5020.66,7546.17 5026.78,7545.18C5042.25,7542.66 5057.54,7539.11 5073.01,7536.51C5112.88,7529.81 5152.81,7522.23 5192.86,7516.7C5315.95,7499.72 5443.43,7479.9 5567.63,7473.69" style="fill:none;stroke:rgb(255,5,0);stroke-width:25.74px;"/>
            </g>
            <g transform="matrix(1,0,0,1,54.0595,-170.553)">
                <path d="M5403.57,7371.78C5419.67,7392.66 5534.17,7441.71 5564.89,7462.19C5608.42,7491.21 5576.43,7500.14 5537.2,7532.68C5501.45,7562.34 5460.06,7591.5 5429.61,7627.03" style="fill:none;stroke:rgb(255,5,0);stroke-width:36.84px;"/>
            </g>
        </g>
        <g>
            <g transform="matrix(1,0,0,1,54.0595,-170.553)">
                <path d="M5101.33,8305.17C5121.15,8320.77 5213.65,8365.03 5373.5,8431.41C5422.7,8451.83 5531.43,8494.83 5630.02,8548.85" style="fill:none;stroke:rgb(255,5,0);stroke-width:36.84px;"/>
            </g>
            <g transform="matrix(0.874796,-0.15298,0.171278,0.979434,-712.878,855.779)">
                <path d="M5619.54,8401.75C5620.17,8401.19 5629.3,8458.37 5629.51,8459.13C5640.58,8498.94 5649.58,8556.98 5638.66,8569.75C5629.45,8580.54 5534.02,8569.57 5460.82,8572.07" style="fill:none;stroke:rgb(255,5,0);stroke-width:39.08px;"/>
            </g>
        </g>
        <g>
            <g transform="matrix(1,0,0,1,54.0595,-170.553)">
                <path d="M5380.11,8160.63C5377.69,8162.39 5379.13,8157.01 5379.35,8156.35C5382.9,8145.81 5392.88,8138.95 5402.71,8134.83C5423.78,8125.99 5457.49,8125.08 5467.59,8150.37C5487.83,8201.09 5397.12,8283.23 5377.21,8329.38" style="fill:none;stroke:rgb(255,5,0);stroke-width:36.84px;"/>
            </g>
            <g transform="matrix(1,0,0,1,54.0595,-170.553)">
                <path d="M5381.35,8160.75C5381.4,8160.76 5379.23,8152.99 5379.03,8152.51C5374.03,8141.03 5364.41,8132.21 5354.18,8125.37C5330.52,8109.55 5300.4,8110.75 5286.91,8139.07C5259.58,8196.48 5312.41,8245.33 5341.82,8287.54C5351.07,8300.81 5359.69,8328.07 5375.7,8334.66" style="fill:none;stroke:rgb(255,5,0);stroke-width:36.84px;"/>
            </g>
        </g>
        <g transform="matrix(1,0,0,1,54.0595,-170.553)">
            <g transform="matrix(0.888135,0,0,0.800951,540.186,1488.82)">
                <path d="M4984.95,7224.4C4989.01,7216.91 5019.66,7225.16 5025.05,7227.15C5047.11,7235.32 5065.81,7251.24 5079.2,7270.4C5133.36,7347.86 5102.82,7476.53 4993.27,7470.75C4975.45,7469.82 4957.69,7465.67 4941.32,7458.6C4927.51,7452.63 4914.65,7444.22 4904.09,7433.46C4826.01,7353.86 4914.01,7223.93 5011.75,7220.27" style="fill:none;stroke:rgb(255,5,0);stroke-width:43.56px;"/>
            </g>
            <g transform="matrix(0.888135,0,0,0.800951,557.87,1493.13)">
                <path d="M5019.42,7217.81C5019.22,7217.74 5019.97,7216.74 5020.01,7216.68C5022.11,7213.13 5023.7,7209.24 5025.49,7205.54" style="fill:none;stroke:rgb(255,5,0);stroke-width:43.56px;"/>
            </g>
            <g transform="matrix(0.888135,0,0,0.800951,540.186,1488.82)">
                <path d="M5103.89,7282.37C5105.46,7282.98 5106.97,7280.89 5108.64,7280.65" style="fill:none;stroke:rgb(255,5,0);stroke-width:43.56px;"/>
            </g>
            <g transform="matrix(0.888135,0,0,0.800951,540.186,1488.82)">
                <path d="M5119.55,7370.99C5117.37,7371.51 5123.79,7372.45 5125.8,7373.44" style="fill:none;stroke:rgb(255,5,0);stroke-width:43.56px;"/>
            </g>
            <g transform="matrix(0.888135,0,0,0.800951,540.186,1488.82)">
                <path d="M5066.19,7461.52C5067.99,7462.82 5068.36,7465.87 5069.52,7468.31" style="fill:none;stroke:rgb(255,5,0);stroke-width:43.56px;"/>
            </g>
            <g transform="matrix(0.888135,0,0,0.800951,540.186,1488.82)">
                <path d="M4967.54,7473.12C4968.27,7473.82 4965.42,7473.44 4964.67,7474.12C4962.78,7475.85 4961.06,7477.78 4959.31,7479.65" style="fill:none;stroke:rgb(255,5,0);stroke-width:43.56px;"/>
            </g>
            <g transform="matrix(0.888135,0,0,0.800951,540.186,1488.82)">
                <path d="M4891.56,7426.49C4891.04,7427.28 4889.86,7425.32 4888.92,7425.42C4886.41,7425.66 4883.85,7426.97 4881.58,7427.96" style="fill:none;stroke:rgb(255,5,0);stroke-width:43.56px;"/>
            </g>
            <g transform="matrix(0.888135,0,0,0.800951,540.186,1488.82)">
                <path d="M4862.62,7320.37C4862.62,7320.37 4866.23,7322.55 4862.62,7320.37Z" style="fill:none;stroke:rgb(255,5,0);stroke-width:43.56px;"/>
            </g>
            <g transform="matrix(0.888135,0,0,0.800951,540.186,1488.82)">
                <path d="M4927.94,7253.77C4928.77,7254.15 4927.43,7252 4927.1,7251.14C4926.11,7248.66 4924.99,7246.25 4924,7243.77" style="fill:none;stroke:rgb(255,5,0);stroke-width:43.56px;"/>
            </g>
            <g transform="matrix(0.888135,0,0,0.800951,540.186,1488.82)">
                <path d="M5242.77,7127.54C5242.77,7127.54 5291.96,7131.85 5295.45,7133.55C5317.93,7144.57 5337.59,7164.99 5348.99,7187.1C5392.51,7271.54 5308.27,7371.59 5218.55,7356.61C5156.52,7346.25 5106.25,7278.92 5128.31,7217.01C5145.52,7168.72 5192.7,7136.45 5242.77,7127.54Z" style="fill:none;stroke:rgb(255,5,0);stroke-width:43.56px;"/>
            </g>
            <g transform="matrix(0.888135,0,0,0.800951,540.186,1488.82)">
                <path d="M5129.5,7199.67C5140.47,7193.1 5129.26,7197.79 5118.03,7191.59" style="fill:none;stroke:rgb(255,5,0);stroke-width:43.56px;"/>
            </g>
            <g transform="matrix(0.888135,0,0,0.800951,550.091,1448.8)">
                <path d="M4885.2,7048.23C4883.34,7046.75 4893.6,7042.34 4893.98,7042.2C4903.4,7038.68 4913.85,7037.53 4923.84,7037.18C4954.61,7036.1 4986.18,7046.47 5002.76,7073.91C5036.62,7129.94 5012.94,7207.11 4948.48,7227.45C4893.7,7244.74 4835.99,7192.87 4832.77,7138.74C4830.26,7096.47 4858.43,7059.01 4896.48,7043.28" style="fill:none;stroke:rgb(255,5,0);stroke-width:43.56px;"/>
            </g>
            <g transform="matrix(0.888135,0,0,0.800951,553.395,1471.76)">
                <path d="M4833.82,7162.32C4826.75,7166.71 4821.97,7175.1 4821.97,7184.72C4821.97,7198.89 4832.35,7210.39 4845.12,7210.39C4847.77,7210.39 4852.31,7208.02 4856.52,7205.4L4856.94,7205.32C4869.48,7202.62 4877.69,7189.14 4875.25,7175.23C4873.24,7163.75 4867.36,7159.1 4863.05,7156.52C4859.2,7154.22 4855.02,7153.14 4850.47,7153.42C4847,7153.64 4842.81,7154.71 4838.51,7157.83C4837.51,7158.55 4835.4,7160.67 4833.82,7162.32ZM4835.67,7197.71C4832.76,7194.3 4830.67,7189.96 4829.8,7185.02C4830.86,7191.05 4833.11,7195 4835.67,7197.71Z" style="fill:rgb(255,5,0);"/>
            </g>
            <g transform="matrix(0.888135,0,0,0.800951,553.395,1471.76)">
                <path d="M4831.07,7079.77L4830.99,7079.78L4829.51,7079.83C4830.01,7079.83 4830.5,7079.82 4830.99,7079.78L4831.09,7079.77L4831.07,7079.77C4843.12,7078.88 4852.66,7067.75 4852.66,7054.16C4852.66,7043.84 4847.15,7034.94 4839.23,7030.87C4832.38,7027.26 4824.08,7027.44 4817.15,7032.16C4809.08,7037.66 4807.8,7043.91 4807.1,7046.32C4805.11,7053.22 4805.89,7059.2 4807.92,7064.39C4809.47,7068.33 4811.9,7072.03 4815.66,7075.02C4817.69,7076.64 4830.61,7079.66 4831.07,7079.77ZM4850.68,7063.77C4849.03,7068.24 4846.24,7072.23 4842.43,7075.15C4847.97,7071.02 4849.83,7066.56 4850.68,7063.77Z" style="fill:rgb(255,5,0);"/>
            </g>
            <g transform="matrix(0.888135,0,0,0.800951,553.395,1471.76)">
                <path d="M4914.98,6988.97C4914.97,6989.6 4914.95,6998.07 4915.5,7000.34C4916.65,7005.11 4918.7,7008.48 4920.59,7010.84C4925.5,7016.96 4931.53,7019.57 4938.26,7019.47C4942.17,7019.41 4950.06,7019.19 4956.89,7008.62C4960.45,7003.13 4961.76,6996.6 4961.03,6990.38C4960.22,6977.03 4950.19,6966.47 4937.94,6966.47C4926.13,6966.47 4916.38,6976.3 4914.98,6988.97ZM4914.98,6988.97L4914.98,6988.94L4914.97,6989.01C4914.85,6990.03 4914.79,6991.08 4914.79,6992.14L4914.97,6989.01L4914.98,6988.97ZM4934.58,6968.3C4930.41,6968.74 4924.52,6970.59 4919.27,6978.69C4923.05,6972.86 4928.63,6969.3 4934.58,6968.3Z" style="fill:rgb(255,5,0);"/>
            </g>
            <g transform="matrix(0.888135,0,0,0.800951,553.395,1471.76)">
                <path d="M5018.91,7105.97C5024.54,7113.6 5033.9,7117.27 5043.02,7114.47C5055.33,7110.68 5062.56,7096.53 5059.15,7082.87C5057.36,7075.75 5053.4,7069.97 5046.65,7066.44C5046.12,7066.17 5045.32,7065.92 5044.36,7065.7C5037.15,7062.63 5028.71,7063.64 5022.1,7069.18C5013.28,7076.57 5013.08,7084.82 5012.91,7088.31C5012.61,7094.57 5014.18,7100.03 5017.31,7104.79C5017.5,7105.08 5018.07,7105.49 5018.91,7105.97ZM5018.93,7105.98C5019.27,7106.45 5019.64,7106.91 5020.03,7107.36C5023.07,7110.92 5039.81,7115.04 5039.81,7115.04C5039.81,7115.04 5024.16,7108.99 5018.93,7105.98ZM5059.09,7092.19C5058.52,7098.58 5055.8,7104.72 5051.11,7109.15C5058.05,7102.77 5058.88,7095.91 5059.09,7092.19ZM5018.22,7104.98L5018.27,7105.06L5018.18,7104.93L5018.22,7104.98ZM5017.42,7103.71L5017.54,7103.9L5017.39,7103.66L5017.42,7103.71ZM5016.69,7102.39L5016.76,7102.53L5016.42,7101.82L5016.69,7102.39ZM5016.04,7101.02L5016.17,7101.31L5015.85,7100.56L5016.04,7101.02ZM5015.46,7099.6L5015.62,7100L5015.36,7099.29L5015.46,7099.6ZM5014.96,7098.12L5015.1,7098.56L5014.92,7097.98L5014.96,7098.12ZM5058.84,7085.11L5058.9,7085.51L5058.89,7085.44L5058.84,7085.11ZM5058.5,7083.36L5058.21,7082.19C5058.42,7082.94 5058.59,7083.7 5058.73,7084.48L5058.5,7083.36ZM5057.9,7081.17L5058.12,7081.87L5057.94,7081.26L5057.9,7081.17Z" style="fill:rgb(255,5,0);"/>
            </g>
            <g transform="matrix(0.888135,0,0,0.800951,553.395,1471.76)">
                <path d="M4972.54,7175.38C4971.58,7175.21 4970.68,7175.1 4970.04,7175.1C4957.26,7175.1 4946.89,7186.6 4946.89,7200.77C4946.89,7214.94 4957.26,7226.44 4970.04,7226.44C4968.18,7226.44 4963.62,7225.36 4963.62,7225.36C4963.62,7225.36 4984.4,7224.3 4989.46,7217.77C4997.79,7207.03 4996.69,7190.81 4987,7181.57C4982.8,7177.57 4977.68,7175.53 4972.54,7175.38Z" style="fill:rgb(255,5,0);"/>
            </g>
            <g transform="matrix(0.888135,0,0,0.800951,540.186,1488.82)">
                <path d="M5154.79,7320.28C5155.5,7319.65 5153.98,7322.01 5153.6,7322.88C5152.82,7324.69 5151.99,7326.47 5151.2,7328.26" style="fill:none;stroke:rgb(255,5,0);stroke-width:43.56px;"/>
            </g>
            <g transform="matrix(0.888135,0,0,0.800951,540.186,1488.82)">
                <path d="M5231.05,7365.02C5228.86,7366.59 5228.95,7372.61 5228.7,7375.08" style="fill:none;stroke:rgb(255,5,0);stroke-width:43.56px;"/>
            </g>
            <g transform="matrix(0.888135,0,0,0.800951,540.186,1488.82)">
                <path d="M5328.09,7333.29C5327.5,7333.48 5331.41,7337.13 5332.85,7338.56" style="fill:none;stroke:rgb(255,5,0);stroke-width:43.56px;"/>
            </g>
            <g transform="matrix(0.888135,0,0,0.800951,540.186,1488.82)">
                <path d="M5362.21,7262.49C5364.34,7259.65 5366.23,7259.71 5370.76,7259.69" style="fill:none;stroke:rgb(255,5,0);stroke-width:43.56px;"/>
            </g>
            <g transform="matrix(0.888135,0,0,0.800951,540.186,1488.82)">
                <path d="M5365.08,7190C5364.21,7191.86 5368.68,7188.05 5370.48,7187.07" style="fill:none;stroke:rgb(255,5,0);stroke-width:43.56px;"/>
            </g>
            <g transform="matrix(0.888135,0,0,0.800951,540.186,1488.82)">
                <path d="M5315.09,7136.28C5316.15,7132.99 5316.14,7128.9 5317.62,7125.29" style="fill:none;stroke:rgb(255,5,0);stroke-width:43.56px;"/>
            </g>
            <g transform="matrix(0.888135,0,0,0.800951,540.186,1488.82)">
                <path d="M5206.82,7127.36C5207.5,7128.48 5206.38,7124.76 5205.95,7123.52C5204.79,7120.2 5203.24,7116.99 5201.87,7113.76" style="fill:none;stroke:rgb(255,5,0);stroke-width:43.56px;"/>
            </g>
        </g>
    </g>
    <g id="example">
        <g id="order-policy" serif:id="order policy" transform="matrix(0.829356,0,0,0.789641,2553.31,2950.64)">
            <g transform="matrix(1.49466,0,0,0.801091,-610.247,707.067)">
                <path d="M596.341,2509.6C596.341,2509.6 595.29,2500.93 596.456,2519.61C615.445,2823.92 610.007,3064.77 621.044,3371.47C630.754,3641.26 633.741,4005.16 638.329,4025.96C645.989,4060.69 1455.42,4027.24 1474.21,4026.33C1643.64,4018.13 2073.18,4056.77 2072.07,4029.04C2070.9,3999.77 2059.4,3291.64 2052.88,3196.31C2050.72,3164.66 2040.11,2508.86 2033.51,2508.91C1997.03,2509.21 1445.46,2519.92 1219.22,2511.85C848.143,2498.6 959.731,2509.6 596.341,2509.6Z" style="fill:rgb(255,144,251);stroke:black;stroke-width:42.34px;"/>
            </g>
            <g transform="matrix(0.457949,0,0,0.443393,1074.87,1680.76)">
                <text x="-1140.64px" y="3521.83px" style="font-family:'Noteworthy-Bold', 'Noteworthy';font-weight:700;font-size:761.93px;">or<tspan x="-462.745px -77.97px " y="3521.83px 3521.83px ">de</tspan>r po<tspan x="1538.03px 1698.75px 1853.99px 2206.4px " y="3521.83px 3521.83px 3521.83px 3521.83px ">licy</tspan></text>
            </g>
            <g transform="matrix(0.443393,0,0,0.443393,1045.99,1981.35)">
                <g transform="matrix(1.03283,0,0,1,39.0873,0)">
                    <text x="-1190.69px" y="3521.83px" style="font-family:'Noteworthy-Bold', 'Noteworthy';font-weight:700;font-size:285.615px;">t<tspan x="-1090.18px -957.015px " y="3521.83px 3521.83px ">he</tspan> t<tspan x="-666.753px -532.762px -445.394px -287.405px -229.925px -170.303px -46.966px 111.023px 168.503px " y="3521.83px 3521.83px 3521.83px 3521.83px 3521.83px 3521.83px 3521.83px 3521.83px 3521.83px ">otal valu</tspan>e o<tspan x="634.685px 748.931px " y="3521.83px 3521.83px ">f </tspan>open or<tspan x="1703.51px 1847.75px 1983.42px 2082.8px 2223.46px 2283.09px 2380.39px 2528.56px " y="3521.83px 3521.83px 3521.83px 3521.83px 3521.83px 3521.83px 3521.83px 3521.83px ">ders for</tspan></text>
                </g>
                <g transform="matrix(1.03283,0,0,1,39.2156,0)">
                    <text x="-1194.6px" y="3889.56px" style="font-family:'Noteworthy-Bold', 'Noteworthy';font-weight:700;font-size:285.615px;">a cu<tspan x="-710.744px -570.079px -475.106px -326.943px -120.643px 15.024px " y="3889.56px 3889.56px 3889.56px 3889.56px 3889.56px 3889.56px ">stomer</tspan> m<tspan x="390.699px 543.503px " y="3889.56px 3889.56px ">ay</tspan> no<tspan x="1035.23px 1141.26px 1200.88px 1317.19px 1478.03px 1621.2px " y="3889.56px 3889.56px 3889.56px 3889.56px 3889.56px 3889.56px ">t exce</tspan>ed t<tspan x="2196.89px 2330.06px 2474.02px 2532.22px " y="3889.56px 3889.56px 3889.56px 3889.56px ">heir</tspan></text>
                </g>
                <g transform="matrix(1.03283,0,0,1,-5.264,0)">
                    <text x="160.353px" y="4257.29px" style="font-family:'Noteworthy-Bold', 'Noteworthy';font-weight:700;font-size:285.615px;">cr<tspan x="406.702px 542.369px 689.37px 733.392px 839.426px 899.048px 959.294px 1017.49px 1227.59px 1271.61px " y="4257.29px 4257.29px 4257.29px 4257.29px 4257.29px 4257.29px 4257.29px 4257.29px 4257.29px 4257.29px ">edit limit</tspan></text>
                </g>
            </g>
        </g>
        <g id="credit-limit---value-of-open-orders" serif:id="credit limit &amp; value of open orders" transform="matrix(0.757744,0.0178236,-0.0267202,0.70059,2876.11,2346.96)">
            <g transform="matrix(-0.99964,0.0268126,-0.0268126,-0.99964,2878.88,6497.48)">
                <path d="M644.501,2566.08C644.501,2566.08 643.335,2547.4 644.501,2566.08C663.49,2870.38 688.47,2995.12 685.517,3338.78C683.397,3585.43 702.337,4022.68 711.847,4026.46C731.534,4034.27 1256.76,4027.17 1275.54,4026.26C1444.97,4018.07 2152.22,4020.27 2162.99,4001.06C2169.9,3988.74 2139.54,3650.06 2138.34,3639.5C2129.56,3562.62 2102.73,3146.19 2108.11,3050.91C2112.74,2969.15 2076.54,2517.91 2069.94,2517.96C2033.46,2518.26 1674.09,2527.02 1645.5,2528.77C1329.97,2548.01 1007.89,2566.08 644.501,2566.08Z" style="fill:rgb(88,235,153);stroke:black;stroke-width:57.37px;"/>
            </g>
            <g transform="matrix(0.922519,-0.0602586,0.0618294,0.920456,-4310.02,-938.749)">
                <g transform="matrix(0.995625,0,0,1,23.9131,0)">
                    <text x="5465.84px" y="4575.68px" style="font-family:'Noteworthy-Bold', 'Noteworthy';font-weight:700;font-size:322.325px;">cr<tspan x="5743.47px 5896.61px 6062.66px 6111.79px " y="4575.68px 4575.68px 4575.68px 4575.68px ">edit</tspan></text>
                </g>
                <g transform="matrix(0.995625,0,0,1,24.4044,0)">
                    <text x="5578.14px" y="4868.99px" style="font-family:'Noteworthy-Bold', 'Noteworthy';font-weight:700;font-size:322.325px;">l<tspan x="5646.28px 5712px 5949.38px 5998.5px " y="4868.99px 4868.99px 4868.99px 4868.99px ">imit</tspan></text>
                </g>
            </g>
            <g transform="matrix(0.922519,-0.0602586,0.0618294,0.920456,-3670.71,-289.253)">
                <g transform="matrix(0.995625,0,0,1,20.9925,0)">
                    <text x="4798.29px" y="4575.68px" style="font-family:'Noteworthy-Bold', 'Noteworthy';font-weight:700;font-size:257.86px;">v<tspan x="4909.14px 5051.98px 5103.91px " y="4575.68px 4575.68px 4575.68px ">alu</tspan>e o<tspan x="5524.64px " y="4575.68px ">f</tspan></text>
                </g>
                <g transform="matrix(0.995625,0,0,1,20.018,0)">
                    <text x="4575.54px" y="4805.82px" style="font-family:'Noteworthy-Bold', 'Noteworthy';font-weight:700;font-size:257.86px;">open<tspan x="5100.41px " y="4805.82px "> </tspan>or<tspan x="5383.48px 5513.73px 5636.24px 5725.5px " y="4805.82px 4805.82px 4805.82px 4805.82px ">ders</tspan></text>
                </g>
            </g>
            <g transform="matrix(1.31852,-0.0335443,0.0502879,1.42609,-3786.51,-3765.73)">
                <path d="M3324.88,4826.71C3325.67,4827.5 3323.81,4824.76 3323.19,4823.83C3317.01,4814.48 3325.81,4799.81 3336.78,4808.03C3355.52,4822.09 3339.32,4868.67 3318.29,4851.14C3301.11,4836.83 3320.47,4806.52 3341,4817.77C3360.7,4828.56 3343.86,4855.26 3324.95,4851.72C3296.33,4846.37 3306.76,4807.77 3334.16,4810.88C3362.6,4814.11 3353.9,4851.54 3329.09,4854.39C3298.95,4857.85 3285.62,4811.99 3318.51,4807.99C3364.99,4802.34 3342.49,4866.13 3320.69,4843.01" style="fill:none;stroke:black;stroke-width:36.84px;"/>
            </g>
            <g transform="matrix(1.31852,-0.0335443,0.0502879,1.42609,-3786.51,-3765.73)">
                <path d="M3323.86,5213.27C3324.02,5213.84 3331.21,5204.26 3340.38,5212.24C3356.11,5225.95 3327.69,5242.1 3315.67,5229.93C3299.42,5213.48 3332.01,5194.98 3347.09,5204.95C3369.58,5219.82 3351.25,5256.13 3326.11,5247.93C3296.9,5238.4 3315.09,5190.82 3341.18,5207.53C3365.74,5223.26 3338.3,5260.23 3318.87,5241.66C3299.24,5222.9 3334.77,5185.78 3354.29,5206.73C3374.46,5228.38 3329.14,5257.97 3322.64,5234.6" style="fill:none;stroke:black;stroke-width:36.84px;"/>
            </g>
        </g>
        <g id="pack-order" serif:id="pack order" transform="matrix(0.757904,-0.00868552,-0.0022043,0.701095,4029.41,3887.17)">
            <g transform="matrix(-0.99964,0.0268126,-0.0268126,-0.99964,2878.88,6497.48)">
                <path d="M644.501,2566.08C644.501,2566.08 644.528,2547.36 644.501,2566.08C644.049,2877.48 663.623,3004.18 685.517,3338.78C701.622,3584.91 702.337,4022.68 711.847,4026.46C731.534,4034.27 1256.76,4027.17 1275.54,4026.26C1444.97,4018.07 2152.22,4020.27 2162.99,4001.06C2169.9,3988.74 2139.54,3650.06 2138.34,3639.5C2129.56,3562.62 2102.73,3146.19 2108.11,3050.91C2112.74,2969.15 2076.54,2517.91 2069.94,2517.96C2033.46,2518.26 1674.09,2527.02 1645.5,2528.77C1329.97,2548.01 1007.89,2566.08 644.501,2566.08Z" style="fill:rgb(0,173,255);stroke:black;stroke-width:57.37px;"/>
            </g>
            <g transform="matrix(0.851756,-0.0556364,0.0570867,0.849852,-3840.45,-366.081)">
                <g transform="matrix(0.995625,0,0,1,23.4097,0)">
                    <text x="5350.79px" y="4575.68px" style="font-family:'Noteworthy-Bold', 'Noteworthy';font-weight:700;font-size:485.538px;">p<tspan x="5583.85px 5849.77px 6093.21px " y="4575.68px 4575.68px 4575.68px ">ack</tspan></text>
                </g>
                <g transform="matrix(0.995625,0,0,1,23.181,0)">
                    <text x="5298.51px" y="5051.15px" style="font-family:'Noteworthy-Bold', 'Noteworthy';font-weight:700;font-size:485.538px;">or<tspan x="5730.09px " y="5051.15px ">d</tspan></text>
                </g>
                <g transform="matrix(0.995625,0,0,1,26.1292,0)">
                    <text x="5972.39px" y="5051.15px" style="font-family:'Noteworthy-Bold', 'Noteworthy';font-weight:700;font-size:485.538px;">e</text>
                </g>
                <g transform="matrix(0.995625,0,0,1,27.134,0)">
                    <text x="6202.07px" y="5051.15px" style="font-family:'Noteworthy-Bold', 'Noteworthy';font-weight:700;font-size:485.538px;">r</text>
                </g>
            </g>
        </g>
        <g id="raise-invoice" serif:id="raise invoice" transform="matrix(0.757519,0.0256569,-0.0339621,0.700276,4102.24,2701.45)">
            <g transform="matrix(-0.99964,0.0268126,-0.0268126,-0.99964,2878.88,6497.48)">
                <path d="M644.501,2566.08C644.501,2566.08 643.335,2547.4 644.501,2566.08C663.49,2870.38 688.47,2995.12 685.517,3338.78C683.397,3585.43 702.337,4022.68 711.847,4026.46C731.534,4034.27 1256.76,4027.17 1275.54,4026.26C1444.97,4018.07 2152.22,4020.27 2162.99,4001.06C2169.9,3988.74 2139.54,3650.06 2138.34,3639.5C2129.56,3562.62 2102.73,3146.19 2108.11,3050.91C2112.74,2969.15 2076.54,2517.91 2069.94,2517.96C2033.46,2518.26 1674.09,2527.02 1645.5,2528.77C1329.97,2548.01 1007.89,2566.08 644.501,2566.08Z" style="fill:rgb(0,173,255);stroke:black;stroke-width:57.37px;"/>
            </g>
            <g transform="matrix(0.851756,-0.0556364,0.0570867,0.849852,-3840.45,-366.081)">
                <g transform="matrix(0.995625,0,0,1,23.4682,0)">
                    <text x="5364.16px" y="4575.68px" style="font-family:'Noteworthy-Bold', 'Noteworthy';font-weight:700;font-size:485.538px;">r<tspan x="5525.51px 5794.48px 5873.96px 6103.4px " y="4575.68px 4575.68px 4575.68px 4575.68px ">aise</tspan></text>
                </g>
                <g transform="matrix(0.995625,0,0,1,22.5105,0)">
                    <text x="5145.26px" y="5019.73px" style="font-family:'Noteworthy-Bold', 'Noteworthy';font-weight:700;font-size:485.538px;">in<tspan x="5493.1px 5720.11px 5981.8px 6080.78px " y="5019.73px 5019.73px 5019.73px 5019.73px ">voic</tspan>e</text>
                </g>
            </g>
        </g>
        <g id="Event" transform="matrix(0.83622,0.169505,-0.183875,0.77087,2561.61,973.233)">
            <g transform="matrix(0.155102,0.909384,-0.850329,0.14503,3520.64,3791.25)">
                <path d="M651.314,2500.39C651.314,2500.39 652.624,2853.89 665.532,2971.42C680.951,3111.81 682.072,3282.99 688.028,3584.85C692.898,3831.66 702.337,4022.68 711.847,4026.46C731.534,4034.27 1550.53,3997.14 1569.32,3996.23C1738.75,3988.03 2079.08,4002.12 2089.86,3982.91C2096.76,3970.59 2081.92,3650.22 2086.81,3551.64C2094.26,3401.49 2065.55,3202.6 2064.99,2975.21C2064.91,2943.48 2052.78,2463.05 2046.19,2463.1C2009.7,2463.4 1518.88,2487.44 1375.36,2484.68C1207.5,2481.46 925.56,2494.41 651.314,2500.39Z" style="fill:rgb(255,180,0);stroke:black;stroke-width:56.6px;"/>
            </g>
            <g transform="matrix(0.84068,-0.172293,0.172293,0.84068,-4741.28,2569.67)">
                <g transform="matrix(0.995625,0,0,1,23.4525,0)">
                    <text x="5360.56px" y="4575.68px" style="font-family:'Noteworthy-Bold', 'Noteworthy';font-weight:700;font-size:430.606px;">or<tspan x="5743.31px 5960.82px " y="4575.68px 4575.68px ">de</tspan>r</text>
                </g>
                <g transform="matrix(0.995625,0,0,1,23.0114,0)">
                    <text x="5259.74px" y="5033.35px" style="font-family:'Noteworthy-Bold', 'Noteworthy';font-weight:700;font-size:430.606px;">p<tspan x="5483.19px 5565.58px 5801.42px 6017.31px " y="5033.35px 5033.35px 5033.35px 5033.35px ">lace</tspan>d</text>
                </g>
            </g>
        </g>
        <g id="it-represents-the-decision" serif:id="it represents the decision" transform="matrix(0.894716,-0.446636,0.446636,0.894716,-1868.77,1702.98)">
            <g transform="matrix(0.876547,0.481317,-0.481317,0.876547,3154.63,-1120.34)">
                <path d="M696.288,6124.04C787.985,6047.7 894.88,5969.8 990.77,5885.65C1091.05,5797.64 1199.6,5705.99 1301.06,5619.3C1372.17,5558.53 1448.82,5502.66 1522.54,5445.25C1583.04,5398.13 1667.84,5337.86 1738.33,5285" style="fill:none;stroke:rgb(255,9,0);stroke-width:36.84px;"/>
            </g>
            <g transform="matrix(0.874548,0.48494,-0.48494,0.874548,3182.57,-1082.73)">
                <path d="M635.072,6051.71C635.772,6052.55 636.085,6049.76 636.779,6048.92C644.825,6039.17 657.683,6032.28 667.806,6025.06C700.921,6001.45 732.106,5975.48 763.516,5949.68C834.798,5891.13 905.87,5832.51 975.559,5772.05C1201.98,5575.62 1430.16,5374.03 1678.62,5205.43" style="fill:rgb(255,0,16);stroke:rgb(255,11,0);stroke-width:36.84px;"/>
            </g>
            <g transform="matrix(0.883853,-0.140506,0.140506,0.883853,-1864.7,2223.31)">
                <text x="2526.36px" y="2890.25px" style="font-family:'Noteworthy-Bold', 'Noteworthy';font-weight:700;font-size:416.667px;stroke:rgb(255,177,247);stroke-width:1.12px;stroke-linecap:butt;stroke-miterlimit:2;">e<tspan x="2695.11px 2933.65px 3164.38px 3471.15px 3687.3px 3771.15px " y="2890.25px 2890.25px 2890.25px 2890.25px 2890.25px 2890.25px ">xample</tspan>!</text>
            </g>
        </g>
    </g>
    <g id="information-needed-in-order..." serif:id="information needed in order...">
        <g id="decision" transform="matrix(0.757744,0.0178236,-0.0267202,0.70059,4153.83,1197.42)">
            <g transform="matrix(-0.99964,0.0268126,-0.0268126,-0.99964,2878.88,6497.48)">
                <path d="M644.501,2566.08C644.501,2566.08 643.335,2547.4 644.501,2566.08C663.49,2870.38 688.47,2995.12 685.517,3338.78C683.397,3585.43 702.337,4022.68 711.847,4026.46C731.534,4034.27 1256.76,4027.17 1275.54,4026.26C1444.97,4018.07 2152.22,4020.27 2162.99,4001.06C2169.9,3988.74 2139.54,3650.06 2138.34,3639.5C2129.56,3562.62 2102.73,3146.19 2108.11,3050.91C2112.74,2969.15 2076.54,2517.91 2069.94,2517.96C2033.46,2518.26 1674.09,2527.02 1645.5,2528.77C1329.97,2548.01 1007.89,2566.08 644.501,2566.08Z" style="fill:rgb(0,173,255);stroke:black;stroke-width:57.37px;"/>
            </g>
            <g transform="matrix(0.918483,-0.059995,0.0618294,0.920456,-4253.9,-479.104)">
                <text x="5195.82px" y="4575.68px" style="font-family:'Noteworthy-Bold', 'Noteworthy';font-weight:700;font-size:387.782px;">dec<tspan x="5770.36px 5833.84px 6028.77px 6096.14px 6297.35px " y="4575.68px 4575.68px 4575.68px 4575.68px 4575.68px ">ision</tspan></text>
            </g>
        </g>
        <g transform="matrix(0.918604,0,0,0.889407,1038.64,1037.55)">
            <text x="2526.36px" y="2890.25px" style="font-family:'Noteworthy-Bold', 'Noteworthy';font-weight:700;font-size:398.206px;">m<tspan x="2807.59px 3024.61px 3204.8px 3393.95px " y="2890.25px 2890.25px 2890.25px 2890.25px ">ake </tspan>a</text>
        </g>
        <g transform="matrix(0.918604,0,0,0.889407,-131.755,257.28)">
            <text x="2526.36px" y="2890.25px" style="font-family:'Noteworthy-Bold', 'Noteworthy';font-weight:700;font-size:398.206px;">in<tspan x="2811.57px 2946.47px 3153.03px 3312.32px 3593.55px 3791.16px 3938.99px 4008.18px 4214.75px " y="2890.25px 2890.25px 2890.25px 2890.25px 2890.25px 2890.25px 2890.25px 2890.25px 2890.25px ">formation</tspan> n<tspan x="4724.45px 4913.6px " y="2890.25px 2890.25px ">ee</tspan>ded in or<tspan x="6507.42px 6708.51px " y="2890.25px 2890.25px ">de</tspan>r t<tspan x="7271.97px " y="2890.25px ">o</tspan></text>
        </g>
    </g>
    <g id="read-model" serif:id="read model" transform="matrix(0.757744,0.0178236,-0.0267202,0.70059,281.375,929.769)">
        <g transform="matrix(-0.99964,0.0268126,-0.0268126,-0.99964,2878.88,6497.48)">
            <path d="M644.501,2566.08C644.501,2566.08 643.335,2547.4 644.501,2566.08C663.49,2870.38 688.47,2995.12 685.517,3338.78C683.397,3585.43 702.337,4022.68 711.847,4026.46C731.534,4034.27 1256.76,4027.17 1275.54,4026.26C1444.97,4018.07 2152.22,4020.27 2162.99,4001.06C2169.9,3988.74 2139.54,3650.06 2138.34,3639.5C2129.56,3562.62 2102.73,3146.19 2108.11,3050.91C2112.74,2969.15 2076.54,2517.91 2069.94,2517.96C2033.46,2518.26 1674.09,2527.02 1645.5,2528.77C1329.97,2548.01 1007.89,2566.08 644.501,2566.08Z" style="fill:rgb(88,235,153);stroke:black;stroke-width:57.37px;"/>
        </g>
        <g transform="matrix(0.922519,-0.0602586,0.0618294,0.920456,-4294.11,-663.001)">
            <g transform="matrix(0.995625,0,0,1,23.661,0)">
                <text x="5408.22px" y="4575.68px" style="font-family:'Noteworthy-Bold', 'Noteworthy';font-weight:700;font-size:471.587px;">r<tspan x="5577.97px 5793.15px 6051.43px " y="4575.68px 4575.68px 4575.68px ">ead</tspan></text>
            </g>
            <g transform="matrix(0.995625,0,0,1,23.088,0)">
                <text x="5277.25px" y="5055.94px" style="font-family:'Noteworthy-Bold', 'Noteworthy';font-weight:700;font-size:471.587px;">m<tspan x="5619.82px 5864.52px 6102.73px 6326.79px " y="5055.94px 5055.94px 5055.94px 5055.94px ">odel</tspan></text>
            </g>
        </g>
    </g>
</svg>
